<svg xmlns="http://www.w3.org/2000/svg" viewBox="0 0 129.13 193.78"><defs><style>.cls-1{isolation:isolate;}.cls-2{fill:#fff;}.cls-3{fill:#e8ebe4;}.cls-3,.cls-8,.cls-9{mix-blend-mode:multiply;}.cls-4{fill:#e8ad80;}.cls-5{fill:#f2574a;}.cls-6{fill:#ffdeb8;}.cls-7{fill:#231f20;}.cls-8{fill:#dba880;}.cls-9{fill:#e84f4a;}.cls-10{fill:#ff9c8d;}</style></defs><title>chicken</title><g class="cls-1"><g id="Layer_2" data-name="Layer 2"><g id="Layer_1-2" data-name="Layer 1"><path class="cls-2" d="M117.07,143c9.26-20.87,13.63-39.7,9.07-62.36-.94-4.64-1.87-9-4.3-13.22-4.8-8.35-16.23-16.06-24.27-20.88S81.22,40.25,71.8,40.73c-19,1-37.64,7.38-51,21.7C9,75.06,8.22,94,11.39,110.48c1.57,8.2,4.94,16,8.49,23.39s5.88,15.08,12,20.78a99.38,99.38,0,0,1,15.29,17.5,27,27,0,0,0,19.7,11.21c13.66.84,33.43-.88,43.94-10.49,2.72-2.5,5.61-6.19,4.93-10.16-3.49-.52-7,1.5-10.53,1.78C109,157.3,113.66,150.68,117.07,143Z" transform="translate(-0.31)"/><path class="cls-3" d="M22.8,146.34a45.34,45.34,0,0,0,22.3,2.76c3.77-.53,7.31-1.28,9.27-4.49,1.65-2.71,2.58-6.43-.7-8.45-.71,5.72-10.4,7.42-14.74,8.18-3.34.59-6-.05-9.12-.36-2.14-.21-9.41.22-4.48,2.89" transform="translate(-0.31)"/><path class="cls-4" d="M36,145.43l2,0c5.17,0,13.88-.18,15.13-6.31,1.19-5.83-5-8.7-9.4-10.61-8.87-3.84-15.48-5.46-25.23-2.38C14,127.59,3.22,130,1.2,134.89,11.41,144.18,23.2,145.27,36,145.43Z" transform="translate(-0.31)"/><path class="cls-5" d="M52.12,156.22c-1-4.47-5.54-2.77-8.91-2.51-2.23.18-2-1.94-4.35-.27-1.13.81-.86,4.16-1.88,4.62a12.9,12.9,0,0,0,3.86-2.87c1,2.38,0,13.62,2.5,14.56,5.3,2,1.85-11.85,2.27-14C47.79,157.43,53.88,163.94,52.12,156.22Z" transform="translate(-0.31)"/><path class="cls-3" d="M123.3,72.76c.81,8.67,3.72,17.26,3.34,26.36s-2.78,19.52-5.48,28.35C117,141,107.39,157.3,93.77,163.23c4.11.15,7.39,3.88,11.35,4.57-.39-.86-.27-2.39-.83-3.38,7.09-3,11.2-14.32,14.31-20.76,3.35-6.93,6.84-14.22,8.7-21.71a72.56,72.56,0,0,0,1.85-23.79c-.61-6.33-.62-17-5.88-21.34" transform="translate(-0.31)"/><path class="cls-3" d="M51.43,175c-.21,7.4,27.33,7.18,32.88,5.77,8.34-2.12,24.82-4.16,30.06-12.09-7.4,9.45-18.69,12.64-30.05,14.24-7.7,1.09-30.42,4.23-32.4-6.4" transform="translate(-0.31)"/><path class="cls-6" d="M26.39,127.59a2.34,2.34,0,0,1-.7,0,6.65,6.65,0,0,0-.78.09,12.77,12.77,0,0,0-1.71.48c-1.29.43-2.59.84-3.87,1.29s-2.64.89-4,1.27c-.6.18-1.21.33-1.81.51a4.44,4.44,0,0,0-1.25.45c-.24.16.28.4.36.43a3.84,3.84,0,0,0,1.34.3c-1-.2-1.25-.22-.62-.08l.32,0a4.34,4.34,0,0,0,.72,0,7.13,7.13,0,0,0,1-.07,16.45,16.45,0,0,0,1.7-.33c1.3-.33,2.58-.78,3.84-1.22a35.77,35.77,0,0,0,3.59-1.43c.46-.22.92-.44,1.37-.69a2.9,2.9,0,0,0,.52-.34c.16-.15.11-.3.22-.42a.05.05,0,0,0,0-.08l0-.21s-.2-.1-.26-.07Z" transform="translate(-0.31)"/><path class="cls-6" d="M9.6,132.26a1.68,1.68,0,0,1-.34.2.4.4,0,0,1-.42,0l.17.2c-.07-.1-.17-.28-.3-.31H8.57l-.3,0h0a.47.47,0,0,0-.15-.06H7.84l-.22,0a.12.12,0,0,0-.11,0l-.07.11c0,.06,0,.14,0,.2a2.11,2.11,0,0,0,.16.34c.07.12.14.24.22.35a.9.9,0,0,0,.2.23c-.15-.1,0,0,0,0l.12.06a.48.48,0,0,0,.23.07l.32,0H9s0,0,.05-.05a.81.81,0,0,1,.21-.1l.1-.05s0,0,0,0,0-.15,0-.2a.44.44,0,0,1,.17-.16,2,2,0,0,0,.37-.35c.06-.08-.28-.58-.32-.55Z" transform="translate(-0.31)"/><path class="cls-7" d="M23.21,106.16a3.29,3.29,0,1,1-2.85-3.66A3.3,3.3,0,0,1,23.21,106.16Z" transform="translate(-0.31)"/><path class="cls-7" d="M79.32,107.83a3.29,3.29,0,1,1-2.86-3.66A3.3,3.3,0,0,1,79.32,107.83Z" transform="translate(-0.31)"/><path d="M14.84,126.49A81.54,81.54,0,0,1,11,88.11c1.45-9.66,4.85-19.37,11-27C31.49,49.4,46.19,43.14,60.85,41.52c15.06-1.67,31.17,1.17,44.08,9.32a45.64,45.64,0,0,1,15.36,15.8c4.81,8.4,6.57,18.31,7.09,27.87a102.51,102.51,0,0,1-18.21,63.77c-1.53,2.18-3.14,4.29-4.69,6.44-.09.13.72.88.82.78a58.59,58.59,0,0,0,9.94-13.44,103.11,103.11,0,0,0,7.19-15.44A104.89,104.89,0,0,0,129,102.7c.24-10.37-1-21.51-5.29-31A49.94,49.94,0,0,0,110,53.94C98,44,82.19,39.4,66.74,39.61c-15.11.2-30.82,5-42,15.55-16.08,15.22-18.62,40.36-13.9,61a90.94,90.94,0,0,0,2.67,9.28,2.24,2.24,0,0,0,.71.82c.06.05.63.43.58.28Z" transform="translate(-0.31)"/><path d="M42.07,163.8a75.65,75.65,0,0,1-8.7-7.17,69.56,69.56,0,0,1-7.46-8.71,2.44,2.44,0,0,0-.82-.78c-.21-.09-.34-.13-.14.15a77,77,0,0,0,8.14,9.44,56.77,56.77,0,0,0,9.36,7.65c.41.26-.28-.51-.38-.58Z" transform="translate(-0.31)"/><path d="M47.46,167.15c-.75-.4-1.49-.81-2.22-1.25-.08-.05-.06,0,0,.06a.93.93,0,0,0,.23.21q1.09.63,2.22,1.23c.07,0,0-.07,0-.08a.77.77,0,0,0-.19-.17Z" transform="translate(-0.31)"/><path d="M48.24,168.92a12.78,12.78,0,0,0,4.22,11c3.24,2.79,7.4,4,11.56,4.61,10,1.4,20.44-.21,30.12-2.68,4.14-1,8.5-2.24,12.2-4.46.14-.08.2-.61.29-.65a130.24,130.24,0,0,1-24.86,6.09,71.18,71.18,0,0,1-15.09.47c-4.21-.38-8.69-1.29-12.32-3.56-3.85-2.4-5.74-6.38-6.11-10.81v0Z" transform="translate(-0.31)"/><path d="M104.31,167.49a37.8,37.8,0,0,1,7.44-4c1.29-.47,3-1,4.35-.54a1.9,1.9,0,0,1,1.17,2.22,10.56,10.56,0,0,1-2.15,4.47,44.21,44.21,0,0,1-6.39,6.8c-.35.32.19-.07.29-.15a40.68,40.68,0,0,0,6.3-6.35,13.92,13.92,0,0,0,2.68-4.81c.24-.95.28-2.18-.66-2.76-1.18-.71-2.88-.22-4.07.17a34.19,34.19,0,0,0-8.61,4.61,1.52,1.52,0,0,0-.37.3c-.05.07-.1.11,0,0Z" transform="translate(-0.31)"/><path d="M108.92,170.39a21.49,21.49,0,0,1,2.49-1.86,16.34,16.34,0,0,0,2.66-2.18,2.46,2.46,0,0,0,.34-.44s.09-.18,0-.1c-.79.57-1.57,1.13-2.37,1.69a23.31,23.31,0,0,0-2.56,2,3.67,3.67,0,0,0-.65.82s-.12.18-.08.21.18-.11.19-.12Z" transform="translate(-0.31)"/><path d="M66,183.06a2,2,0,0,1-.27.38,3.2,3.2,0,0,0-.42.33,2.89,2.89,0,0,0-.41.89,9.84,9.84,0,0,0-.41,2.15,13.35,13.35,0,0,0,0,2.19q0,.52.12,1.05a3,3,0,0,0,.27,1.07c.15.24.83-.08,1-.15s.79-.32.8-.63c0,.07-.61.61-.19.28a.58.58,0,0,0,.18-.2.9.9,0,0,0-.05-.46c-.08-.32-.13-.63-.18-1a19.43,19.43,0,0,1-.16-2c0-1.22.15-2.41.23-3.62,0,0,0-.07,0-.09s-.24-.14-.2-.31-.22,0-.25.08Z" transform="translate(-0.31)"/><path d="M89.13,182.93a24,24,0,0,0-1.19,2.57,17.13,17.13,0,0,0-.75,2.81,14.06,14.06,0,0,0-.22,2.82,13.57,13.57,0,0,0,.11,1.42c0,.36,0,1,.38,1.2s1.17-.73,1.23-1a3.9,3.9,0,0,0-.13-1.4c-.07-.41-.11-.81-.14-1.22a16.48,16.48,0,0,1,.09-2.63A15.85,15.85,0,0,1,89,184.9a14.07,14.07,0,0,1,.73-2.28c.08-.18,0-.18-.15-.15s-.38.31-.45.46Z" transform="translate(-0.31)"/><path d="M26.61,124.88a70.88,70.88,0,0,0-25.69,8.8c-.09,0-.74.48-.58.65,2.07,2.2,5.3,3.11,8.16,3.71a64.54,64.54,0,0,0,13.31,1.08,138,138,0,0,0,29.75-3.43c3.94-.89,8.44-1.78,11.93-3.93.08,0,.51-.48.16-.38-1.5.44-2.94,1.11-4.44,1.6-2,.65-4,1.19-6,1.68a130.28,130.28,0,0,1-14,2.53c-9.29,1.2-19,1.92-28.32.38-3.31-.55-7.26-1.39-9.65-3.95l-.59.66A87.53,87.53,0,0,1,26.51,125s.15-.11.1-.11Z" transform="translate(-0.31)"/><path d="M23.31,124.86a33.92,33.92,0,0,1,14.6.29c5.14,1.16,10.46,3.49,13.41,8.08,1.57,2.44,1.85,5.12,2.09,7.93,0,.12.71.36.72.36,1.61-5.28-3-10.35-7.12-12.89a34.22,34.22,0,0,0-15.84-4.82,21.19,21.19,0,0,0-8.11.92s.18.14.25.13Z" transform="translate(-0.31)"/><path d="M2.32,135.93a59,59,0,0,0,18,8.3,54.38,54.38,0,0,0,20.64,2c3.73-.41,7.73-1.19,11-3.09.08,0,.25-.47.14-.44a65.48,65.48,0,0,1-9.46,2.38,50.18,50.18,0,0,1-10.61.18,68.52,68.52,0,0,1-20-4.95,69.83,69.83,0,0,1-9.5-4.79c-.08-.05-.27.32-.18.38Z" transform="translate(-0.31)"/><path class="cls-7" d="M38,153.77c-.74.8-1.76,1.83-1.89,3,0,.5,0,1.27.58,1.44.77.24,1.76-.57,2.27-1.05a9.89,9.89,0,0,0,1.28-1.53c.06-.09.29-.58.41-.58s.13.13.17.16a1.7,1.7,0,0,1,.43.59c.9,1.65.42,4,.24,5.76a19.52,19.52,0,0,0-.07,5.91,3.64,3.64,0,0,0,1.15,2.21,1.8,1.8,0,0,0,1,.35c.93,0,.46-.58.86-1.17,0,0,0-.18,0-.16-.26.2-.17.64-.52.66s-.64-.31-.84-.43a3.08,3.08,0,0,1-1-1,5.52,5.52,0,0,1-.42-3.14c.14-2.62.71-5.27.33-7.9a4.83,4.83,0,0,0-1.45-3.13s-.06,0-.09,0c-.73,1.22-1.9,3-3.38,3.37a1.76,1.76,0,0,1-.51,0c-.08,0-.13-.08-.19-.12,0,.21.06.21.08,0l0-.13a12.78,12.78,0,0,1,1.65-2.55c.11-.12-.06-.66-.12-.6Z" transform="translate(-0.31)"/><path class="cls-7" d="M45.6,164.9c.6-3.21-.35-6.42,0-9.63l-.2-.12c1.2.74,1.49,2.54,2.14,3.68a3.64,3.64,0,0,0,2.54,1.91,2.06,2.06,0,0,0,2.43-1.24,5.24,5.24,0,0,0-.24-3.22,6.63,6.63,0,0,0-2-3.12c-.09-.07-.26-.13-.31-.18a7.07,7.07,0,0,1,2,5.52,2,2,0,0,1-1.61,1.76,2.74,2.74,0,0,1-.81,0,4.18,4.18,0,0,1-.51-.07l-.25-.07c-.15,0,.41.38.23.12s-.42-.49-.6-.76-.36-.62-.53-.94c-.39-.75-.82-1.51-1.28-2.22a3.49,3.49,0,0,0-1.11-1.15s-.21-.11-.21-.12c-.35,3.21.6,6.41,0,9.61,0,.06.37.18.36.22Z" transform="translate(-0.31)"/><path class="cls-8" d="M43.26,126.26c2.49,2.34,6.33,4.54,2,7.22-3,1.83-9.76,1.89-13.17,2.33-4.63.59-9.66,1.2-14.2,1.39-4.94.2-9.28-1.57-14-1.17,3.18-.16,5.54,1.7,8.41,2.13,3.38.5,6.92.1,10.16.57,2.92.44,7.67.46,10.1,2.14s3.77,4.27-.36,5.07c4.93,0,16.41.63,20-3,4.3-4.33-2.3-12.38-6.34-14.13" transform="translate(-0.31)"/><path class="cls-5" d="M97.19,33.51c-4.7,13.5-13,14.69-26.12,12.37-4.68-.83-21.24-4.83-14.68-12.62,3.83-4.54,8.54,1.53,11.9,3.48C68.12,29.2,63.53.25,77.86,0c12.86-.22,5.89,31,5.7,38.3,1.21-4.93,3.32-13,8.78-15.38C99.81,19.64,98.67,29.23,97.19,33.51Z" transform="translate(-0.31)"/><path d="M63,44.62a14.42,14.42,0,0,1-4.39-6c-.65-1.71-1.11-4-.28-5.77a3.72,3.72,0,0,1,4.3-1.7c2.73.58,5,2.61,7,4.5.11.11.51-.85.51-1,.12-4.63-.91-9.29-1.24-13.9-.35-4.9-.8-11.73,3-15.53,3.22-3.24,8.75-3.55,11.5.38S86.14,15.59,86,20.3c-.13,5.26-1,10.47-1.14,15.72,0,.27.58-.75.62-1a17.45,17.45,0,0,1,3.34-7.6c1.12-1.52,3-3.82,5.07-3.82,2.43,0,3,3.38,3.25,5.18.44,3.15-1.32,6.27-2.87,8.88-1.73,2.92-3.78,5.62-5.65,8.44-.1.17-.49,1.37-.14.87,2.12-3,4.27-6.08,6.12-9.3,1.52-2.66,3.28-5.86,3.23-9,0-2-.74-6.37-3.55-6.23-2.36.12-4.34,2.77-5.56,4.52A21.66,21.66,0,0,0,84.89,36l.62-1c.15-5,.92-9.9,1.08-14.88s.29-10.89-2.43-15.22S75.91.78,72.44,4C68.76,7.49,68.15,13.2,68.19,18a94.52,94.52,0,0,0,.74,9.65,56,56,0,0,1,.68,8l.52-1c-2.91-2.84-9.34-7.53-12-1.83a8.08,8.08,0,0,0-.25,5.75,11.64,11.64,0,0,0,5,6.36s.17-.24.12-.27Z" transform="translate(-0.31)"/><path class="cls-9" d="M79.57,1c2.1,4.66,2.63,12.38,2.87,18.77.22,6-1.9,15,.43,20.72,3-2.1,3.89-6.74,5-9.95-.57.81-1.84,1.77-2.51,2.76,0-6.51.79-13.15.2-19.58C85.32,11.31,83.06-3,79.57,1" transform="translate(-0.31)"/><path class="cls-9" d="M92.84,24.35c6.81.91,0,12.1-2.8,15-4.73,5-10.15,7.49-17,7,8.49,3.66,16.52-.61,21.31-7.27,2.29-3.19,4-6.3,4.4-10.31s-4.11-8.81-5.92-4.5" transform="translate(-0.31)"/><path class="cls-9" d="M56.76,35.16c3.29,3.29,6.6,6.25,10.13,9.22C62.33,48,49.77,39,56.26,34.15" transform="translate(-0.31)"/><path class="cls-10" d="M76.21,6.36a2.66,2.66,0,0,0-1.73.25,6.94,6.94,0,0,0-1.26.88,6.33,6.33,0,0,0-1.66,2.39,11.79,11.79,0,0,0-.89,6,6.11,6.11,0,0,0,1.42,3.36c.42.44,1.19,1,1.84.92s.55-.88.55-1.32c0-1-.14-2-.12-3a11.72,11.72,0,0,1,.44-3.06,11.19,11.19,0,0,1,1.38-3,10.37,10.37,0,0,1,.88-1.21c.17-.2.38-.37.55-.56a.71.71,0,0,0,.16-.7c0-.52-1.13-1-1.56-1Z" transform="translate(-0.31)"/><path class="cls-10" d="M72.07,25.41A5.41,5.41,0,0,0,72,26a1,1,0,0,0,0,.17v.1s0,0,0,.06,0,0,0,0,.2-.22.19-.2l.3-.43c.11-.16.22-.32.32-.49l.1-.16a1.28,1.28,0,0,0,.11-.2c-.15.31-.2.4-.13.27l0-.06.08-.17a1.66,1.66,0,0,0,.06-.16,1,1,0,0,0,0-.17v-.23a1,1,0,0,0,0-.17l0-.25L73,24l-.12.15-.36.51c-.12.17-.23.35-.34.53a.66.66,0,0,0-.11.24Z" transform="translate(-0.31)"/><path class="cls-10" d="M92.64,27.05a5.23,5.23,0,0,0-.65.68c-.21.25-.42.49-.65.72l0-.05-.13.13a.78.78,0,0,0-.15.22,1.12,1.12,0,0,0-.06.68,3.72,3.72,0,0,0,.18.94l.07.18a.65.65,0,0,0,.13.23s.07,0,.1,0c0,.13,0,.17.06.13l.06,0a.69.69,0,0,0,.16-.18c.08-.13.16-.27.23-.41a9.76,9.76,0,0,1,1-1.57c.06-.07,0-.34,0-.4a3.35,3.35,0,0,0-.08-.54,3.23,3.23,0,0,0-.14-.47s-.12-.27-.17-.23Z" transform="translate(-0.31)"/><path class="cls-10" d="M60.75,34A7,7,0,0,0,62,35a2.85,2.85,0,0,0,.74.37l.29.07a.55.55,0,0,0,.18,0l.15,0s.08,0,.11-.06,0,0,0-.06,0-.16-.07-.22a1.89,1.89,0,0,0-.32-.37,3,3,0,0,0-.85-.6l.22.11-.07,0-.27-.12a2.26,2.26,0,0,0-.37-.11l.12,0-.49-.11.14,0a2.55,2.55,0,0,1-.33-.11l.18.08-.11-.06-.06,0c-.11-.06.22.14.14.08h0l.18.13,0,0c-.06,0,0,0,.08.07l.08.06,0,0,.18.17,0,0a4.77,4.77,0,0,0-.7-.56,1.56,1.56,0,0,0-.43-.21c-.07,0-.17,0-.15.09l.05.12a1.64,1.64,0,0,0,.26.33Z" transform="translate(-0.31)"/></g></g></g></svg>