<svg xmlns="http://www.w3.org/2000/svg" viewBox="0 0 118.48 174.8"><defs><style>.cls-1{isolation:isolate;}.cls-2{fill:#c28559;}.cls-3{fill:#cd9b77;}.cls-3,.cls-7{mix-blend-mode:multiply;}.cls-4{fill:#e6c990;}.cls-5,.cls-7{fill:#ffe3c9;}.cls-6{fill:#804a36;}.cls-8{fill:#fffcb8;}.cls-9{fill:#fff;}.cls-10{fill:#edbd94;}.cls-11{fill:#231f20;}</style></defs><title>cow</title><g class="cls-1"><g id="Layer_2" data-name="Layer 2"><g id="Layer_1-2" data-name="Layer 1"><path class="cls-2" d="M38.16,141.57a114.82,114.82,0,0,0-12.88.48c-9.22.94-8.63,5.36-7.35,13.24,1.64,11.48,8.64,15.74,17.37,17.4C33.14,162.15,33.37,150.69,38.16,141.57Z" transform="translate(-0.23)"/><path class="cls-2" d="M91.91,142.16c-5.53-.28-11,0-16.54.23,4.34,9.27,6.91,20.17,5.42,30.25A29.07,29.07,0,0,0,89.57,169C98.43,163.24,93,150.74,91.91,142.16Z" transform="translate(-0.23)"/><path class="cls-3" d="M17.51,146.07c-.63,2.35-1.79,28.54,4.22,28.73,1.48-7.11.06-15.9,8.24-19.18,8-3.19,18.55-1.51,27.06-1.91,7.3-.35,16.22-2.08,23.23.07,4.25,1.31,5.4,4.3,6.44,8.19.64,2.38.24,8.11,3.87,6.87,3.41-1.16,3.05-10,2.91-13-.26-5.84-1.19-10-4.2-14.52" transform="translate(-0.23)"/><path class="cls-2" d="M108,43.05C96.82,31.39,81.58,32.37,66.85,31.59c-14.37-.77-31.28-2.21-44.12,5.63-6.39,3.9-13.87,7.14-19.66,11.72,1.68,3.78,6.42,4.74,9,7.86,3.18,3.88,1.11,6-.64,10.55-2.81,7.36-6,15.29-6.7,23.15s-1.08,18.37,1.51,25.44c3.44,9.39,19.06,7.82,28.2,8.58,13.93,1.16,29.22,4,43.19,2.11,7.23-1,18.18-2.57,23.35-8.54C112.4,104.85,103,78,97.46,64.67c-2.17-5.21,0-7.45,4-11.61S114.41,49.8,108,43.05Z" transform="translate(-0.23)"/><path class="cls-3" d="M97.88,36.9c4.52.49,9.74,6.32,3.85,9.47a53.2,53.2,0,0,1-13.25,4.35c1.06,6.47,4.64,11.93,5.57,18.3,1.48,10.14.45,21-1.53,31.31C89.28,117.27,80.44,115,70.83,115.65c5.88,2.65,13.08,4.45,18.15,8.4,2.71,2.11,4.16,5.13,7.58,3.35,2.58-1.35,5.06-8.36,6.38-11.05,4.12-8.41,2.7-18.7,2.24-27.78C104.59,77,90.46,59.2,103.87,50.65c3.58-2.28,8.12-.76,5.18-5.17-1.56-2.33-5.33-4.95-7.31-6.86" transform="translate(-0.23)"/><path class="cls-4" d="M75.37,142.39c-3,.12-6,.23-9,.23-9.28,0-18.83-.92-28.26-1.05-4.79,9.12-5,20.58-2.86,31.12,6.84,1.3,14.74,1,22,1.36s15.88.52,23.54-1.41C82.28,162.56,79.71,151.66,75.37,142.39Z" transform="translate(-0.23)"/><path class="cls-5" d="M76,31.22c6.82-1.6,11-9.7,8.14-16-1.19-2.61-6-5.56-6-8.47,0-3.9,5.3-5.76,8.55-5.9,8.74-.38,12.1,8,12.68,15.06.75,9.19-3.75,14.9-7.35,22.26" transform="translate(-0.23)"/><path class="cls-5" d="M40.83,32.82c-5.57-5.39-9.83-7.69-10.13-16-.22-6.07,5.48-20.24-6.84-15.6C6.22,7.87,16.52,35.56,28,41.88" transform="translate(-0.23)"/><path class="cls-5" d="M56.67,153.63c10.31.63,21.81-.21,31.48-4,12.5-4.92,17.62-19.11,5-28.09-10.23-7.29-26.24-9.17-38.47-10.24-9.57-.84-19.46-1.38-28.83.93-13.77,3.4-35.48,22.28-15.46,33.6,10.07,5.69,22.06,6.94,33.43,7.09C47.61,153,52.08,153.35,56.67,153.63Z" transform="translate(-0.23)"/><path class="cls-6" d="M114.38,136.75c-4.38.71-9.52,8.4-9,12.71,3.25.27,10.59-4.69,13.32-6.31-2.14-.77-5.67.11-8,1,1.24-2.26,3.49-4.29,5.21-6.2a7.61,7.61,0,0,0-4,2c.63-.88,1.24-1.8,1.94-2.61" transform="translate(-0.23)"/><path class="cls-7" d="M88.42.8c7.45,2.44,9.5,13.12,6.57,19.36-3.1,6.59-9.68,8-15.54,10.39,8,7,17.85,1.24,20.57-8.17C101.26,18.1,97.18,1,91,3" transform="translate(-0.23)"/><path class="cls-7" d="M29.54,1.23c-3,2.94,1.17,14.16,0,19.34-1.57,7-6.58,8.39-12,5.65-2.28,4,5.37,7.85,8.51,8.11A20.48,20.48,0,0,0,33.39,33c4.25-1.41,3.92-1.3,1.74-4.36-3.58-5-4.86-7.95-4.3-14.53C31,12.34,34-.48,29.54,3.81" transform="translate(-0.23)"/><path class="cls-3" d="M5.9,48.07a2.89,2.89,0,0,0-3.39,2.09c7.11,3.36,9.94,7.16,9.48,15.93,3-3,5.51-9.07,7.18-13.19C16,51.73,7.61,46.6,4.61,48.07" transform="translate(-0.23)"/><path class="cls-7" d="M88,117.7c6.81,8.94,4.58,20.37-5,26.75A41.87,41.87,0,0,1,68.65,150c-4.59.91-12.18-.75-16.3,1.67,2.54,4.11,16.16.28,20.17-.31,6.91-1,15.29-2.59,21.07-6.87,9.9-7.31,7.6-25.44-5.6-26.32" transform="translate(-0.23)"/><path class="cls-7" d="M60.92,130.59c-.07.3-.75.06-.38.8,2.54-.48,5.14-1.33,7.67-.26,2.1.89,3.1,3.45,5.69,3a3.42,3.42,0,0,0,2.34-5.39c-2.87-4.54-12.38-1.41-14.89,1.83" transform="translate(-0.23)"/><path class="cls-7" d="M23.52,126.73C21,126,16.55,128,15.79,131c-1.29,5.16,3.36,1.64,6.47,1.72,1.89.05,6.76,3.3,8.6,0,2.2-3.89-5-5.26-6.91-6" transform="translate(-0.23)"/><path class="cls-8" d="M49.47,146.92c-7.87.36-16.28-2-21.45-5.79a13.2,13.2,0,0,1-5.85-8.64c-.35-1.48.75-4.52-.91-5.49-4.07-2.38-5.64,6.09-5.64,8.5,0,4.47,2.5,9,4.57,12.83,4.88,9.06,23.58,10.13,32.6,6.16,6.63-2.92,25.63-18.19,19.07-26.92-5.23-6.94-3.55,8-5.58,11.18C62.75,144.2,56.32,146.61,49.47,146.92Z" transform="translate(-0.23)"/><path class="cls-9" d="M21.66,118.24c.8,0,1.87-.74,2.64-1a22.33,22.33,0,0,1,3.87-.87,42.85,42.85,0,0,1,8.77-.23c2.92.16,5.82.52,8.72.92s5.76,1.17,8.55.81c.22,0,1.83-1,1.57-1.19-1-.75-2.52-.73-3.72-.91-1.52-.21-3-.44-4.57-.62a88.08,88.08,0,0,0-9.87-.77,38.91,38.91,0,0,0-9.14.85,23.81,23.81,0,0,0-4.06,1.33,8.13,8.13,0,0,0-2.74,1.61s-.06.06,0,.06Z" transform="translate(-0.23)"/><path class="cls-9" d="M59.94,118.14a2.87,2.87,0,0,0,1.84.65,9.77,9.77,0,0,0,1.08.06,4.54,4.54,0,0,0,1.37-.25,2.3,2.3,0,0,0,.68-.47c.06,0,.51-.39.46-.47s-.18-.11-.3-.18a.76.76,0,0,0-.45-.08l-1.13,0c-.83,0-1.66-.1-2.49-.1-.15,0-1.13.8-1.06.88Z" transform="translate(-0.23)"/><path class="cls-10" d="M23.46,51.7a36.08,36.08,0,0,0-3.79,6.14c-1.29,2.4-2.51,4.83-3.6,7.32A64.15,64.15,0,0,0,11.3,80.37c0,.19.26,1.15.36.82a118.54,118.54,0,0,1,5-14.32c2.13-5,4.88-9.7,6.91-14.72,0-.07-.06-.54-.14-.45Z" transform="translate(-0.23)"/><path class="cls-11" d="M15.46,131.75a10.7,10.7,0,0,1,1.65-2.18A11.37,11.37,0,0,1,19,127.86a9.8,9.8,0,0,1,4.46-1.74,6.48,6.48,0,0,1,4.65.95A8.35,8.35,0,0,1,30,129c.61.83,1,1.77,1.59,2.61.08.11.87.26.87.31a4.28,4.28,0,0,0-1-2.29,8.62,8.62,0,0,0-1.66-1.75,10.83,10.83,0,0,0-3.66-1.78,8.86,8.86,0,0,0-7.92,1.31,8.58,8.58,0,0,0-1.83,1.78,10.18,10.18,0,0,0-1.17,2.53.83.83,0,0,0,.22.08Z" transform="translate(-0.23)"/><path class="cls-11" d="M60.25,130.91c2.49-2.67,6.25-4.77,10-4.68A7.67,7.67,0,0,1,75,127.94a10.73,10.73,0,0,1,3,5.34c0-.11.07-.68,0-.91-.48-3.13-2-6.32-5.23-7.38-2.85-.93-6.07.14-8.51,1.66a15.7,15.7,0,0,0-4.06,3.78c-.07.1.07.43,0,.48Z" transform="translate(-0.23)"/><path class="cls-11" d="M22.57,127.59a10.61,10.61,0,0,0,1.18,11.55c2.88,3.52,7.39,5.42,11.7,6.5,9.32,2.34,21.56,1.7,28.94-5.18A14.41,14.41,0,0,0,68.7,126.4c0-.06-.21.12-.2.19.67,4.7-.28,9.61-3.83,13-3.33,3.15-8,4.75-12.38,5.51a40.79,40.79,0,0,1-14.86-.24c-4.26-.87-8.68-2.48-11.91-5.48-3.43-3.2-4.21-7.5-2.77-11.88,0-.13-.16.06-.18.11Z" transform="translate(-0.23)"/><path class="cls-11" d="M15.32,129.68c-.8,6.33-.22,12.69,3.55,18a23.17,23.17,0,0,0,13.06,8.77,33,33,0,0,0,31.74-8.76c4.39-4.53,8-11.13,8.32-17.52,0,.28-.46.59-.52.89a34.64,34.64,0,0,1-2.76,9.41,24.94,24.94,0,0,1-5.8,7.43,32.17,32.17,0,0,1-14.28,7.14c-9.89,2.27-21.72.39-28.43-7.84-4-4.85-5.4-11.52-4.82-17.68,0,0-.06.07-.06.11Z" transform="translate(-0.23)"/><path class="cls-11" d="M2,126.57c3.88-8.84,14.15-12.32,22.9-14,11.32-2.23,23.13-2.08,34.58-1.08,9.6.83,19.57,2,28.41,6.12,4.62,2.14,9.28,5.43,10.89,10.52a15.13,15.13,0,0,1,0,8.36,14.48,14.48,0,0,1-3.65,7c-3.94,3.73-9.63,5.64-14.75,7a55.49,55.49,0,0,1-16.69,2.17,16,16,0,0,1-2.76-.32c-1-.22.22.39.52.47,4.83,1.24,10.19.5,15-.45,5.85-1.14,12-3,17-6.14a13.81,13.81,0,0,0,4.82-4.48,19.16,19.16,0,0,0,2.47-9.5c-.1-5.45-3.57-9.66-8-12.47-8.38-5.31-18.6-7-28.28-8.2a144,144,0,0,0-35.21-.38,57.48,57.48,0,0,0-16,4.09c-4,1.8-8,4.42-10.34,8.25a16.34,16.34,0,0,0-1.41,2.88c0,.06.46.24.49.16Z" transform="translate(-0.23)"/><path class="cls-11" d="M.61,133.84a8.47,8.47,0,0,0,.51,6.37,12.7,12.7,0,0,0,4.5,4.42,32.32,32.32,0,0,0,6.45,3.07,31.48,31.48,0,0,0,7,1.9c.18,0,.76-.32.85-.27a14.77,14.77,0,0,0-2.86-1c-1.18-.34-2.36-.71-3.52-1.13a34.26,34.26,0,0,1-6.68-3.08C3.41,142,0,138.2.85,133.76c0,0-.23,0-.24.08Z" transform="translate(-0.23)"/><path class="cls-6" d="M53.62,24.29c-3.36-1.85-6.09-4.25-10.06-4.17.81,2.76,2,5.94,2.93,8.89-6.33.17-11.78,8.69-13.58,13.85.93-2.66,12.59-10.15,15.48-10.34,1.57,5.53,6.09,10.82,9,15.81q0,.59-.06,0a34.23,34.23,0,0,0,3.31-16C62,32.67,77,38.07,77,38.06,74.14,29.13,64.84,28.7,64.58,18c-3.54.29-7.93,4.17-10.43,6.84" transform="translate(-0.23)"/><path class="cls-11" d="M42.51,31.2A18.18,18.18,0,0,0,35,45.35s0,.4.12.3a70.32,70.32,0,0,1,7-7.78,25,25,0,0,1,4.07-3,18.52,18.52,0,0,1,2.61-1.27l.56-.21c.35-.06.49.09.41.46a5.52,5.52,0,0,1,.15.92c1,5.8,2.9,12,8.16,15.31a.14.14,0,0,0,.1-.1,44.61,44.61,0,0,0,4.32-19.85l-.26,1C66.6,35.37,72.34,40.46,79,39.52c.31,0,.26-1.16.23-1.36a15,15,0,0,0-5.49-8.58A26.09,26.09,0,0,0,69,26.47a26.42,26.42,0,0,0-2.55-1.14,12.72,12.72,0,0,0-3.06-.57c-.13,0-.25.84-.1.91.88.41,1.7.95,2.59,1.35s1.72.75,2.56,1.18a28.47,28.47,0,0,1,4.68,2.89c2.7,2.1,5.09,4.88,5.73,8.32l.23-1.36c-6.53,1-12.4-3.94-16.68-8.26-.15-.15-.26.88-.26,1a41.84,41.84,0,0,1-1.32,10.63,36.11,36.11,0,0,1-1.8,5.15,7,7,0,0,1-.49,1.08c-.33.53-.32.66-.89.42a6.44,6.44,0,0,1-1.63-1.3C52.05,43,50.73,37.24,50,32c0,0,0-.25-.08-.23C43.55,34,39.22,39.34,35.22,44.46l.11.29c.05-5.09,3.23-9.94,7.15-13,.12-.09.05-.58,0-.56Z" transform="translate(-0.23)"/><path class="cls-11" d="M44.69,29.27a14.67,14.67,0,0,1,.13-2.39,12.76,12.76,0,0,1,2.87-5.28l-.31.08c2.57,2.45,6.81,1.8,9.37,4.23.3.28.65-.61.7-.79.93-3.39,4.64-4.36,6.94-6.57l-.36.09c.85,1.92-.15,4.46,1.09,6.18.26.36.78-1,.72-1.21A14.72,14.72,0,0,1,65.37,20a7,7,0,0,0-.56-2.83c-.08-.18-.29,0-.36.09-1.33,1.3-3.1,2.06-4.53,3.24a9.28,9.28,0,0,0-3.14,4.81l.64-.85c-2.59-2.41-6.83-1.71-9.42-4.12-.07-.06-.24.11-.26.13a15.82,15.82,0,0,0-3.4,6.29,9.32,9.32,0,0,0,.13,2.79c0,.15.22-.21.22-.28Z" transform="translate(-0.23)"/><path class="cls-11" d="M37.15,32.43c-4.67-.2-8.85,1.27-12.92,3.48-2.06,1.12-4,2.38-6,3.69-1,.67-2,1.36-3,2a16.09,16.09,0,0,0-2.68,2c-.2.23,1,.84,1.29.72,2-.94,3.74-2.6,5.54-3.84s3.88-2.6,5.92-3.74c3.64-2,7.84-3.88,12.06-4.19.11,0-.18-.19-.25-.19Z" transform="translate(-0.23)"/><path class="cls-11" d="M80,31.73A69.45,69.45,0,0,1,95.22,35.9c4.73,2,9.64,4.61,13.13,8.47a11.05,11.05,0,0,1,2.85,5.38c0-.13.39-.77.41-1,.31-4.33-3.92-7.68-7.15-9.87A47.94,47.94,0,0,0,89,32a24.1,24.1,0,0,0-8.81-.8c-.08,0-.19.5-.19.5Z" transform="translate(-0.23)"/><path class="cls-11" d="M92.63,52.43a89.6,89.6,0,0,1,9.24-2.55,31.76,31.76,0,0,1,4.86-.58c1.8-.07,3.63.26,5.42.09.07,0,.84-.18.76-.3-.31-.48-1.45-.38-2-.41a26.67,26.67,0,0,0-2.68,0,34.21,34.21,0,0,0-5.53.65,72.12,72.12,0,0,0-10.25,3c-.38.13-.14.2.13.11Z" transform="translate(-0.23)"/><path class="cls-11" d="M108.79,47.76A38.62,38.62,0,0,0,102,52.08,22.64,22.64,0,0,0,99,54.93c-.78.91-1.89,2.09-1.7,3.35,0,.24.67.84.93.76.63-.22.86-.64,1.21-1.17s.75-1,1.15-1.54a32.76,32.76,0,0,1,2.84-3,26.2,26.2,0,0,1,6.38-4.67c.09,0-.72-1-1.06-.85Z" transform="translate(-0.23)"/><path class="cls-11" d="M97.8,60.89a79.23,79.23,0,0,1,5.62,21.29,96.6,96.6,0,0,1,.38,26.09,66.18,66.18,0,0,1-1.23,6.72c-.54,2.24-1.42,4.39-1.89,6.63,0,.23.34,1.76.53,1.48,1.1-1.5,1.49-3.82,1.94-5.59A61,61,0,0,0,104.4,111a89.09,89.09,0,0,0,.77-13.76,109.86,109.86,0,0,0-3.51-25.83,62.91,62.91,0,0,0-3.82-10.9c-.12-.27-.09.33,0,.42Z" transform="translate(-0.23)"/><path class="cls-11" d="M10.23,46c-.49,0-1,0-1.47,0a4.34,4.34,0,0,0-1,.11,1.57,1.57,0,0,0-.8.43.69.69,0,0,0-.15.28,1.16,1.16,0,0,0,0,.18c0,.1,0,.12.09.16a.36.36,0,0,0,.29-.1.4.4,0,0,0,.11-.2.32.32,0,0,1,0-.14,1,1,0,0,1,.12-.25.57.57,0,0,1,.18-.15h0a.34.34,0,0,1,.14,0A9.49,9.49,0,0,1,10,46.15a.34.34,0,0,0,.17,0s.08-.06,0-.06Z" transform="translate(-0.23)"/><path class="cls-11" d="M5.3,49.47a51.13,51.13,0,0,1,6.66,2A21.25,21.25,0,0,1,15.19,53,24.34,24.34,0,0,1,17.67,55a7.06,7.06,0,0,0,.92.62c.19.11.5.32.26,0a5,5,0,0,0-1-.87c-.38-.29-.77-.57-1.16-.84A32,32,0,0,0,11.51,51a29,29,0,0,0-7-2.05c.18,0,.53.43.79.49Z" transform="translate(-0.23)"/><path class="cls-11" d="M4,51.82a21.87,21.87,0,0,1,10.32,7.46c.22.28.19-.25.18-.37a2.57,2.57,0,0,0-.32-1.18,16.18,16.18,0,0,0-4.48-4.4,14.93,14.93,0,0,0-5.91-2.52c-.06,0,0,.94.21,1Z" transform="translate(-0.23)"/><path class="cls-11" d="M15.05,58.42a160.32,160.32,0,0,0-7.54,21.3c-2.15,8.11-4,16.53-4.06,25,0,3.74.21,7.56,1.86,11,.17.34,1.24.61,1.29.84-1.72-7-1.31-14.22-.25-21.32a190.23,190.23,0,0,1,5.87-25c1.11-3.77,2.14-7.61,3.43-11.31,0-.1-.6-.41-.6-.41Z" transform="translate(-0.23)"/><path class="cls-11" d="M24.8,34.23c-5.1-3.22-9-7.8-10.25-13.84a15.27,15.27,0,0,1,.79-9,15.78,15.78,0,0,1,2.54-4.05C19,6.07,20.34,5.1,21.56,3.94c.17-.16.34-1.4.11-1.31-2.43,1-4.47,3.71-5.68,5.93a18.93,18.93,0,0,0-2.16,7.24,20,20,0,0,0,4,14.16,14,14,0,0,0,6.82,5c.11,0,.25-.68.11-.76Z" transform="translate(-0.23)"/><path class="cls-11" d="M27,1.37c1.8-.44,4.61-.85,5.22,1.47.55,2.11.1,4.55-.23,6.66-.8,5.21-1.65,11,1.15,15.82a12.58,12.58,0,0,0,3.09,3.6c1,.8,3.16,2.34,4.54,2,.15,0-.46-.82-.55-.87-1.58-.93-3.36-1.4-4.81-2.59a7.17,7.17,0,0,1-2.22-3.19,22.06,22.06,0,0,1-.86-8.71c.13-2.73.48-5.46.63-8.19C33,5.55,33.1,3.49,32.05,2,30.79.09,28.61.43,26.71,1c0,0,.15.36.25.34Z" transform="translate(-0.23)"/><path class="cls-11" d="M78.19,28.63c4.27-.82,6.79-4.48,7.28-8.62A15.16,15.16,0,0,0,81.74,8.37a11.11,11.11,0,0,0-6.26-3.68s.44,1.3.86,1.38a10.11,10.11,0,0,1,8.14,8.14A13.25,13.25,0,0,1,82.7,24.85a8.4,8.4,0,0,1-4.9,3.22s.24.58.39.56Z" transform="translate(-0.23)"/><path class="cls-11" d="M80,4.45a8.38,8.38,0,0,1,6.76-3.38,10.58,10.58,0,0,1,6.57,3.36,22.23,22.23,0,0,1,6.07,17.28,15.5,15.5,0,0,1-1.69,6.12,20.66,20.66,0,0,1-4.85,5.24c-.24.2-.3.86-.53,1,3.18-1.77,5.3-5.31,6.65-8.59a19.16,19.16,0,0,0,1-10.41C99.06,9.2,95.26,1.48,88.84.15c-3.59-.74-6.59,1.32-8.69,4.06-.05.07-.09.2-.13.24Z" transform="translate(-0.23)"/><path class="cls-11" d="M88.63,26.19a10.49,10.49,0,0,0,4.21,3.66A20.18,20.18,0,0,0,95.75,31c.51.15,1,.29,1.52.42a6.07,6.07,0,0,0,1.88.31c.11,0,.5-.07.27-.25a3.57,3.57,0,0,0-1.34-.54l-1.43-.42a19.3,19.3,0,0,1-2.43-.93,9.74,9.74,0,0,1-3.89-3.25,1.43,1.43,0,0,0-1-.41c-.1,0-.85,0-.67.27Z" transform="translate(-0.23)"/><path class="cls-11" d="M94.56,21.78a9.54,9.54,0,0,0,2.87,3.32,14.48,14.48,0,0,0,1.83,1.26,4.51,4.51,0,0,0,1.79.69c.21,0,.17-.63.17-.71a1.27,1.27,0,0,0-.27-.85c-1.07-1-2.36-1.64-3.49-2.51a9.58,9.58,0,0,1-2.69-2.84c-.2-.35-.36.16-.38.31a2.43,2.43,0,0,0,.17,1.33Z" transform="translate(-0.23)"/><path class="cls-11" d="M23,22.1a8.91,8.91,0,0,0-5.07,3.49,14.12,14.12,0,0,0-1.52,2.81,11.48,11.48,0,0,0-.52,1.53,4.81,4.81,0,0,0-.11,1.61,3,3,0,0,0,1.33-.12,12.06,12.06,0,0,0,.8-1.61c.18-.47.37-.94.56-1.42a15.5,15.5,0,0,1,1.44-2.77,8.22,8.22,0,0,1,4.59-3.56c.33-.09-.27-.09-.32-.09A5.84,5.84,0,0,0,23,22.1Z" transform="translate(-0.23)"/><path class="cls-11" d="M27.29,27.47a18.91,18.91,0,0,0-3.74,5.22,1.79,1.79,0,0,0-.2,1.7,1.71,1.71,0,0,0,.72.85c.27.12.45-.1.58-.32.52-.86.92-1.8,1.46-2.66a17.81,17.81,0,0,1,2.36-3c.21-.22-.24-.85-.36-1s-.64-.9-.82-.72Z" transform="translate(-0.23)"/><path class="cls-11" d="M18.32,150.67A28.92,28.92,0,0,0,18.56,161c.34,1.78.77,3.53,1.26,5.26.23.83.48,1.66.74,2.48a4.63,4.63,0,0,0,.9,2.06c.15.13.36-.81.36-.9A24.53,24.53,0,0,0,20.47,165c-.46-1.6-.88-3.22-1.22-4.85a29.78,29.78,0,0,1-.61-9.82c.07-.52-.28.15-.32.33Z" transform="translate(-0.23)"/><path class="cls-11" d="M91.25,143.91c-.07,3.62-.28,7.23-.15,10.87.06,1.86.16,3.71.31,5.57a21.5,21.5,0,0,0,.87,5.54c0,.09.58,1,.68.72a5.75,5.75,0,0,0-.06-2.37c-.08-.86-.17-1.71-.24-2.57-.16-1.87-.27-3.73-.34-5.6-.15-3.83-.36-7.66-.43-11.49,0-.23-.63-1-.64-.67Z" transform="translate(-0.23)"/><path class="cls-11" d="M95.84,164.4c1.89-2.6,3.64-5.29,5.47-7.93,1-1.39,1.93-2.76,2.94-4.11a39,39,0,0,0,3.17-4.33c.11-.2-.2-1.45-.33-1.34a17.89,17.89,0,0,0-3,3.73q-1.59,2.19-3.1,4.44a80.06,80.06,0,0,0-5.31,8.9c-.07.14.12.71.18.64Z" transform="translate(-0.23)"/><path class="cls-11" d="M109.39,139.83a31.85,31.85,0,0,0-2.92,4.08,9.94,9.94,0,0,0-.65,6.34l0,0a20.55,20.55,0,0,0,11.76-8.89,1.59,1.59,0,0,0,.21-.46s.06-.27,0-.21c-1.16,1.18-2.22,2.44-3.49,3.53a23.08,23.08,0,0,1-4.24,3,16.62,16.62,0,0,1-2.15,1l-.67.23a1.75,1.75,0,0,1-.57.16c-.32-.07-.32-1-.35-1.28a5.4,5.4,0,0,1,.43-3.39c.75-1.27,1.69-2.43,2.5-3.66.06-.08.17-.49.12-.43Z" transform="translate(-0.23)"/><path class="cls-11" d="M108.74,143c1.15-3,3.87-4.87,6.78-6,0,0,.55-.29.27-.22a14.8,14.8,0,0,0-4.91,2.45,8.29,8.29,0,0,0-3.07,4.12c0,.11.33,0,.37-.05s.51-.15.56-.3Z" transform="translate(-0.23)"/><path class="cls-11" d="M112.15,142.63a7.79,7.79,0,0,0,2.54-2.1c1-1.1,1.86-2.23,2.82-3.33a2.44,2.44,0,0,0,.23-.33l.1-.21a8.68,8.68,0,0,0-1.23,1.27c-.39.46-.78.94-1.17,1.41a10,10,0,0,1-2.69,2.34c-.14.07-.25.33-.33.46a3.79,3.79,0,0,0-.2.34,1.07,1.07,0,0,1-.07.15Z" transform="translate(-0.23)"/><path class="cls-11" d="M36,156.18a24.19,24.19,0,0,0-1.85,8.3,27.64,27.64,0,0,0,.13,4.17,11.58,11.58,0,0,0,.84,4s.27.51.37.32a2.41,2.41,0,0,0,0-1.33c-.11-.7-.2-1.4-.28-2.1a32.39,32.39,0,0,1-.18-3.81,25.34,25.34,0,0,1,1.58-8.36c.13-.35-.48-1.38-.56-1.19Z" transform="translate(-0.23)"/><path class="cls-11" d="M78.74,150c.47,2.89,1,5.77,1.44,8.66.51,3.06,1,6.16,1.74,9.17.06.23.5.73.5.83A52.07,52.07,0,0,0,81,160.1c-.58-3-1.17-6.06-1.69-9.1-.06-.33-.57-.8-.6-1Z" transform="translate(-0.23)"/><path class="cls-11" d="M23.05,94.35a3.87,3.87,0,1,1-3.87-3.87A3.87,3.87,0,0,1,23.05,94.35Z" transform="translate(-0.23)"/><path class="cls-11" d="M89.17,93.81A3.87,3.87,0,1,1,85.3,90,3.87,3.87,0,0,1,89.17,93.81Z" transform="translate(-0.23)"/></g></g></g></svg>