<svg xmlns="http://www.w3.org/2000/svg" viewBox="0 0 166.5 159"><defs><style>.cls-1{isolation:isolate;}.cls-2{fill:#e8bf91;}.cls-3{fill:#e3b891;}.cls-10,.cls-3,.cls-5{mix-blend-mode:multiply;}.cls-4{fill:#8c5940;}.cls-5{fill:#966351;}.cls-6{fill:#d49676;}.cls-7{fill:#fce3ba;}.cls-8{fill:#231f20;}.cls-10,.cls-9{fill:#473840;}.cls-11{fill:#fff;}.cls-12{fill:#f5e3a8;}</style></defs><title>dog</title><g class="cls-1"><g id="Layer_2" data-name="Layer 2"><g id="Layer_1-2" data-name="Layer 1"><path class="cls-2" d="M113.76,16.46c.42-8.22,12.6-14.18,19.26-15.17C142,0,149.33,1,156.21,7.34c9.51,8.76,19.11,40.6-2.42,32.83-5.78-2.09-6-2.47-11.25.49-4.25,2.41-8.82,3.25-13.07.13" transform="translate(-0.29)"/><path class="cls-3" d="M155.31,6.33c3.06.9,3.06,8.23,2.14,11.15a9.37,9.37,0,0,1-7.19,6.6c-7.95,1.84-13.88-5.49-20.27-9.26-2.77-1.64-7.52-5.14-10.77-4.83-5.61.53-2.67,3.75,0,6.08,5.5,4.81,11.18,9.68,16.46,15,1.71,1.71,3.72,5.69,5.82,6.86,3.33,1.86,3.65-.49,7.22-.13,3.92.38,3.31,4,6.57,5.09,2.59.84,6.27-1.42,8-3.19,4.72-4.83,2.91-11,1.13-16.58-1.25-3.88-2.59-12.56-6.58-14.71" transform="translate(-0.29)"/><path class="cls-4" d="M47.89,21c-6.7-4.14-10.28-9.35-18.75-11.14-7.54-1.6-15.47-2.2-20.9,5C3.3,21.53,1.13,31.44.76,39.27.61,42.45-.41,49,2.9,50.8,7.17,53.18,10.66,46.62,14,45c8.09-4.08,12.54,7.66,20.26,1.41,7.3-5.91,8.33-16.61,13.66-23.31" transform="translate(-0.29)"/><path class="cls-5" d="M.76,37.75C.1,41.78-.55,54.15,6,51.55c2.24-.89,3.46-4.38,5.3-5.82,4.16-3.27,3.94-1.27,7.84-.48,6.85,1.39,9.57-6.32,13.46-11.58,3.63-4.9,7.76-10.34,7.64-16.62-9.59-1.9-12.95,14.32-20.67,16.81-4,1.28-11.49,1.4-13.23-3.18C5.56,28.69,6.9,19,3.8,22" transform="translate(-0.29)"/><path class="cls-6" d="M22.62,13.39a10.82,10.82,0,0,1-1.95-.84,5,5,0,0,0-1.75-.32,10.44,10.44,0,0,0-2.84.31,7.79,7.79,0,0,0-4.51,2.6A2.83,2.83,0,0,0,11,18.09,3.51,3.51,0,0,0,12.72,20a1.13,1.13,0,0,0,1.19-.53,12.92,12.92,0,0,1,1.69-1.93,8.5,8.5,0,0,1,2.26-1.31,11.27,11.27,0,0,1,2.93-.69,9.71,9.71,0,0,0,1.51-.25l.22-.08c.29-.09.21-.15.38-.39a1,1,0,0,1,.6-.34c.18,0-.61-1-.88-1.09Z" transform="translate(-0.29)"/><path class="cls-2" d="M108.88,72.56C98.65,54.64,97.15,28,108.73,9.38c-17.85-6.85-38-6.63-55.27,3C39.4,20.27,26,36.71,22.49,52.9c-1.72,7.86-.6,16.9-.9,25-.34,8.89,3,18.18,7.55,25.73,4.11,6.82,7.35,14.12,13.82,19.13s12.78,7.66,13.65,16.34c1,9.73,1.74,15.66,12.1,18.09,7.92,1.85,16.22,1.18,24.27,1.16,4.94,0,13.56-.49,18-3.67a23.65,23.65,0,0,1-5.08-9.11c-1-7,4-14,10-16a5.77,5.77,0,0,1,2.42.53,11.74,11.74,0,0,1,3.18-3.82c10.85-8.62,20.84-16.57,24.66-30.67.69-2.57,1.42-5.17,2.1-7.79C132.66,90.81,117,87.12,108.88,72.56Z" transform="translate(-0.29)"/><path class="cls-3" d="M74.24,90.45c-.33.28-.22.65-.93.59,3.57,2.32,4.84,3.47,8.15,4.86,3.15,1.32,5.38,4.92,2.46,7.62,3.4.39,10.32-2.29,11.54-5.39-3.14,0-9.48,4-10-1.64,3.34-1,26.53-6,20.23-14.16-3.09-4-8.75,3.16-11.67,4.46-4.91,2.18-10.29.92-15.2,2.14" transform="translate(-0.29)"/><path class="cls-2" d="M115.28,148.72c1,1.78,9.86-2.37,9-7.11-.34-1.93-5.86-3.64-3.34-6s4.67,1.94,5.47,3.41c5.76,10.67-13.05,21-16.22,13.71" transform="translate(-0.29)"/><path class="cls-4" d="M108.88,72.56c8.16,14.56,23.78,18.25,39.36,15.25,2.55-9.77,4.5-19.84,2-29.8a143.83,143.83,0,0,0-8.15-23c-4.08-8.86-16.58-16.92-24.8-21.56a64.68,64.68,0,0,0-8.58-4C97.15,28,98.65,54.64,108.88,72.56Z" transform="translate(-0.29)"/><path class="cls-4" d="M105.88,145.56a23.65,23.65,0,0,0,5.08,9.11,7.51,7.51,0,0,0,.92-.75c7.07-6.75,2.66-16.6,6.42-23.83a5.77,5.77,0,0,0-2.42-.53C109.88,131.56,104.88,138.56,105.88,145.56Z" transform="translate(-0.29)"/><path class="cls-5" d="M148.74,54.48c-1.12-5.66-1.9-11.5-4.46-16.74-2.44-5-8.23-7.93-10.25-12.66v.51A70.4,70.4,0,0,1,146.2,72.71a51,51,0,0,1-4.69,15.91,50.89,50.89,0,0,0,9.26-1C153.67,76.93,150.8,64.91,148.74,54.48Z" transform="translate(-0.29)"/><path class="cls-3" d="M141.51,88.62C137,98.33,130,107.69,122.77,113.11c-7.64,5.73-15,11.39-24.72,12.8-4.73.69-10.2-.55-14.49,1.89,7.42,2.15,18.23-.76,22.22,8.63.16.38.29.76.41,1.13A13.44,13.44,0,0,1,117,129.44c.33-1.13,1.21-2,3.37-3.65,13-10.12,23.47-19.54,29.53-35.34a29.64,29.64,0,0,0,.91-2.86A50.89,50.89,0,0,1,141.51,88.62Z" transform="translate(-0.29)"/><path class="cls-3" d="M106.31,148a38.5,38.5,0,0,1-5.53,10.9c6.34.55,9.39-1,11.28-4.08C109.52,153,107.37,150.86,106.31,148Z" transform="translate(-0.29)"/><path class="cls-5" d="M106.19,137.56a17.06,17.06,0,0,1,.12,10.43c1.06,2.87,3.21,5,5.75,6.82,1.38-2.28,2.15-5.42,3.11-9.24a43.69,43.69,0,0,0,1.63-11c0-2.65-.16-4,.16-5.09A13.44,13.44,0,0,0,106.19,137.56Z" transform="translate(-0.29)"/><path class="cls-3" d="M59,140.61c-3.74,4.71,5,13.33,8.58,15.61-7.51,2.87-11.47-9.92-10.51-15.52.86-.58,1.11-.13,1.43-.09" transform="translate(-0.29)"/><path class="cls-7" d="M130.48,6.93a7.37,7.37,0,0,1,1.27-.68l.32-.14c-.27.11,0,0,.05,0l.42-.14c.14,0,.12,0-.08,0l.26-.07.18,0,.28,0,.76-.11H134l.5,0c.33,0,.67,0,1,0A24.14,24.14,0,0,1,142.32,7a5.26,5.26,0,0,0,2.26.39,4.66,4.66,0,0,0,1-.2,2.76,2.76,0,0,0,.52-.25c.18-.14.51-.55.44-.8s-.84-.69-1.14-.85a10.15,10.15,0,0,0-1.77-.65,21.82,21.82,0,0,0-7.88-.71,17.41,17.41,0,0,0-4.68,1,8.44,8.44,0,0,0-1.9.95,4.16,4.16,0,0,0-1,1.14c-.25.34.65.38.73.37a2.9,2.9,0,0,0,1.58-.47Z" transform="translate(-0.29)"/><path class="cls-7" d="M150.51,9.54a2.91,2.91,0,0,0,.86.66,5.32,5.32,0,0,0,.5.21l.3.1c.1,0,.24.12.31,0a.77.77,0,0,0,0-.37c0-.24-.09-.47-.14-.7a7.25,7.25,0,0,0-.22-.76,2,2,0,0,0-.22-.53c.23.49.3.61.2.38a1.51,1.51,0,0,0-.09-.18l-.11-.2a.72.72,0,0,0-.23-.23,2.7,2.7,0,0,0-.34-.17,3.6,3.6,0,0,0-.54-.22A2.6,2.6,0,0,1,150,7.2l.05,0L150,7.18s0,0-.06,0a.22.22,0,0,0,0,.16,4.78,4.78,0,0,0,.13.74,7.55,7.55,0,0,0,.26.93l.08.24a2,2,0,0,0,.14.3Z" transform="translate(-0.29)"/><path class="cls-7" d="M82.06,9a15.92,15.92,0,0,0-6.52-.14,54.35,54.35,0,0,0-5.77,1.37,66.68,66.68,0,0,0-11.38,4.5,93.44,93.44,0,0,0-10.47,6.19c-1.67,1.13-3.3,2.3-4.91,3.52-.8.6-1.56,1.24-2.31,1.91a6.7,6.7,0,0,0-2.12,2.41c-.09.25,1.14,1.75,1.39,1.71A6.68,6.68,0,0,0,42.59,29c.82-.58,1.63-1.15,2.43-1.75,1.61-1.22,3.24-2.4,4.91-3.54a94.91,94.91,0,0,1,10.64-6.32,72.05,72.05,0,0,1,11.05-4.58,56.75,56.75,0,0,1,5.7-1.47c.94-.18,1.9-.33,2.83-.55a9.32,9.32,0,0,0,2.48-1.09A2.54,2.54,0,0,0,82.06,9Z" transform="translate(-0.29)"/><path class="cls-7" d="M36.13,34.7l-.17.1c-.05,0-.05,0,0,0l-.15.08a5,5,0,0,0-.49.31c-.12.1-.15.12-.09.08s0,0-.15.09a1.84,1.84,0,0,0-.22.17c-.13.11-.26.22-.38.34a7.43,7.43,0,0,0-1.11,1.4,6,6,0,0,0-.62,1.51,2.5,2.5,0,0,0-.11.76c0,.18.06.18.19.27s.08.08.13.13a1.55,1.55,0,0,0,.22.12c.12.06.38-.1.48-.15a1.38,1.38,0,0,0,.52-.37c.1-.16.2-.32.29-.49a3.21,3.21,0,0,0,.31-.5,3.43,3.43,0,0,0,.18-.7,8.92,8.92,0,0,1,.42-1.33,6.36,6.36,0,0,1,.53-1.08c.1-.15.21-.29.31-.43s0-.12.08-.17.12-.1.11-.21l-.07.09.1-.08c.06-.05.09-.07,0-.08s-.27.1-.34.15Z" transform="translate(-0.29)"/><path class="cls-8" d="M46.15,74.93a3.29,3.29,0,1,1-2.89-3.64A3.29,3.29,0,0,1,46.15,74.93Z" transform="translate(-0.29)"/><path class="cls-8" d="M130.88,72.56A3.28,3.28,0,1,1,128,68.92,3.28,3.28,0,0,1,130.88,72.56Z" transform="translate(-0.29)"/><path class="cls-8" d="M57,130.39a52.5,52.5,0,0,1-26.46-20.61A65.1,65.1,0,0,1,20.14,78.46a77.9,77.9,0,0,1,5-33.69A64.72,64.72,0,0,1,44.71,17.35C54.44,9.58,66.21,5.63,78.55,4.78a70.45,70.45,0,0,1,37,7.15,64.86,64.86,0,0,1,24.71,22.42,67.51,67.51,0,0,1,10.56,31.13,64.45,64.45,0,0,1-6.13,33.2c-5.7,11.72-14.94,21-25.84,28-1.45.93-2.92,1.82-4.43,2.67a5.11,5.11,0,0,0-1.67,1.1c-.08.1-.19.45-.27.51a3.08,3.08,0,0,1-1.28.12c-.29,0-.78.95-.62.95,1.34,0,2.52-.36,2.73-1.87l-.69.91a75.18,75.18,0,0,0,29.31-26.32,66.19,66.19,0,0,0,10.27-32.84,67.52,67.52,0,0,0-7.07-32.53,65.44,65.44,0,0,0-22.3-25.33A67.75,67.75,0,0,0,87.67,3.15c-12.86-.43-25.81,2.13-36.81,9a65.85,65.85,0,0,0-23,25.18,77.92,77.92,0,0,0-8.89,33,69.3,69.3,0,0,0,6.44,33,52.62,52.62,0,0,0,23.1,23.82,59.57,59.57,0,0,0,8.2,3.56c.11,0,.3-.32.26-.33Z" transform="translate(-0.29)"/><path class="cls-8" d="M108.85,11.56c-8.16,9.83-10.4,23.7-8.94,36.09S106.66,73.1,117.3,80.3a28.69,28.69,0,0,0,20.39,4.5c.16,0,.63-.5.38-.49a31.47,31.47,0,0,1-18.11-4A35.43,35.43,0,0,1,107.68,67.6c-6.49-11-8.64-24.72-6.62-37.26a39.64,39.64,0,0,1,7.86-18.79c0-.06,0,0-.07,0Z" transform="translate(-0.29)"/><path class="cls-8" d="M115.91,12.71C120.25,6.83,127.64,3,134.76,2a27.48,27.48,0,0,1,20.67,4.86c6.63,5,9.86,13.37,10.52,21.49.28,3.38.15,7.24-1.79,10.16a8.58,8.58,0,0,1-8.8,3.37c-3.81-.78-6.41-4.34-8.91-7-2.86-3.06-6.25-6.09-10.71-5.93,0,0,.14,1.32.28,1.33,4.22.27,7.38,2.45,10.24,5.41,2.4,2.49,4.7,5.69,8,7A8.87,8.87,0,0,0,164,40.13c2.15-2.71,2.42-6.55,2.24-9.87a46.42,46.42,0,0,0-1.94-10.58A29.21,29.21,0,0,0,159,9.09,26.1,26.1,0,0,0,138.54,0a28.19,28.19,0,0,0-12.63,3.17,28.14,28.14,0,0,0-10.06,9.24c0,.06.1.25.06.3Z" transform="translate(-0.29)"/><path class="cls-8" d="M146.75,35.32a8,8,0,0,1-.63.55,1.65,1.65,0,0,1-.36.16,1.06,1.06,0,0,0-.32.28,8.36,8.36,0,0,0-.94,1.21,7,7,0,0,0-1,2.88,3.43,3.43,0,0,0,.15,2c.09.21.25.57.49.63-.06,0,.18,0,.08,0,.08,0,.05,0,.09-.07a1.38,1.38,0,0,0,.05-.46,12.65,12.65,0,0,1,.73-3.22,9.85,9.85,0,0,1,.82-1.66l.28-.44a1.94,1.94,0,0,0,.17-.42,3.32,3.32,0,0,1,.65-.93c.07-.09-.22-.51-.27-.47Z" transform="translate(-0.29)"/><path class="cls-8" d="M41.93,17.29a41.47,41.47,0,0,0-11.72-6.61A24.43,24.43,0,0,0,19.84,8.89c-7.39.55-12.22,6.32-14.93,12.76A72.42,72.42,0,0,0,1.42,33a28.49,28.49,0,0,0-1,10c.36,3,1.84,5.65,4.86,6.63s5.74,0,8.09-2.17c3-2.67,5.25-6,8-9A26.46,26.46,0,0,1,26,34.35,20.91,20.91,0,0,1,31.84,32c.17-.05.25-.83.08-.84-3.24-.31-6.4,2.14-8.63,4.25a101.81,101.81,0,0,0-7,8c-1.84,2.14-4,4.68-6.85,5.44a7.26,7.26,0,0,1-7.79-3.58c-1.55-3-1-6.66-.36-9.78a81.15,81.15,0,0,1,3-10.72c2.39-6.58,6.74-12.84,14.06-14.11,8.57-1.49,16.23,3.5,23.47,7.22.06,0,.17-.48.08-.55Z" transform="translate(-0.29)"/><path class="cls-8" d="M16.63,40.86a9.68,9.68,0,0,0,.64,3.92,4.27,4.27,0,0,0,.93,1.36,4.38,4.38,0,0,0,.62.52,2.81,2.81,0,0,0,.39.19.75.75,0,0,0,.49,0c.1,0,.42-.43.39-.54A2.42,2.42,0,0,0,20,46s-.13-.1-.17-.14l-.31-.25a5.47,5.47,0,0,1-.58-.5,5.92,5.92,0,0,1-1-1.26,7.53,7.53,0,0,1-.88-3.61c0-.08-.22.17-.23.18s-.27.29-.27.43Z" transform="translate(-0.29)"/><path class="cls-8" d="M54.7,133.61c0,1.53-.24,3-.17,4.58a41.44,41.44,0,0,0,.83,6.37,33.43,33.43,0,0,0,2,6.58,22.71,22.71,0,0,0,1.58,3.11,6.3,6.3,0,0,0,2.29,2.53,3,3,0,0,0,1.38-.45,3.39,3.39,0,0,0-.87-1.3c-.34-.44-.65-.91-1-1.38a21.4,21.4,0,0,1-1.6-2.94,38.21,38.21,0,0,1-2.23-6.65c-.51-2-.82-4.08-1.15-6.14a38.25,38.25,0,0,1-.7-4.42s-.35.05-.36.11Z" transform="translate(-0.29)"/><path class="cls-8" d="M115.43,127.69c-.07,2.53-.31,5.07-.28,7.61s0,4.88-.24,7.32a26.08,26.08,0,0,1-1.47,7,22.13,22.13,0,0,1-1.6,3.33c-.47.8-1.55,1.85-1.57,2.79,0,.29,1-.09,1.08-.16,2-1.31,3.33-3.83,4.18-6a25.72,25.72,0,0,0,1.52-7,52.5,52.5,0,0,0,0-7.42c-.14-2.59-.62-5.13-.72-7.72,0-.17-.89,0-.9.26Z" transform="translate(-0.29)"/><path class="cls-8" d="M110.74,133.38c-8.29,1.92-5.06,14.9.21,18.49.47.32.28-.24.07-.44A14.36,14.36,0,0,1,107,142c-.18-3.14.8-7.06,4.06-8.3.12,0-.17-.38-.28-.35Z" transform="translate(-0.29)"/><path class="cls-8" d="M119.34,147.6a15.57,15.57,0,0,0,3.92-2.43,5.75,5.75,0,0,0,1.79-2.46c.66-2.21-1.77-3.63-3.56-4.1a4,4,0,0,0-.77-.11,3,3,0,0,0-.45,0c.59.3,1.24.48,1.81.82a4.39,4.39,0,0,1,1.23,1,2.48,2.48,0,0,1,.41,2.29,5.83,5.83,0,0,1-1.79,2.46,19.86,19.86,0,0,1-3.5,2.39,2.86,2.86,0,0,1,.45.08c.13,0,.34.07.46,0Z" transform="translate(-0.29)"/><path class="cls-8" d="M119.9,139.58c.16-1.31.81-3.34,2.39-3.49,1.37-.13,2.68,1.1,3.5,2a9.16,9.16,0,0,1,2.15,4.68,6.83,6.83,0,0,1-1.43,5.44c-2.1,2.5-5.74,3.43-8.8,4-.11,0,.16.56.31.56,3.2,0,6.73-.59,9-3a7.18,7.18,0,0,0,1.77-5.93,12.39,12.39,0,0,0-2.56-5.93c-1-1.22-2.24-2.52-3.89-2.59-2.19-.09-2.43,2.59-2.5,4.18,0,0,0,.07,0,.05Z" transform="translate(-0.29)"/><path class="cls-9" d="M101.1,77.77c12.93,12.57-17.49,17-24.22,15.59-5.31-1.11-9.89-6.3-7.23-11.76,2.88-5.91,11.49-7.52,17.26-7.37C90.71,74.33,98.28,75,101.1,77.77Z" transform="translate(-0.29)"/><path class="cls-8" d="M68.51,79.39c.87-2.39,4-3.21,6.23-3.78a45.39,45.39,0,0,1,9.43-1.31,42.25,42.25,0,0,1,10.1.63c2.22.44,4.83,1.13,6.44,2.84,2.91,3.1,3.84,8.15-.26,10.64a21,21,0,0,1-6.94,2.21,56.85,56.85,0,0,1-8.44.89,70.93,70.93,0,0,1-9.22-.2,30.59,30.59,0,0,1-6.46-1c-.25-.08-.85.63-1,.58a18.4,18.4,0,0,0,5.86,1.35,63.8,63.8,0,0,0,8.85.28c5.74-.2,11.94-.86,17-3.75,1.75-1,3.58-2.27,4.24-4.26.79-2.36-.41-4.8-1.76-6.69-1.64-2.28-4.5-3.11-7.14-3.62a43.85,43.85,0,0,0-10.79-.56A39.85,39.85,0,0,0,73.24,75.8c-1.72.64-4.64,1.77-5.12,3.82,0-.07.35-.12.39-.23Z" transform="translate(-0.29)"/><path class="cls-8" d="M78.21,104.5c2.87,1.2,6.51.15,9.23-1a22.06,22.06,0,0,0,8.5-6.14c.09-.1.42-1.12.16-1a27.43,27.43,0,0,0-3.93,2.58,29.91,29.91,0,0,1-4.3,2.44,22.11,22.11,0,0,1-4.42,1.49c-1.66.38-3.36.47-5,.77-.17,0-.41.8-.21.87Z" transform="translate(-0.29)"/><path class="cls-8" d="M83.41,92.34a8.46,8.46,0,0,0-1,4.68,10.44,10.44,0,0,0,.42,2.35,6.39,6.39,0,0,0,.39,1.06c.14.28.38.81.7.87s.69-.75.7-1a7.45,7.45,0,0,0-.6-2.24A13.55,13.55,0,0,1,83.46,96a7.37,7.37,0,0,1,.36-3.92c.15-.39-.36.19-.41.28Z" transform="translate(-0.29)"/><path class="cls-10" d="M94.51,74.23c4.6,5,1.88,11.71-5.57,13.19-3.63.71-18.77-1.15-18.16,3.44,6.41,3.79,17.24,1.68,24-.21,3.22-.9,9.07-2.24,9.58-6.14s-6-10.24-9.81-8.76" transform="translate(-0.29)"/><path class="cls-11" d="M73.6,81.89l.17.08,0,0,.08,0,.18-.11a.77.77,0,0,0,.19-.05l.29-.14c.4-.18.8-.35,1.19-.54s1-.44,1.5-.62a6.84,6.84,0,0,0,1.52-.59,2.72,2.72,0,0,0,.89-.83A3.53,3.53,0,0,0,80,77.64c0-.32-.17-.43-.42-.54a.54.54,0,0,0-.33-.07,2.76,2.76,0,0,0-.4.06,9.89,9.89,0,0,0-1.52.57,8.46,8.46,0,0,0-1.43.75,5.75,5.75,0,0,0-1.29,1.06,5.15,5.15,0,0,0-.43.5,5.89,5.89,0,0,0-.24.58c0,.09-.1.18-.14.27a4.18,4.18,0,0,0-.22.71c0,.06,0,.4,0,.36Z" transform="translate(-0.29)"/><path class="cls-12" d="M79.81,135.54c-1.75,1.9-2.8,4.53-4,6.92,4.64-6.24,5.92-4.29,11,.12-.24-1.46,0-3-.3-4.45a9.24,9.24,0,0,0,7.94,2.9c-.53-2.91-3.23-5.11-5-7.51" transform="translate(-0.29)"/><path class="cls-8" d="M78.8,136.49a21.42,21.42,0,0,1-.64,2.94,21.2,21.2,0,0,0-.47,4c0,.1.12,1.07.31.7,1.24-2.38,3.31-4.24,4.7-6.53.2-.34.11-.39.33-.11s.35.56.55.82a16.22,16.22,0,0,0,1.29,1.46,17,17,0,0,1,2.92,3.48c.22.42.33-.59.33-.67v-4l-.27.74a63.48,63.48,0,0,0,8.06,3c.08,0,.15-.21.16-.23a6.57,6.57,0,0,0-.62-5.08,30.5,30.5,0,0,0-3.55-3.91c-.12-.13-.15.73-.08.86a16.35,16.35,0,0,0,2.54,3.25c1,1.13,1.7,2.24,1.34,3.81l.15-.22a65.16,65.16,0,0,1-7.93-3c-.28-.14-.27.64-.27.75v4l.33-.68c-1.23-2.3-3.79-3.56-5-5.84-.06-.1-.14-.09-.19,0-1.3,2.55-3.68,4.4-5,6.95l.32.71a27.34,27.34,0,0,1,.52-4.59,13.94,13.94,0,0,0,.36-2.58c0-.2-.14-.36-.16-.06Z" transform="translate(-0.29)"/></g></g></g></svg>