<svg xmlns="http://www.w3.org/2000/svg" viewBox="0 0 160.5 178.74"><defs><style>.cls-1{isolation:isolate;}.cls-2{fill:#c7fad4;}.cls-3{fill:#c4e6cf;}.cls-10,.cls-13,.cls-14,.cls-3{mix-blend-mode:multiply;}.cls-10,.cls-4{fill:#b5dec4;}.cls-5{fill:#ffd6c2;}.cls-6{fill:#fff7cf;}.cls-7{fill:#fff;}.cls-14,.cls-8{fill:#abccfc;}.cls-9{fill:#fff2c4;}.cls-11{fill:#e8ffe6;}.cls-12{fill:#c8f7d3;}.cls-13{fill:#ffe8ba;}.cls-15{fill:#231f20;}</style></defs><title>dragon</title><g class="cls-1"><g id="Layer_2" data-name="Layer 2"><g id="Layer_1-2" data-name="Layer 1"><path class="cls-2" d="M39.87,45.48C38.81,66.11,18.72,71.33,1.94,70.2,8,78,14.68,84.22,16.34,94.8c1.89,12-1.7,22.87-12.26,29.14,5.81-5.37,16.78,4,20.28,8.85a23,23,0,0,1,3.14,20.59c1.64-5.2,20.48-9.69,25.09-12.29,9.85-5.55,8.16-13.92,8.12-24.48-.1-22.63-3.64-45.1-7.54-67.34-5.31,3.65-13,2.06-14.9-4.86"/><path class="cls-3" d="M46.46,48.89c-3.93,8.46-2.75,20.48-10.06,27.55-5.89,5.7-17.5.28-24-2.35,8.79,3.78,26.84,10,22.5,22.82-1.69,5-3.15,10.77-5.58,15.53-2.71,5.3-6.54,6.28-11.82,8.11,5.78,3.14,10.77.13,14.75,7.41,3.43,6.28,2.69,12.6.57,19.23,11.85-12.36,10.26-28.76,12.28-44.67,1.29-10.16,1.37-20.18,2.41-30.31.66-6.36,2.91-18.08-.11-23.81"/><path class="cls-2" d="M109.44,38c4.62,7,10.09,16.45,18.61,21.94,6.78,4.37,18.92,9.28,26.65,5.83-7.8,4.86-8.59,20.76-10.07,28.95-1.34,7.48-3.06,23.8,7.45,26.22-10.67,3.42-18.12,14.91-21.27,24.69,0,.39,0,.38.06,0-7.81-7.72-19.66-15-31-16.2-2.69-6.84-1.71-18.72-1.7-26.08,0-9.93.36-18.82,2.68-28.37,1.8-7.45,3.57-14.83,3.21-22.54C104,50.27,105,36,107.83,39.59"/><path class="cls-3" d="M112,44c-2.36,1.89,9,28.65,13,32.5,5.43,5.3,11.92,1.14,18.38.46-4.82,2.44-10,4.51-14.86,6.92-5.83,2.89-5.91,5.7-3.52,11.55,3.23,7.88,13.32,17.78,20.83,21.72-8.34,1-14.57-7.48-17.69,5-2.23,8.9,1.27,14.06,2.73,22.17-4.61-4-5.66-10.21-8.42-15.37-3.78-7.09-5.3-15-7.41-22.69-2.7-9.76-3-19.62-4.1-29.57-.59-5.48-2.38-10.73-2.81-16.19-.31-4,1.28-8.65.5-12.09"/><path class="cls-4" d="M124.21,155.82c4.28-3.42,8.21-4.19,13.38-2.9,4.51,1.14,7.43,2.46,9.6-2.44,1.24-2.8,1.27-6.72,3.7-8.76,2.12,4.27-.81,12.09-4.49,14.83-5.18,3.84-11.11,2.52-14,9.07-2.37,5.35-4.35,9.59-10.64,10.2-5.16.5-9-3-11.47-7.15-1-1.76-4.35-8.64.12-8.63,2.45,0,3.72,4.42,6.23,4.48C119.8,164.58,121.69,157.83,124.21,155.82Z"/><path class="cls-4" d="M70.93,141c-7.42.77-13.51,3-15.72,11.58-1.21,4.64-3.44,9.48-4.09,14.2-1.08,7.76,9,10.22,17.62,10.82C66.24,165.49,67.36,153.1,70.93,141Z"/><path class="cls-5" d="M99.23,157.78c-.35-5.17-1-10.35-1.54-15.34a77.73,77.73,0,0,0-20.21-1.83c-2.25.09-4.45.18-6.55.4a86.13,86.13,0,0,0-3.24,16.7C78.07,157.59,88.75,157.27,99.23,157.78Z"/><path class="cls-6" d="M99.5,166c0-2.72-.09-5.47-.27-8.23-10.48-.51-21.16-.19-31.54-.07a70.31,70.31,0,0,0-.13,11C78.05,169,88.88,167.37,99.5,166Z"/><path class="cls-5" d="M67.56,168.76a65,65,0,0,0,1.18,8.85,65.29,65.29,0,0,0,9.8-.05c6.89-.63,13.58-1.23,20.34-1.95a72.23,72.23,0,0,0,.62-9.6C88.88,167.37,78.05,169,67.56,168.76Z"/><path class="cls-4" d="M111.81,154.42c-1.3-7-2.7-8.86-9.86-10.91-1.41-.4-2.83-.75-4.26-1.07,1.27,10.83,2.65,22.53,1.19,33.17l1.39-.15c5.73-.63,12.25.74,13-6.33C113.8,164.59,112.62,158.81,111.81,154.42Z"/><path class="cls-7" d="M41.48,131.1c-2.49,3-2.73,14.61,0,17.72,3.78-3.07,6.63-8.53,11.12-10.36,2.88-1.18,7.42-.41,10.63-.41,6.43,0,12.69-.8,19.06-1.09,5.46-.25,11,.26,16.43,0,3.49-.15,7.82-1.32,11.25-.53,5.23,1.19,8.48,6.87,14.37,7.42,1.52-4-.38-14.66-2.06-18.66"/><path class="cls-4" d="M116.28,60c-4.58-20.9-19.89-30.79-40.89-26.48-7.44,1.53-17,2-22.27,8.24-4.23,5.05-4.83,13.76-6.27,19.84-3.42,14.4-4.13,28.32-6.52,42.7-3,0-9.84-2.71-11.73.07-1.73,2.55,2.09,9.37,2.73,11.77,2.07,7.86,1.93,15.15,9.75,19.69,15.77,9.17,37.56,7.68,55,4.94,10.1-1.59,18.38-3.88,26.75-10.27,3.66-2.8,6-5.55,6.86-10.18.37-2-.32-4.09.13-5.77s2.37-3.05,2.7-4.79c.4-2.14,0-5-1.49-6.59-2.13-2.23-3.7-.31-6.06-1.46-3.37-1.65-1.79-.78-2.65-4.82-.48-2.29-.7-4.63-1.19-6.93C119,80,118.45,69.89,116.28,60Z"/><path class="cls-8" d="M147.81,142.72c-.28-2,1.76-7.46,4.16-8.05.37,2-.42,4-.57,5.91a11.08,11.08,0,0,1,2.74-2.82c3.44,3.29-2.3,9.58-6,4.26"/><path class="cls-4" d="M46.3,138.05c1.39,12.88,29.19,12.68,38,11.8,7.53-.74,16.16-.5,23.38-2.82,7.89-2.53,15-12.92,9.79-20.75"/><path class="cls-9" d="M119.19,35.85c-5.43-.29-15.06,11.19-17.91.22-1-3.75,2-6.89,4.16-9.54,4.43-5.33,10-9.71,15.23-14.21,6.67-5.75,19.54-15.21,26.33-5,7.61,11.48-13.15,7.16-17.92,10.7-9.17,6.81,19.93,14.13,6.46,20.35C130.29,40.83,124.13,36.12,119.19,35.85Z"/><path class="cls-9" d="M55.37,43.37c8.77,2,2.73-14.28,1.34-16.89-3.46-6.46-8.23-12-12.42-18-3.39-4.83-6.94-7-12.44-4.83-4.65,1.8-10.51,7.31-9.09,13,2.51,10,26.42-4.69,18.87,9.25-1.45,2.67-7.56,8.79-3.38,11.66s8.63-5.24,13.29-1C53.12,38,52.71,42.75,55.37,43.37Z"/><path class="cls-10" d="M32.88,116.8c-2.22-1.14-4.21-6.71-1.94-8.78,2.27,1.81,3.77,5.23,7.19,4.33.72-1.57,1.48-3.11,2.16-4.72,3.55,5-5.91,14-8.38,9.17"/><path class="cls-10" d="M93,89.15c-3,0-22.32-.62-21.39,3.39.28,1.21,14.65.89,17,1.48,4.47,1.12,9.54,3.82,2.46,5.32-5.55,1.17-11.74-1-16.45,2.81,2.48.19,20.67-1.06,18,4.11-1.53,3-15.29,1.84-18.53,3.25,2.86,2.87,12.07,1.22,16,.5,5.07-.93,7.89-3.74,2.34-6.79.91-.68,3.26-1.87,3.82-3,1.15-2.39-.47-2.46-.24-3.88.38-2.38,2.62-6.81-3-6.67"/><path class="cls-11" d="M35.24,65.53A22.74,22.74,0,0,0,28.4,67c-2,.64-4,1.33-6,2s-4,1.36-6,1.94c-1.08.31-2.17.6-3.28.86-.73.16-2,.19-2.41.91s2.36,1.15,2.63,1.18c2.29.21,4.62-.57,6.78-1.26s4-1.37,6-2.13,3.86-1.53,5.8-2.26c1-.36,1.86-.77,2.81-1.14.64-.25,1.56-.41,2-1,.21-.29-1.26-.55-1.4-.55Z"/><path class="cls-11" d="M119,59.12a21.85,21.85,0,0,1,4.18,2.68c1.47,1.11,2.85,2.31,4.3,3.44a33.66,33.66,0,0,0,4.8,3.24,23.33,23.33,0,0,0,3.1,1.4c.52.18,1,.35,1.58.49a7.93,7.93,0,0,0,1.18.23c.81.1-.36-.07.32,0,.15,0,1,.21,1.05-.07s-.74-.52-.89-.57c.8.29-.2-.11-.29-.16l-.6-.23c-.43-.16-.85-.34-1.26-.52A20.42,20.42,0,0,1,134,67.8c-1.64-1-3.17-2.16-4.71-3.3s-3.05-2.23-4.66-3.22A22.27,22.27,0,0,0,119.39,59c-.19-.06-1-.11-.43.13Z"/><path class="cls-12" d="M53.89,50.67a34.83,34.83,0,0,0-2,3.12,36.06,36.06,0,0,0-1.54,3.56A55.07,55.07,0,0,0,48,65.69c-.6,2.83-1.09,5.68-1.49,8.54-.37,2.63-1,5.52-.54,8.17.05.31,1.86,1.12,2,.89,1-2.26,1-5.17,1.35-7.61.39-2.94.82-5.87,1.35-8.79s1.07-5.65,1.72-8.45A38.36,38.36,0,0,1,54.57,51c0-.07-.63-.4-.68-.31Z"/><path class="cls-12" d="M76.55,88.36c.85.09,1.74,0,2.6,0l2.83,0a34.62,34.62,0,0,0,5.76-.09c.11,0,.07-1.15-.08-1.17a25.8,25.8,0,0,0-5.76,0c-.91.07-1.81.17-2.71.31a12.72,12.72,0,0,0-2.66.56s0,.34,0,.35Z"/><path class="cls-12" d="M74.2,98.51c3.6-.42,7.16-1.29,10.79-1.42a4.26,4.26,0,0,0-.49-.17,3.8,3.8,0,0,0-.89-.18C80,96.66,76.54,97.6,73,98.23a2.38,2.38,0,0,1,.5.15,1.94,1.94,0,0,0,.66.13Z"/><path class="cls-12" d="M77.35,106.32a49.69,49.69,0,0,0,5-.13c1.67-.1,3.35-.2,5-.36.36,0,.73-.31.14-.37-3.33-.34-6.72.35-10,.48-.11,0-.61,0-.63.19s.38.18.48.19Z"/><path class="cls-12" d="M70.34,137.63c10.79,1.54,22,1.23,32.49-1.92a2.29,2.29,0,0,0,.78-.94c-5.34.72-10.62,1.69-16,2.13a81.33,81.33,0,0,1-16.51-.18c-.28,0-.89.89-.76.91Z"/><path class="cls-10" d="M64.9,47.43c3.07,2.5,7.33,2,11,.86,1.14-.36,3.49-2.41,4.59-2.22,2,.36,1.69,2.64,3.15,3.44,4.68,2.58,4.66-1.31,8.85-2.09s8.37,2.26,10.56,5.36c4,5.6,4.59,13.8,7.28,20,3,6.84,5.59,13.8,4.38,21.71-.6,3.87-2.76,9.23-6.54,11.18,7.78-1,14.08,4.16,13.44,12.1-.58,7-7.46,11.76-13.22,14.93-14.43,8-31.64,6.83-47.42,5.45-2.68-.24-6.27-1-8.68.11,4,5.24,25.69,1.79,26.06,9.51-.62.2-1.11.39-1.7.55,7.12,2.53,18.63-2.71,23.49,4.38,4.58,6.68,3.65,17.29,4.08,25.15,7.19.37,16.63,2.26,23.21-.91,5.67-2.73,2.53-5.46,4.38-10.66,1.54-4.35,4.73-5.09,9.09-5.72,2.38-.34,9.14-.59,7-4.95-1.58-3.27-8.44.15-10.82,1.82-4.67,3.29-9.66,12-16,11.79-8.24-.34-8.51-12.36-10.2-18-1.61-5.32-1.09-4.49,2.41-8.72,2-2.47,2.94-4.89,5.22-7.39s5.84-3.88,8-6.66c3.08-3.94,2.1-6.59,2.65-10.69.43-3.24,5-6,2.43-9.11-2.14-2.63-6.94-.56-8.5-4.47-.6-1.51.8-3.55.75-5-.06-2.16-.81-3.54-1.34-5.71-1.12-4.53-1.7-9-2.42-13.6-1.17-7.5-3.3-15.6-5.32-23.27-1.92-7.28-5.26-14.4-11.31-19.28-8.07-6.5-14.3.67-22.67,2.3-6.8,1.32-11.47,2.25-16,8.25"/><path class="cls-13" d="M108.07,41.13c-.74-2.78,4-5.64,6.79-6.32,3.88-.94,6.84.58,10.31,2.32s5.66,3,9,0c2.83-2.56,4-6.64-.5-6.32-4.21.29-4.49,3.1-9.46,1-3.08-1.31-5.61-3.63-9.22-3.18-4.16.52-16.61,11.43-7.87,12.5A3.71,3.71,0,0,0,111,39.67"/><path class="cls-13" d="M145.91,6.2c-2.77,9.55-14.2,1.64-16.54,8.73,6.25,9.41,26.78-.28,15.57-6.79"/><path class="cls-13" d="M22.69,15.9c-1,4.41,4.8,8.68,9.25,8.27C33.73,24,41,21.42,42,19.66c3-5.4-5.09-1.5-7.66-1.33-5.15.33-6.92-2.77-11.08-3.82-.4,1,.2,1.35.4,1.88"/><path class="cls-13" d="M37.73,37.24c-2.48,7.09,10.68-1.75,13.11-1,1.88.6,8.79,11.17,7.39,1.84C57.1,30.6,51.14,33.45,47,35c-2.29.83-14.18-3.33-10.22,2.78"/><path class="cls-8" d="M86.43,29.43c.11-4.38-3.9-21.55-10.6-16.09-4.68,3.82,1.81,17.66.86,23-1.81-1.62-7.08-4.12-9.55-2.23-4.1,3.13,2.61,4.25,4.77,5.6-2.39,3.06-6.42,5.48-7.36,9.44,3.8-.74,8.43-7.23,12.8-5.81,3.66,1.2,3,8.84,7.9,10.09,1.43-2.3.78-5.35,2.12-7.42,2.73-4.2,1.5-1.13,4.8-.38,2.51.56,5,2.93,6.06-1.21.67-2.64-2.19-5.11-4.24-6,2.14-2.63,2.57-9.24.35-12.12-3,2.16-4,6.68-7.24,9a9.88,9.88,0,0,1-.67-8"/><path class="cls-14" d="M95,28.51c-.83,1.25-2.29,4.9-3.92,6.8C92.71,38,96.5,40,95.87,43.48c-3.94.08-7.55-3.46-11.12-4.73-1,2.53-.69,6.85-4.28,6.82,1.16,2.35,2,4.8,3,7.16,2-2,2.29-4.9,2.87-7.65,3.11,0,15,5.24,12.68-2.63-.81-2.74-4-3.29-4.5-5.66C94,34.7,95,30.43,95,28"/><path class="cls-14" d="M80.91,13.47a62.45,62.45,0,0,1,2.42,13.61c.26,3.19.69,9.71,3.88,4.34C91,25.1,84.45,16.21,81.39,12"/><path class="cls-14" d="M74.6,38.21c-1.69,6.78-9.84,4.62-12,9.73,4.55,4.18,9.68-7.31,15.28-4.46a3.6,3.6,0,0,0-3.32-4.29"/><path class="cls-15" d="M145.34,153.18a2.8,2.8,0,0,0,.66,2.14,5.75,5.75,0,0,0,1.88,1c.23.1.45.21.68.29a4.94,4.94,0,0,0,.84.3c.14,0,.69-.43.58-.58a2.66,2.66,0,0,0-1.12-.73c-.35-.15-.71-.29-1.06-.45a2.91,2.91,0,0,1-1.5-1.14,3.09,3.09,0,0,1-.3-1.34c0-.15-.29.06-.33.09s-.33.26-.33.43Z"/><path class="cls-15" d="M121.25,163c-.17-3.6,2.19-7,5-9,2.37-1.75,5.47-3.07,8.43-2.14,2.5.78,4.39,3,7,3.53s4.81-1.42,6-3.52c1.42-2.6,1.75-6,1.81-9,0-.42-.66.5-.7.64-.79,2.85-.17,6.49-2.1,8.94-2.33,2.94-5.47,1.28-7.95-.29s-4.76-2.38-7.59-1.56a15,15,0,0,0-7,4.78,10.67,10.67,0,0,0-3,7.75s.12-.08.12-.13Z"/><path class="cls-15" d="M131.43,171c.25-3.07.31-7.44,2.63-9.79,2.46-2.5,6.24-2.24,9.44-2.61,2.14-.25,4.68-.65,6.05-2.5a7.84,7.84,0,0,0,1.37-4.89c0-1.36-.08-2.71,0-4.07a41.11,41.11,0,0,1,.61-5.18c0-.19-.44.55-.48.68a25,25,0,0,0-.79,8.36,17.1,17.1,0,0,1-.08,3.2,2.65,2.65,0,0,1-1.62,2.07c-3,1.61-6.65,1-9.88,1.82a8.28,8.28,0,0,0-5.6,4.25c-1.46,2.75-1.59,6-1.81,9,0,0,.2-.23.21-.35Z"/><path class="cls-15" d="M148.39,142.68l1.14.37c.38.11.77.19,1.15.29l1.14.35a3.68,3.68,0,0,0,.57.15,1.47,1.47,0,0,0,.59,0c.11,0,.16-.66.1-.74a2.29,2.29,0,0,0-1.09-.69,7.47,7.47,0,0,0-1.15-.3,11.27,11.27,0,0,0-1.16-.21c-.39,0-.79,0-1.18,0a1.47,1.47,0,0,0-.11.81Z"/><path class="cls-15" d="M147.78,141.92a9.34,9.34,0,0,1,2.16-5.43,16.7,16.7,0,0,1,4.48-4.23l-.22-1c0,2.66-1.3,5.1-2.14,7.58a1.3,1.3,0,0,0,.06.55,3.33,3.33,0,0,1,.15.53,12.12,12.12,0,0,1,3.8-3.28l-.24-1.09a7,7,0,0,1-1,4,19.52,19.52,0,0,0-1.91,3.5c0,.18.29,1,.22,1.08a8.66,8.66,0,0,0,1.12-1.88c.36-.6.71-1.21,1-1.84a7.08,7.08,0,0,0,.8-3.8c0-.11-.23-1.09-.24-1.09a12.42,12.42,0,0,0-3.77,3.37l.22,1.06c.8-2.47,2.07-5,2.15-7.62a9.07,9.07,0,0,0-.22-1.05,14.31,14.31,0,0,0-4.61,4.55,10.15,10.15,0,0,0-1.89,5.86c0,.1.07.25.07.32Z"/><path class="cls-15" d="M139.73,153a4.71,4.71,0,0,0,1,3.82,1.05,1.05,0,0,0,.36.23s.26.1.23.06a8.42,8.42,0,0,1-.69-1.57,4.52,4.52,0,0,1-.14-2.13c0-.09-.3-.23-.36-.26s-.42-.2-.42-.15Z"/><path class="cls-15" d="M59,89.69A3.18,3.18,0,1,1,56,86.41,3.19,3.19,0,0,1,59,89.69Z"/><path class="cls-15" d="M113.14,90a3.18,3.18,0,1,1-3.08-3.28A3.19,3.19,0,0,1,113.14,90Z"/><path class="cls-15" d="M102.86,34.88c3.89-7.13,9.22-13,15-18.63,4-3.89,7.6-8.18,12.14-11.54,2-1.5,4.44-3.16,7-3.51a7.69,7.69,0,0,1,6.66,2.59A15.1,15.1,0,0,1,147.23,11c.35,2,.2,4.46-1.71,5.6s-4.21.45-6.09,0a52.23,52.23,0,0,0-7-1.55c-1.89-.18-3.95.11-5,1.9a4.86,4.86,0,0,0-.14,5.05c2.11,3.07,6,3.8,8.76,6,3.28,2.56-1.07,7.7-3.87,8.55-3.78,1.14-7.85-1.72-11.21-3a12.16,12.16,0,0,0-5.53-1.11,7.66,7.66,0,0,0-5.2,3.06,17.51,17.51,0,0,0-2.35,4.09c-.18.42,1.68,1.58,1.72,1.49,1.15-2.48,2.59-5.21,5.12-6.52a7.86,7.86,0,0,1,5.84-.27C124.34,35.32,128,38.17,132,38a6.48,6.48,0,0,0,4.86-2.86c1.14-1.42,2.29-3.27,1.42-5.12-1.57-3.31-5.91-4.43-8.73-6.31-1.65-1.1-1.61-2.91-1-4.66.81-2.21,2.78-2.89,5-2.74a49.56,49.56,0,0,1,7.29,1.56c1.87.43,4.29,1,6.07-.07s2.06-3.41,1.81-5.31a15.54,15.54,0,0,0-3.12-7.12c-2.89-3.82-7.41-6.76-12.21-4.7a29.2,29.2,0,0,0-7.35,5,63.5,63.5,0,0,0-5.93,5.9c-2.33,2.64-5,5-7.33,7.6a68.37,68.37,0,0,0-7.92,10.19,23.28,23.28,0,0,0-2.44,5.11c0,.11.43.42.44.38Z"/><path class="cls-15" d="M60.54,35.38c-4.16-9.48-7.2-19.72-13.13-28.31-2-2.89-5.16-6.81-9.15-5.85A22.22,22.22,0,0,0,26.15,9.16c-2,2.68-3.92,6.51-2.87,10,1.09,3.61,5,4.55,8.4,4.38A22.83,22.83,0,0,0,36,22.84c.75-.18,1.5-.4,2.23-.63.4-.12.8-.26,1.19-.39a7.38,7.38,0,0,1,1.6-.6c.94,0,1.57,2.33,1.72,3.14a5.28,5.28,0,0,1-.23,2.89c-1.27,3.32-5,5.08-6.3,8.47A4.22,4.22,0,0,0,41.76,41c3.51-1.49,7.12-5.73,10.93-2.39a15.5,15.5,0,0,1,3.16,4.47c.17.32,1.35-1.17,1.13-1.61-1.52-3.21-4.16-7-8.21-5.66-2.64.9-4.79,3.53-7.61,3.82-2.19.22-5.09-2.62-3.91-4.85a13.41,13.41,0,0,1,2.22-2.6A24.41,24.41,0,0,0,42.13,29c2.13-3.15,2.35-6.41.21-9.64a.09.09,0,0,0-.13-.07,28.25,28.25,0,0,1-10.73,2.42,8.12,8.12,0,0,1-5.85-2.14c-3-3.18-.92-8,1.62-10.71a21,21,0,0,1,7.48-5c2.35-1,4.44-1.55,6.75-.21a17.77,17.77,0,0,1,5.36,5.62,68.68,68.68,0,0,1,4.84,8.78c1.64,3.44,3.12,7,4.59,10.47a60.63,60.63,0,0,0,3.61,7.75c.12.2.77-.69.66-.94Z"/><path class="cls-15" d="M67.76,38.54c.23-2.69.28-5.39.37-8.09l-.34.11c3,2,6.84,1.93,9.8,3.92.13.09.4.14.35-.11-.54-3-1.36-6-1.78-9.12s-.82-7.11.93-9.95c1.49-2.42,5.28-3.35,7.18-.93,2.13,2.7,2.65,6.84,3.14,10.13s.61,6.84,1.17,10.22c0,.23,1,1.45,1,1a11.73,11.73,0,0,1,2.7-5.6c1.25-1.4,2.67-2.61,3.86-4.07l-.89-.77a17.58,17.58,0,0,1,1.51,6.38,21.25,21.25,0,0,1-1,6.85c-.09.29.67,1.29.88.95,2.34-4,1.28-9.86-.5-13.85-.06-.13-.67-1-.89-.78-1.25,1.53-2.77,2.78-4.06,4.26a11.89,11.89,0,0,0-2.61,5.51l1,1c-.55-3.34-.67-6.75-1.17-10.11-.56-3.68-1.26-7.76-3.38-10.92-1.68-2.51-4.54-3.77-7.31-2s-3,6.25-2.75,9.31c.25,3.92,1.23,7.68,1.87,11.53l.35-.11c-3-2-6.83-1.9-9.8-3.89-.16-.12-.33-.12-.34.1C67,32.3,66.92,35,67,37.77c0,.27.77,1,.79.77Z"/><path class="cls-15" d="M70.24,38.92a15.83,15.83,0,0,0-8.34,9.49v0c1.72.94,3.76,1.7,5.69.93a10.22,10.22,0,0,0,3.64-2.92c.49-.58.92-1.19,1.39-1.78a7.64,7.64,0,0,1,.73-.87s-.11,0,.17-.09a3.5,3.5,0,0,1,.54-.2c2.21-.6,4.29,1.3,5.49,2.92C81.43,49,82.43,52,84.19,54.6a4.13,4.13,0,0,0,1.45-1.22c.24-4,2.84-7.55,3-11.61l-1.38,1.17c2.93,2.67,7.47,4.69,10.94,1.84,1-.84,1.91-1.84,1.71-3.25-.32-2.22-2.88-4.37-4.92-4.87-.19,0-1.21.9-1.14,1,1.3,1.44,3.21,2.08,4.2,3.88a3.53,3.53,0,0,1,.47,1.7,2.66,2.66,0,0,1-.16.84c0,.11-.11.21-.15.32s-.42.33,0,.1c-3.19,1.75-7.25-.54-9.57-2.7-.14-.12-1.37,1-1.38,1.17-.22,4.07-2.88,7.62-3.1,11.66l1.45-1.22c-1.82-2.62-2.87-5.68-4.8-8.23-1.29-1.71-3.55-3.59-5.84-2.69a10,10,0,0,0-3.82,3.37c-1.26,1.63-2.16,2.89-4.46,2.66a8.39,8.39,0,0,1-2.15-.55c-.4-.16-1-.28-1.15-.69s.21-1.14.4-1.58a12.82,12.82,0,0,1,6.05-6.4c.13-.07.3-.32.37-.35Z"/><path class="cls-15" d="M49.07,46.45a94.91,94.91,0,0,0-5.22,19.63c-1.3,7.5-2.14,15.08-2.87,22.66-.35,3.75-.74,7.51-.95,11.28,0,.18.36-.74.38-.93.78-6.6,1.18-13.24,1.91-19.84a188,188,0,0,1,3.4-21.49,72.4,72.4,0,0,1,3.35-11.07c0-.08.11-.49,0-.24Z"/><path class="cls-15" d="M108.7,43.3c7.42,14.87,10.06,31.37,13.26,47.52a96.84,96.84,0,0,0,2.9,12.5c.12.37.09-.45.08-.53-1.54-8.13-3.32-16.22-5-24.33a184.44,184.44,0,0,0-6.06-24,67.59,67.59,0,0,0-5.23-11.8c-.06-.11-.07.48,0,.61Z"/><path class="cls-15" d="M29.13,112.64a22.38,22.38,0,0,1-.17-4.48,9.52,9.52,0,0,1,1.16-3.72,5.39,5.39,0,0,1,2.24-2.27,3.43,3.43,0,0,1,2.76.26,8,8,0,0,1,2,1.33,12.27,12.27,0,0,1,1,1,9.41,9.41,0,0,0,1.2,1.32c.22.17,1.59-.18,1.47-.53a3.76,3.76,0,0,0-.89-1.22,12.91,12.91,0,0,0-1.12-1.1,9,9,0,0,0-2.13-1.39,5.83,5.83,0,0,0-4-.28c-2.69.76-4.15,3.16-4.52,5.82a9.11,9.11,0,0,0,.72,5.33s.28,0,.27-.09Z"/><path class="cls-15" d="M32.79,110.94a6.39,6.39,0,0,1,.84-1.62,2,2,0,0,1,.45-.47l.09-.07c.21-.15-.88.3-.56.27a.59.59,0,0,1,.19,0,1.2,1.2,0,0,1,.73.54,7.1,7.1,0,0,1,.74,1.32c.16.36.31.73.47,1.1.09.2.18.4.28.6l.15.29c.11.19.23.22.45.27,0,0,.13,0,.15,0l.35-.15.34-.17s.12,0,.14-.08a.72.72,0,0,0,.16-.5c0-.1-.07-.21-.1-.32a5.21,5.21,0,0,0-.24-.66,8.31,8.31,0,0,0-.59-1,4.62,4.62,0,0,0-1.2-1.29,1.5,1.5,0,0,0-1.1-.27,4.13,4.13,0,0,0-1,.44,1.09,1.09,0,0,0-.41.33,2.35,2.35,0,0,0-.35.64c-.06.16-.06.29-.11.46l-.12.56s.24-.06.26-.11Z"/><path class="cls-15" d="M117.59,106.62c1.18-3.32,5.39-4.54,8.55-4.6,2.92,0,7,1,7.59,4.41a4,4,0,0,1,0,1.2,2.22,2.22,0,0,1-.07.31,4.9,4.9,0,0,1-.24.62c-.66,1.5-1.91,2.68-2.53,4.17-.1.23-.3.74-.12.9s1.23-1.23,1.41-1.49a15.1,15.1,0,0,0,1-1.79,11.74,11.74,0,0,0,1.13-3.83,5,5,0,0,0-1.7-4.61c-2.93-2.41-7.67-2.1-10.89-.5a8.14,8.14,0,0,0-4.25,4.86c0,.15-.1.82.07.35Z"/><path class="cls-15" d="M123.61,110.41a2.74,2.74,0,0,1,3,.61,5.53,5.53,0,0,1,1.13,3.54,9.56,9.56,0,0,1,0,1.31,3.7,3.7,0,0,0-.06,1.24c0,.15.32-.17.36-.2a2.61,2.61,0,0,0,.47-.67,7.19,7.19,0,0,0,.21-4.88,2.77,2.77,0,0,0-2.42-2.06,4.9,4.9,0,0,0-2.38.69.65.65,0,0,0-.23.26s-.11.18,0,.16Z"/><path class="cls-15" d="M33.24,119.05c-.58,6.32,3,12,7.75,15.81,6,4.79,13.78,7.25,21.21,8.6a93.35,93.35,0,0,0,27.47.72,78.8,78.8,0,0,0,25.24-6.94,41.56,41.56,0,0,0,9.43-6.17c2.38-2.13,4.9-4.87,6-7.94.27-.78.47-1.61.68-2.4.08-.27-.59-1.07-.69-.81a24.94,24.94,0,0,1-5.21,7.67,36.25,36.25,0,0,1-8.39,6.27c-7.22,4.06-15.42,6.4-23.54,7.76a100.36,100.36,0,0,1-26.36,1c-7.71-.75-15.62-2.39-22.42-6.24-5.7-3.23-9.92-8.06-10.8-14.7a21.26,21.26,0,0,1-.22-2.51s-.13-.18-.14-.14Z"/><path class="cls-15" d="M40.9,133.78a3.74,3.74,0,0,0-.9,1.73,18,18,0,0,0-.48,3.28,26.46,26.46,0,0,0,.35,7.27.17.17,0,0,0,.18,0,16.42,16.42,0,0,0,5.57-2.31,13.48,13.48,0,0,0,4.53-4.48c.14-.24-.52.17-.57.22a28.18,28.18,0,0,1-4,3.64,13.45,13.45,0,0,1-4.4,1.76l.19,0a33.05,33.05,0,0,1-.57-6.66,29.07,29.07,0,0,1,.09-2.95c0-.44-.08-1.23.22-1.59.11-.14-.16,0-.2,0Z"/><path class="cls-15" d="M115.45,135.08a11.24,11.24,0,0,0,9.8,7.1.17.17,0,0,0,.16,0,16.57,16.57,0,0,0,.85-5.13,13,13,0,0,0-.9-5.88c0-.13-.86-.47-.87-.35-.17,1.85.15,3.73.1,5.59a16.32,16.32,0,0,1-.81,5l.15,0c-3.53-.14-6.16-3.23-7.82-6.06-.08-.13-.68-.32-.66-.24Z"/><path class="cls-15" d="M74.61,92.89a47,47,0,0,0,5.44,0c1.76,0,3.52,0,5.28,0,3.6,0,7.41.55,10.93-.27a1.74,1.74,0,0,0,.21-.89,17.45,17.45,0,0,0-5.39-.67c-1.77,0-3.54,0-5.31,0s-3.56.1-5.34.22a28.53,28.53,0,0,0-5.61.72c-.13,0-.24.89-.21.89Z"/><path class="cls-15" d="M73.68,101.58c3.6.61,7.35.18,10.95-.13,1.62-.15,3.22-.33,4.84-.46a21.82,21.82,0,0,0,4.28-.46c.15,0-.51-.55-.62-.57-3.06-.64-6.41,0-9.48.3-1.68.2-3.36.39-5.05.52a51.23,51.23,0,0,0-5.25.5c-.07,0,.26.29.33.3Z"/><path class="cls-15" d="M77.49,109.28c2.53.1,5.06.44,7.6.42s5.37,0,7.81-.93a2.49,2.49,0,0,0,.54-.85,7,7,0,0,0-1.84-.11l-2,.12c-1.21.08-2.42.14-3.64.17-2.61.06-5.23.23-7.86.18-.29,0-.58,1-.65,1Z"/><path class="cls-15" d="M51.41,145.9c3.64.86,7.2,2,10.9,2.67s7.39,1.33,11.13,1.72a77.32,77.32,0,0,0,22.73-.72c4.31-.84,9.15-2,12.9-4.33.1-.07.13-.64.2-.65a57.61,57.61,0,0,0-5.49,1.79c-1.86.57-3.72,1.1-5.61,1.52a67.94,67.94,0,0,1-11.27,1.48,110.34,110.34,0,0,1-22.74-1.5c-4.23-.67-8.54-1.22-12.72-2.1a.27.27,0,0,0,0,.12Z"/><path class="cls-15" d="M55.4,146c-1,4-1.86,8-2.65,12.07-.43,2.14-.82,4.29-1.19,6.44-.17,1-.34,2-.49,2.92a6.37,6.37,0,0,0,.18,2.68c0,.15,1,.09,1.1,0a7.93,7.93,0,0,0,1.08-2.56c.19-1,.36-1.94.52-2.91q.55-3.3,1-6.61c.58-4,1.11-8,1.48-12,0-.08-1-.13-1.06,0Z"/><path class="cls-15" d="M109.53,146.93c.65,3.74,1.18,7.47,2,11.17.4,1.76.86,3.49,1.4,5.21.43,1.35.92,3.83,2.26,4.56a1.21,1.21,0,0,0,1-.36,4.06,4.06,0,0,0-.26-2.32c-.21-.85-.52-1.68-.78-2.52-.56-1.77-1.08-3.55-1.6-5.34-1-3.58-2.08-7.17-3-10.77,0-.14-1,.16-1,.37Z"/><path class="cls-15" d="M40.59,52.12c-3.8,3.84-7.17,8.12-11.41,11.5A25.65,25.65,0,0,1,13.53,69.5C9.08,69.57,5,68.15.62,67.62c-.25,0-.8.82-.56,1,3.21,2,7.38,2.57,11.11,2.69a24.81,24.81,0,0,0,9.16-1.4c5.34-1.9,9.72-5.6,13.57-9.67,2.38-2.52,4.55-5.21,6.67-8,0,0,.09-.21,0-.14Z"/><path class="cls-15" d="M1.48,72.1a32.4,32.4,0,0,1,9.94,8.62,29.07,29.07,0,0,1,4.62,10A29.83,29.83,0,0,1,14,110.91c-1.72,3.48-4.22,6.08-6.82,8.88-.14.15,1.14,1.55,1.37,1.42,3.09-1.87,5.36-5.25,6.91-8.43a29.42,29.42,0,0,0,2.88-10.84,31.24,31.24,0,0,0-6.79-21.68A31.39,31.39,0,0,0,1,71.58c.06,0,.3.43.45.52Z"/><path class="cls-15" d="M11.83,125.93a13.4,13.4,0,0,1,8.22,1.89,17.45,17.45,0,0,1,5.24,6,32,32,0,0,1,3,7.59c.69,2.65.8,5.48,1.7,8.07.06.18,1.09.78,1.17.53.7-2.08-.06-4.71-.56-6.76A34.08,34.08,0,0,0,27.93,136c-2.08-4.09-5.18-7.71-9.46-9.57a12.92,12.92,0,0,0-7.43-1c-.1,0,.58.52.79.51Z"/><path class="cls-15" d="M116.17,44.39a23.61,23.61,0,0,0,4.13,8.88,30.34,30.34,0,0,0,7.83,6.94,44.22,44.22,0,0,0,20.56,6.37,33.33,33.33,0,0,0,11.77-1c.26-.08-.75-.25-.9-.23a44.68,44.68,0,0,1-20.4-1.12A37.14,37.14,0,0,1,122.55,53.9a29.26,29.26,0,0,1-5.93-9.47c0-.1-.46-.07-.45,0Z"/><path class="cls-15" d="M157.88,66.39c-5.78,4.78-9.18,12.07-11.16,19.15-2.17,7.77-2.91,16.45-.2,24.18,1.44,4.11,4,7.79,7.93,9.77a2.21,2.21,0,0,0,1.23-.41,31.34,31.34,0,0,1-6.07-8.88A31.5,31.5,0,0,1,147.35,99a52.46,52.46,0,0,1,4.94-23.58,28.88,28.88,0,0,1,6.09-9.12c.09-.08-.41,0-.5.08Z"/><path class="cls-15" d="M155.44,119.93c-5.53.11-10.75,3.27-14.69,7a32.59,32.59,0,0,0-9.44,15.92,19.56,19.56,0,0,0-.65,4.87c0,1.42.1,3.49,1.21,4.54.11.11,1-.42,1-.56a34.54,34.54,0,0,0,.17-5,32.21,32.21,0,0,1,.64-4.9,31.84,31.84,0,0,1,4-9.63c3.76-6,9.46-11.22,16.85-11.72.27,0,.72-.49.84-.49Z"/><path class="cls-15" d="M68.36,151c-.11,3.2,0,6.38.08,9.57s.11,6.36.2,9.54c0,.33.16-.37.16-.45.44-6.28-.48-12.61-.35-18.9,0-.18-.09.2-.09.24Z"/><path class="cls-15" d="M97.93,150.09a55.7,55.7,0,0,1,1.73,10.73c.15,1.85.24,3.7.34,5.56s-.11,3.93.64,5.54c.08.18.94-.2,1-.36a21.33,21.33,0,0,0-.12-5.41c-.13-1.9-.26-3.81-.44-5.71a30.74,30.74,0,0,0-2.6-10.56c0-.09-.55.11-.52.21Z"/><path class="cls-15" d="M75.45,159.44a64.81,64.81,0,0,1,10.1-1.15,53.35,53.35,0,0,1,9.77.92s-.09-.54-.2-.59C89,155.91,81.45,157,75.27,159c0,0,.1.5.18.48Z"/><path class="cls-15" d="M77.72,165.68c3.34.43,6.78.43,10.15.55a93.46,93.46,0,0,0,10.45.2c.12,0,.9-.34.62-.4a33.83,33.83,0,0,0-5.33-.3l-5-.13c-3.52-.1-7.07-.25-10.59-.1-.06,0-.39.16-.27.18Z"/><path class="cls-15" d="M21,78.72c4.37,2.7,8.48,5.86,13.35,7.65.25.09.11-.23.06-.32a1.45,1.45,0,0,0-.64-.61c-4.6-2-8.76-4.9-13.08-7.44-.19-.11-.22,0-.2.15s.36.48.51.57Z"/><path class="cls-15" d="M19.45,121.5a16.53,16.53,0,0,0,4.35.91,38.07,38.07,0,0,0,5.55,0c.08,0,.57-.11.26-.14-1.53-.15-3.09-.09-4.63-.19a20.85,20.85,0,0,1-4.51-.76,1.7,1.7,0,0,0-.71,0s-.4.1-.31.13Z"/><path class="cls-15" d="M127.6,83.72a32,32,0,0,0,8-1.59c2.65-.72,5.34-1.35,7.95-2.22.26-.09.25-1.15,0-1.15a31,31,0,0,0-8,1.51c-2.64.73-5.36,1.29-8,2.16-.29.1-.28,1.29,0,1.29Z"/><path class="cls-15" d="M138.39,112.78a25,25,0,0,0,3.27,2.7,17.4,17.4,0,0,0,1.69,1.09,5.57,5.57,0,0,0,1.72.68c.18,0,.72-.85.59-1a9.33,9.33,0,0,0-1.42-1.08c-.57-.38-1.16-.74-1.72-1.13a25.57,25.57,0,0,1-3.28-2.68c-.11-.11-.52.55-.56.62s-.43.64-.29.78Z"/></g></g></g></svg>