<svg xmlns="http://www.w3.org/2000/svg" viewBox="0 0 140.89 165.03"><defs><style>.cls-1{isolation:isolate;}.cls-2,.cls-3{fill:#8c5940;}.cls-3,.cls-6,.cls-8{mix-blend-mode:multiply;}.cls-4{fill:#e8ad80;}.cls-5,.cls-8{fill:#ffdeab;}.cls-6{fill:#dead80;}.cls-7{fill:#fad4a3;}.cls-9{fill:#fffcdc;}.cls-10{fill:#231f20;}</style></defs><title>horse_1</title><g class="cls-1"><g id="Layer_2" data-name="Layer 2"><g id="Layer_1-2" data-name="Layer 1"><path class="cls-2" d="M107.1,39c6.94-6.33,19.92,6.38,21.11,12.9,1.36,7.38-4.21,15.07-10.81,18,5.7-4.12,10.9,1.5,10.73,7.28-.2,7.07-3.4,10.84-7.09,16.36a1.48,1.48,0,0,1,.25.25c10.78-2.38,12.93,7.63,9.15,15.61-2.27,4.78-4.83,12.66-10.88,13.7-8.87,1.52-4.1-16.11-3.92-21,.3-8.14.81-16.38-.65-24.42-1.38-7.55-2.57-15.13-4.53-22.5-1.15-4.29-.87-14.45-4-17.18" transform="translate(0 -0.4)"/><path class="cls-3" d="M127.15,45.9c-1.65,1.73-2.35,5.75-4,8s-3.65,4.45-5.34,6.81c-1.82,2.56-3.18,4.35-1,6.93,1.62,1.91,4.48,3.1,6.62,3.91-1.3-2.26-3.52-3.75-2.83-6.46.43-1.72,2.71-4,3.77-5.44,1.94-2.61,6.46-10.07,2.72-12.73" transform="translate(0 -0.4)"/><path class="cls-3" d="M126.16,76.47a68.79,68.79,0,0,1-6.48,13.14c-2.12,3.36-1.86,3.83,1.88,4.94,1.9.56,4.72,1.87,6.53.9-2.62-3.24-2.31-6.3-1.27-10.11.41-1.48,3.72-11.36-.66-9.2" transform="translate(0 -0.4)"/><path class="cls-3" d="M129.12,100.14c.42.11.4-.4.68,0-.12,4.81-4.29,23.84-12.51,17.5-1.73,2.07-.14,6.13,2.64,5.64,2.12-.38,5.7-4.58,6.89-6.33,1.39-2,7.21-15.59,3-15.79" transform="translate(0 -0.4)"/><path class="cls-4" d="M110.1,40c-.36-5,3.81-18-1.49-21.41-3.72-2.4-6.41,2.43-10.73,1.89C93.27,20,89.6,15.69,85.3,14.18c-8.06-2.82-17.56-2.8-26-2.37-7,.37-15.13,4.49-21.25,3.25C31.74,13.78,28.64,6.18,21.49,9c-.72,8,2.56,15.87,1.1,23.06C19.35,47.91,7.5,60.3,3.88,76.27.81,89.85-1.36,107.93,5.29,120.84c8.77,17,32.72,23.87,50.8,21.92,10.93-1.18,23.62-6,31.45-14,3.29-3.37,14.53-17.49,13.55-21.85,2.7,12,1.17,25.7,3.81,38-4.34,3.28-7.35,7.78-7.45,12.8,10,.83,29-2.6,37.12-8.58,4.31-3.18,10.22-10.46,2.55-15.05-5.45-3.26-13.44,3.38-17.6,5.71-2.29-22.32,0-46.21-2.25-68.85C116.16,59.89,110.85,50.57,110.1,40Z" transform="translate(0 -0.4)"/><path class="cls-5" d="M74,125.81c-6.35,12.12-22.76,15.28-35.19,14.67s-24.33-4.36-31.06-15.61C5.29,120.72-.7,112.61.07,107.63c1.39-9,14.68-12.79,22.06-14.43,11.63-2.59,21.34-4,33.31-1,7.44,1.85,16.73,3.36,21.2,10.53C81.74,110.87,78,118.27,74,125.81Z" transform="translate(0 -0.4)"/><path class="cls-5" d="M110.05,37.35c-1.48-3.34-3.65-4.23-2-7.82.84-1.81,3.21-5.26,5.21-5.94.29,5-1.22,8.8-3.55,13.1" transform="translate(0 -0.4)"/><path class="cls-5" d="M31.49,25.52c-2-2.08-4.63-13.21-7.83-13.09-2.36,4.54-.35,9.31.27,12.43s6.07,7.15,7.25.3" transform="translate(0 -0.4)"/><path class="cls-6" d="M67.34,140c5.63-1.48,10.69-2.78,16-5.44,6-3.05,9.86-9.88,13-15.67,4.52-8.48,3.29-18.25,7.7-26.44,3.51-6.51,6-1.47,6.87,3.37.94,5.13,1,10.89,1.39,16.15.45,5.45,1.21,10.92,1.41,16.46.08,2.41-.84,5.93-.12,8.22,1.17,3.72,3,1,3.57-1.92,1.23-6,.22-12.82.6-18.81.43-6.69,2.57-13,2-19.62-.3-3.67-1.52-7.21-1.82-10.88-.29-3.44.71-6.83.19-10.24-1.09-7-1.45-13.85-2-21-.52-6.48-2.89-11.36-5.4-17.16-2-4.55,1.75-9.31.29-14.43-4.4,1.32-6.51,4.79-11.2,1.77-1.78-1.14-3.16-2.8-4.9-4-2.9-2-4-1.33-7.21-1.07-5.08.42-9.91-2.41-14.77-1.8-2.33.29-4.66,1.84-6.94,2.47-1.85.51-4.33-.08-5.64,1.54,1.63,1.78,4.56,1.86,6.9,2,3.27.2,4.36.87,7.11,2.24,5.28,2.63,10.82,4.37,14.34,9.64,7,10.46,9.26,24.31,7.77,36.63-1.84,15.25-4,34.06-10.25,48.17-4.55,10.25-15.36,16.54-26.25,19-1,.24-3.07.77-3.56,1.9C54.87,144.42,66.1,140.34,67.34,140Z" transform="translate(0 -0.4)"/><path class="cls-2" d="M78.83.86C73,.8,67,7.17,61.89,6.13c-3-.61-6.74-6.68-10-4.3C50.18,3,55.37,10.33,56.47,12c2.74,4.06,3.32,3.88-1.29,5.73-1.76.71-10,5.1-5.61,6.85,3,1.18,9.8-4.65,13.24-5,4.92-.44,3.27,4.57,4.5,8.56,1,3.26,3.27,7.47,5.35,3,1.56-3.38-.4-7.87,1.3-11.13,3.29,1.23,18.35,4.41,17.94-2-.34-5.3-14.37-7.13-18.23-7.89C77.21,9.13,86.7,1,78.83.86Z" transform="translate(0 -0.4)"/><path class="cls-3" d="M80.8,1.52c-2.51-.1-7.66,4.94-8.51,7.18A12.94,12.94,0,0,1,77.54,10C78,6.53,80.28,4,81.46.86" transform="translate(0 -0.4)"/><path class="cls-3" d="M88.36,18.29c-3-.39-6.06.53-9.21.32-3-.19-4.63-1.71-7.17-2.25-1.15,2.88-.21,8.58,1.19,11.1A22.91,22.91,0,0,0,74,20.31c3.91-.63,17.26,5.56,17-3A8.15,8.15,0,0,0,88,18.61" transform="translate(0 -0.4)"/><path class="cls-3" d="M49.24,24.86c3.89-2.48,9.12-3.87,13.48-5.55.47.66,1.2.91,1.67,1.49.36-5-4.06-2.36-6.6-1.29-2.28,1-7.27,2.41-8.55,4.36" transform="translate(0 -0.4)"/><path class="cls-6" d="M101,153.73c4.6,5,15.84,1.19,20.84-1.33,2.88-1.45,6.2-3.12,8.54-5.51,2.51-2.55,2.47-8.29,4.7-10,3.95-3.1,4.93,3.21,3.65,5.92s-5.08,5-7.48,6.53c-5.93,3.9-14.84,9.47-22,10.24-2.82.3-12-1.87-8.2-5.8" transform="translate(0 -0.4)"/><path class="cls-7" d="M39.59,26.48a13,13,0,0,0-1.51-.1,7.17,7.17,0,0,0-1.63.51,13.89,13.89,0,0,0-2.86,1.67A33.32,33.32,0,0,0,27.92,34a70.47,70.47,0,0,0-9.21,14.11A22.88,22.88,0,0,0,16.12,56c0,.32.74,2.36,1.06,2,1.68-2.17,2.64-5,3.89-7.37a79.93,79.93,0,0,1,5.58-9.27A65.21,65.21,0,0,1,33.45,33a33,33,0,0,1,3.43-3c.53-.41,1.08-.83,1.65-1.2s.92-.87,1.48-1.23c.2-.13-.2-1-.42-1Z" transform="translate(0 -0.4)"/><path class="cls-8" d="M66.79,97.83c-.55,2.76,2.3,4.7,3.26,7.72.79,2.49,2.45,9.24,1.55,11.56-2.07,5.38-7.81,12.32-12.53,15.42-11.38,7.5-27,1.35-39.93,2,.38,4.68,16.18,5.81,20.18,6.2,15.21,1.47,29-1.89,37.7-15.33,7.22-11.13,4.54-23-9.27-26.12" transform="translate(0 -0.4)"/><path class="cls-8" d="M60,122.81c4-2-.4-13-.57-16C50.09,104.74,54.56,125.41,60,122.81Z" transform="translate(0 -0.4)"/><path class="cls-8" d="M22,105.06c-2.47,2.34-2.08,16.6,3.28,12.06,3.59-3-.78-16-3.28-11.09" transform="translate(0 -0.4)"/><path class="cls-9" d="M11.68,101.43c4.34-2.64,9.85-3.16,14.81-3.29,2.6-.07,5.21,0,7.81.08,2.85.09,5.87.47,8.64-.37.18,0,1.54-.79,1.47-1-.3-.79-2.52-.61-3.25-.64L37,96.06c-3.08-.1-6.17-.14-9.25.06-5.81.37-11.32,1.79-16.14,5.15-.68.48-.59.57.1.16Z" transform="translate(0 -0.4)"/><path class="cls-9" d="M48,98.19c1.16.2,2.31.46,3.49.56l1.48.14a9.13,9.13,0,0,0,1.37.16l.08,0c0-.12.05-.09.09-.17s-.35-.43-.41-.47a4.84,4.84,0,0,0-.91-.58c.67.4.8.47.38.21a2.82,2.82,0,0,0-.38-.21l-.49-.23a5.06,5.06,0,0,0-1.25-.4,12.22,12.22,0,0,0-1.7-.16,8,8,0,0,0-1.55.09,2.78,2.78,0,0,0-.63.16,4.61,4.61,0,0,1-.51.22c-.14,0,.24.32.28.35a1.71,1.71,0,0,0,.66.36Z" transform="translate(0 -0.4)"/><path class="cls-10" d="M21.94,71.18A3.35,3.35,0,1,1,19,67.45,3.35,3.35,0,0,1,21.94,71.18Z" transform="translate(0 -0.4)"/><path class="cls-10" d="M80.87,72.67a3.35,3.35,0,1,1-2.93-3.73A3.35,3.35,0,0,1,80.87,72.67Z" transform="translate(0 -0.4)"/><path class="cls-10" d="M58.83,13.72a47.87,47.87,0,0,0-22.2,6.75A50.46,50.46,0,0,0,20.54,36.88,89.84,89.84,0,0,0,9.86,62.83c-1.19,4.61-2.17,9.28-3.22,13.93-1.09,4.82-2.1,9.66-2.82,14.55-1.39,9.53-1.7,19.56,1.53,28.78a24.14,24.14,0,0,0,6.33,10.24,34.91,34.91,0,0,0,9.84,6,74.82,74.82,0,0,0,24.92,5.46,70.1,70.1,0,0,0,11.86-.21,70.44,70.44,0,0,0,12.33-2.68c7-2.07,14.11-5.22,19.35-10.46,4.88-4.87,7.78-11.23,9.9-17.69.66-2,1.24-4,1.8-6.06l-.54-1.38a339.42,339.42,0,0,1,2.47,39.29c0,.25.45,1.7.46,1a285.33,285.33,0,0,0-2.39-39.41,5.84,5.84,0,0,0-.53-1.38c-1.86,7-4.11,14.07-8.38,20-4,5.5-9.61,9.25-15.87,11.72a71.94,71.94,0,0,1-23.3,5.21,81.6,81.6,0,0,1-24.73-2.91c-7.16-2-14.88-5.13-19.73-11-2.92-3.55-4.42-8.42-5.1-12.89a60.24,60.24,0,0,1-.11-14.88c.94-9.56,3.35-18.87,5.41-28.23A107.42,107.42,0,0,1,18.5,43.21,58,58,0,0,1,33.3,24.62a44.29,44.29,0,0,1,20.07-9.08,52.23,52.23,0,0,1,5.72-.7c.11,0,0-1.14-.26-1.12Z" transform="translate(0 -0.4)"/><path class="cls-10" d="M96.44,19.5c5.6,2.77,9.25,8.54,11.81,14a92.56,92.56,0,0,1,6.39,21c1.24,6.28,2.12,12.62,2.76,19a176.65,176.65,0,0,1,.43,28.82c-.78,12.29-2.47,24.84-1,37.14,0,.25.36.7.36.83-.11-5.64-.15-11.25.13-16.9s.77-11.44,1.15-17.17c.41-5.93.71-11.88.61-17.83-.08-4.44-.49-8.86-.94-13.27-1.43-13.83-3.69-28.15-9.39-40.93-2.61-5.88-6.25-11.95-12.3-14.79,0,0,0,0,0,0Z" transform="translate(0 -0.4)"/><path class="cls-10" d="M103.67,39.88c2.92-1.66,6.87-1.91,10.14-1.63a16.58,16.58,0,0,1,10.26,4.92,9.33,9.33,0,0,1,2.89,7.9A18.87,18.87,0,0,1,123.51,59a100.36,100.36,0,0,1-6.93,8.61.16.16,0,0,0,.11.1,80.81,80.81,0,0,1,7.85,4.45,10.43,10.43,0,0,1,3.67,3.59c1.39,2.81-.48,6.36-1.46,9a94.71,94.71,0,0,0-3,9.24c-.07.24,1.36.48,1.53.49,5.65.47,6.26,6.67,5.18,11.08A35.32,35.32,0,0,1,123,119.65a14,14,0,0,1-2.47,2.34,5.88,5.88,0,0,1-1,.56c-.55.26-.74.13.12.34-.11,0-1-.27-1-.09s.91.4,1,.41c-.28-.07.61.15.78.17a4.74,4.74,0,0,0,.75.06,3.44,3.44,0,0,0,1.23-.23,7.61,7.61,0,0,0,2.21-1.69,26.92,26.92,0,0,0,4.81-7,33.25,33.25,0,0,0,3.07-9c.44-2.48.65-5.33-.56-7.64-1.46-2.83-4.84-3.75-7.79-4l1.53.49c.77-3.07,1.73-6.07,2.8-9.05a41.32,41.32,0,0,0,1.85-5.71c.7-3.62-1.82-5.78-4.62-7.61-1.28-.83-2.6-1.58-3.94-2.31-.78-.43-1.56-.85-2.35-1.26-.56-.3-.84-.34-.51-.93a10,10,0,0,1,1-1.11,66.21,66.21,0,0,0,6.41-8.34c1.53-2.51,2.84-5.41,2.64-8.41-.22-3.31-2.4-5.93-5-7.81a21.27,21.27,0,0,0-10.29-4c-3.63-.42-7.41-.14-10.56,1.83,0,0,.54.29.69.2Z" transform="translate(0 -0.4)"/><path class="cls-10" d="M38.63,15.23c-6-1.71-10-7-15.67-9.31a3.66,3.66,0,0,0,0,.74,34.41,34.41,0,0,0,2.93,9.75c.76,1.67,1.61,3.3,2.51,4.9.47.81,1,1.62,1.43,2.42a10.15,10.15,0,0,0,1.41,2.06,8.8,8.8,0,0,0-.12-1.26c-.68-1.39-1.6-2.67-2.39-4s-1.58-2.76-2.29-4.18a31.41,31.41,0,0,1-3.3-9.72v.73c5.67,2.19,9.6,7.41,15.62,8.82,0,0,.06-.9-.13-.95Z" transform="translate(0 -0.4)"/><path class="cls-10" d="M23.94,11.54a7.44,7.44,0,0,0-3.63,4.09,10.94,10.94,0,0,0-.15,5.45,22.5,22.5,0,0,0,2,5.69c.66,1.35,1.59,3.72,3.13,4.26.18.07.84,0,.92-.2.23-.63-.52-1.45-.84-1.94-.47-.73-.9-1.48-1.31-2.24a25.53,25.53,0,0,1-2.12-5.42c-.84-3.27-1-7.65,2.26-9.68.06-.05-.2,0-.25,0Z" transform="translate(0 -0.4)"/><path class="cls-10" d="M98.91,21.82a15.83,15.83,0,0,1,5.85-5c1.94-1,4.61-1.89,6.66-.68,2.24,1.32,1.2,4.16.25,5.94a47.39,47.39,0,0,1-5,7.17c-1,1.19-1.91,2.36-2.86,3.55A10.6,10.6,0,0,0,102,35.61c-.07.18.62,1.21.74,1.11a38,38,0,0,0,4.94-6,45.09,45.09,0,0,0,5.19-8.07,6.1,6.1,0,0,0,.76-2.94,7.49,7.49,0,0,0-1.68-3.8c-1.64-2-4.16-2-6.46-1.22a13.41,13.41,0,0,0-7.21,6.14c-.14.24.59,1,.61,1Z" transform="translate(0 -0.4)"/><path class="cls-10" d="M109.85,19.63a5.25,5.25,0,0,1,3.74,3.77A10.6,10.6,0,0,1,113,29a44.34,44.34,0,0,1-2.5,5.79c-.45.9-.92,1.79-1.34,2.71a4.69,4.69,0,0,0-.74,2.54c0,.34,1,.53,1.25.32a7.44,7.44,0,0,0,1.46-2.57c.43-1,.86-2,1.28-3a40.27,40.27,0,0,0,2.21-6.54,8.83,8.83,0,0,0-.16-5.59c-.82-1.82-2.56-2.71-4.38-3.26-.3-.09-.76.06-.26.22Z" transform="translate(0 -0.4)"/><path class="cls-10" d="M62.62,9C60.74,5.16,57.3,2.05,53,1.45c-1.67-.23-4.1-.21-3.77,2.08s1.78,4.19,3,5.92c1.51,2.16,3.24,4.17,4.63,6.41.09.13.41.52.41.69s.1.14.08.2c.06-.17-.89.15-.93.17-1.29.59-2.57,1.18-3.82,1.85a20.66,20.66,0,0,0-6.5,5.16c-.16.21.35,1.26.58,1.34,2.94,1,5.59-.07,8.08-1.68,2.13-1.39,4.37-3.47,7-3.64,3.29-.2,4.6,3.46,5.65,6S69.3,31.09,71.17,33a.13.13,0,0,0,.11.06c3.53-3,4-8.19,3.31-12.46-.11-.66-.15-.76.55-.6s1.34.42,2,.62a37.72,37.72,0,0,0,4.15,1.07,10.14,10.14,0,0,0,8-1.33s-.08-.25-.11-.24a18,18,0,0,1-7.69.55,56,56,0,0,1-7.5-2c-.1,0,0,.15,0,.19.75,3.88.68,8.56-2,11.72-.22.26-.62.81-.94.92s-.51-.08-.78-.45A12.2,12.2,0,0,1,69,29c-.69-1.49-1.27-3-1.94-4.53-.89-2-2.17-5.07-4.51-5.71-2.55-.7-5,1.15-7,2.51-2.86,2-5.89,3.88-9.47,2.69l.57,1.34c2.9-3.63,7.12-5.55,11.27-7.39.06,0,0-.23,0-.25-1-3.3-3.76-6.08-5.71-8.82C51.41,7.62,49.91,6,49.9,4.39s1.85-1.63,3-1.56a12.53,12.53,0,0,1,9.72,6.24c0,.1,0,0,0-.07Z" transform="translate(0 -0.4)"/><path class="cls-10" d="M88.65,16.06a17.75,17.75,0,0,0-13.46-5.6l.71.07C79.44,8.44,81.42,4.74,82.7,1l0,0a12.37,12.37,0,0,0-8.37.43A45.11,45.11,0,0,0,70,3.51c-1.41.74-3.18,1.8-4.83,1.7a2.81,2.81,0,0,0-1,0c-.06,0-.46.07-.19.11,4.22.64,7.52-2,11.12-3.65A9,9,0,0,1,79.21.61c.85,0,1.93.08,1.7,1.11a11.69,11.69,0,0,1-.82,2.05,14.78,14.78,0,0,1-5.61,6.78,3.32,3.32,0,0,0,.71.07c4.69-.16,9.06,2.28,12.31,5.49.22.21,1-.17,1.15-.05Z" transform="translate(0 -0.4)"/><path class="cls-10" d="M15.11,95.68c5.49-2.6,11.73-3.38,17.73-3.63a81.71,81.71,0,0,1,21,1.9c6.16,1.36,12.4,3.42,17.69,6.94,4,2.68,7.75,6.59,8.2,11.63.66,7.33-5.32,13.72-10.35,18.2-.21.18.3,0,.37-.06,5.08-4.15,10.88-9.79,11.46-16.74.43-5.13-2.54-9.45-6.43-12.5-5.06-4-11.36-6.26-17.54-7.8a81.88,81.88,0,0,0-21.49-2.38c-7,.15-14.37,1.14-20.62,4.42,0,0,0,0,0,0Z" transform="translate(0 -0.4)"/><path class="cls-10" d="M21.19,105.41a31.25,31.25,0,0,0,1,11,3.92,3.92,0,0,0,1.34,2.35c.17.12.59.4.83.29.44-.21.14-.74,0-1.08-.6-1.79-1.16-3.58-1.59-5.42a34.73,34.73,0,0,1-.9-6.81c0-.2-.72-.52-.73-.31Z" transform="translate(0 -0.4)"/><path class="cls-10" d="M56.25,107.06a28.8,28.8,0,0,0-.33,8.59,16.69,16.69,0,0,0,1,3.88c.46,1.14,1.06,2.72,2.27,3.21a3.76,3.76,0,0,0,1.26-.73,4.05,4.05,0,0,0-.78-1.81,18.91,18.91,0,0,1-.9-1.73,20.19,20.19,0,0,1-1.21-3.77,23.09,23.09,0,0,1-.35-8.2c0,.19-.94.3-1,.56Z" transform="translate(0 -0.4)"/><path class="cls-10" d="M117.82,139.7a15.9,15.9,0,0,1,11.31-5.39c3.21-.15,8.34.63,9.59,4.21.87,2.5-.65,5.29-1.36,7.61-.05.17.22,1.16.44.94,1.75-1.78,2.32-4.95,1.94-7.33a8.32,8.32,0,0,0-3.24-5.47c-3.66-2.63-8.93-2.39-12.93-.72a11.38,11.38,0,0,0-6,5.43c-.06.15.16.88.3.72Z" transform="translate(0 -0.4)"/><path class="cls-10" d="M99.37,147.15c-1.08,2.35-2.64,5.6-1.79,8.25.57,1.76,2.31,2.52,4,2.76,5.2.74,10.88-1.43,15.6-3.34a27.94,27.94,0,0,0,6.83-3.4c.29-.23-.79-.11-.9-.06-4.33,1.81-8.45,3.94-13,5.25-3.13.9-9.06,2.58-11.07-1.18-1.35-2.53-.25-5.87.72-8.31,0-.08-.39-.07-.43,0Z" transform="translate(0 -0.4)"/><path class="cls-10" d="M103.15,157.29c-.05,1.36-.17,2.72-.3,4.08-.06.63-.09,1.27-.13,1.9l-.06,1a2.86,2.86,0,0,0,0,1.13,2.61,2.61,0,0,0,1.4-.46,6.71,6.71,0,0,0,0-2c0-.64,0-1.27-.09-1.91-.1-1.31-.19-2.6-.2-3.92,0,0-.64.09-.64.22Z" transform="translate(0 -0.4)"/><path class="cls-10" d="M111.09,155.3a11.24,11.24,0,0,0-1.31,1.61,4.32,4.32,0,0,0-.69,2.06,6,6,0,0,0,.19,2.19,4,4,0,0,0,1.18,2.24c.23.15.84,0,1.08,0s.81,0,.84-.21c.06-.35-.36-.82-.53-1.13a8.33,8.33,0,0,1-.51-1.09,7.7,7.7,0,0,1-.52-2.1,5.74,5.74,0,0,1,.11-1.85,2.67,2.67,0,0,1,.26-.86,5.51,5.51,0,0,1,.71-.9c0-.05-.28,0-.3,0s-.42,0-.51.09Z" transform="translate(0 -0.4)"/><path class="cls-10" d="M124.15,153.07c-.09.9-.23,1.77-.25,2.68a8.27,8.27,0,0,0,.47,3,4,4,0,0,0,.86,1.48c.13.14.36.44.55.5s.08-.2,0-.33a26.76,26.76,0,0,1-.54-3c-.18-1.22-.32-2.47-.4-3.7,0-.11-.27-.3-.35-.37a3.22,3.22,0,0,1-.38-.33Z" transform="translate(0 -0.4)"/><path class="cls-10" d="M133.9,149.25a12.62,12.62,0,0,0-.8,1.71,7,7,0,0,0-.33,2,10.53,10.53,0,0,0,.16,2.17A3.89,3.89,0,0,0,134,157.5c.18.16.77.51,1,.33s.23-.54.18-.88-.13-.69-.19-1a16.69,16.69,0,0,1-.25-2.24,17.54,17.54,0,0,1,.05-2,4.73,4.73,0,0,1,.41-1.81c.14-.3-1.14-.88-1.32-.56Z" transform="translate(0 -0.4)"/><path class="cls-10" d="M138.14,136.78a1,1,0,0,1,.08-.51c.1-.17.18-.18.22-.41l.3-1.34c.26-1.16.33-2.38.48-3.56s.27-2.34.38-3.51a6.46,6.46,0,0,0-.24-2.66c-.06-.16-.92-.66-1-.46a5.73,5.73,0,0,0-.61,2.19c-.12,1.2-.27,2.39-.38,3.59a35.8,35.8,0,0,0-.3,3.57c0,.51,0,1,0,1.51a1.63,1.63,0,0,0,.13.58,1.65,1.65,0,0,1,.07.59c0,.25.86.48.86.42Z" transform="translate(0 -0.4)"/><path class="cls-10" d="M136.23,124.84a17.15,17.15,0,0,0,2.11.65c.29.08.58.16.87.26l.39.16c-.09,0,.17.11,0,0a1.83,1.83,0,0,1-.31-.24,4.06,4.06,0,0,0,.82.61c.11.06.47.25.62.18.43-.17-.27-.84-.4-1a8,8,0,0,0-5.45-2.86l2,1.64a8.74,8.74,0,0,1,1.22-4.32c.32-.55.65-1.1.92-1.67a5.23,5.23,0,0,0,.28-1,3.18,3.18,0,0,0,.14-1.3c0-.31-.78-1-1.11-.82a2.8,2.8,0,0,0-.72.81,8,8,0,0,0-.67.75c-.37.56-.77,1.08-1.09,1.67a9.23,9.23,0,0,0-1.16,4.45c0,.39.57.85.83,1.06a2.16,2.16,0,0,0,1.22.57,4.41,4.41,0,0,1,1.08.16l.3.11.17.08c.26.12-.08-.08.12.09l.19.16c-.11-.09-.1-.09,0,0l.62.61,1-.18a6.62,6.62,0,0,0-2.78-1.53c-.8-.24-1.62-.39-2.4-.7-.43-.17-.6.06-.35.44a3.07,3.07,0,0,0,1.41,1.13Z" transform="translate(0 -0.4)"/></g></g></g></svg>