<svg xmlns="http://www.w3.org/2000/svg" viewBox="0 0 184.08 164.32"><defs><style>.cls-1{isolation:isolate;}.cls-2{fill:#824a40;}.cls-3{fill:#e5a870;}.cls-4{fill:#231f20;}.cls-5{fill:#fff;}.cls-6{fill:#e3473d;}.cls-7{fill:#cf473d;}.cls-7,.cls-9{mix-blend-mode:multiply;}.cls-8{fill:#ff7d70;}.cls-9{fill:#deab70;}.cls-10{fill:#ffd9a5;}</style></defs><title>monkey</title><g class="cls-1"><g id="Layer_2" data-name="Layer 2"><g id="Layer_1-2" data-name="Layer 1"><path class="cls-2" d="M25.2,86.79c-1.36.75,2.47-.09,3.14-.43a19.71,19.71,0,0,0,3.15-1.77c-1-1.19-2.48-1.13-4-.21a7.42,7.42,0,0,0,2.11-4.19c-.94.37-1.6.13-2.52.76.34-1.34,2.7-6.43-.07-6.65-2.29-.18-2.78,4.92-3.14,6.11,1.49-6.77-7.29-7.42-2.69,0-1.52-1.42-2.71-3.15-4.41-4.33-4.45,3.8,6,10.06,8.9,10.71"/><path class="cls-3" d="M72.79,126.37c-11.34,5.75-28.62,4.09-39.12-3.23-5.84-4.06-12-9.76-12.47-17.23-.34-5.74,1.26-15.12,3.05-20.34a6,6,0,0,0-4.75-.93,35.3,35.3,0,0,0-3.73,13.61c-1.72,16.79,15,34.22,31.12,36.66a43.92,43.92,0,0,0,14.47-.08c5.41-1,10.27-3.9,15.58-5.23a13.34,13.34,0,0,0-1.61-5.08A8.18,8.18,0,0,1,72.79,126.37Z"/><path class="cls-4" d="M76.47,130.17c-10.85,5.22-23.4,8.53-35.15,4.27s-20.59-15-23-27.09a37.22,37.22,0,0,1-.64-10.53,26.92,26.92,0,0,1,.88-5.2,28.56,28.56,0,0,1,2.79-6s-.36-.08-.41,0a25.74,25.74,0,0,0-3.56,9.84,37.87,37.87,0,0,0,.12,10.31,35,35,0,0,0,8.29,18.07A36.28,36.28,0,0,0,40.86,134.6,36.19,36.19,0,0,0,57,136.29a60,60,0,0,0,19.83-6.09c.07,0-.27-.06-.35,0Z"/><path class="cls-4" d="M24,88.18a41,41,0,0,0-1.32,19.61A24.83,24.83,0,0,0,25,115.52a19.74,19.74,0,0,0,5,5.57c8.54,7.1,20.44,10,31.37,9.08a38.7,38.7,0,0,0,8.6-1.66c2.71-.88,5.78-2.07,7.85-4.09,0,0-.42-.09-.52,0a45,45,0,0,1-6.55,3.46,34.39,34.39,0,0,1-7.85,2,43.73,43.73,0,0,1-17.66-1.38A39.39,39.39,0,0,1,30.74,121a19.42,19.42,0,0,1-4.86-5.44,23.65,23.65,0,0,1-2.24-7.06,42.51,42.51,0,0,1,1.12-20.29s-.7-.15-.75,0Z"/><path class="cls-4" d="M20.75,84a3.81,3.81,0,0,1,2.15,1.16,5,5,0,0,1,.86,1c.13.2.24.4.35.61s.09.22.15.33.06.09.08.14.08.09.18.09.26-.24.3-.3.25-.2.28-.32a.66.66,0,0,0,0-.44A3.07,3.07,0,0,0,24.9,86a4.38,4.38,0,0,0-.37-.58,5.24,5.24,0,0,0-.94-1A3.57,3.57,0,0,0,21,83.66s-.11.11-.14.14-.11.15-.13.15Z"/><path class="cls-4" d="M24.55,86.72c1.33-.74,2.82-1.14,4.15-1.89a6,6,0,0,0,2.86-3.57.12.12,0,0,0,0-.1,6.55,6.55,0,0,0-2.33.33A4.71,4.71,0,0,0,27.4,82.8a2.65,2.65,0,0,0-.38.6c0,.07-.1.24,0,.13s.5-.45.79-.63a3.77,3.77,0,0,1,.83-.41,6.56,6.56,0,0,1,2.2-.32v-.1a1.94,1.94,0,0,1-.68,1.16,7.14,7.14,0,0,1-1.55,1c-1.19.58-2.44,1-3.59,1.68a1.41,1.41,0,0,0-.4.5s-.19.39-.12.35Z"/><path class="cls-4" d="M20.87,83.68a17,17,0,0,1-4.64-7.39l.12.92c2,.46,3.56,2.18,4.61,3.87-.08-.13,0-.72-.14-1-.8-1.46-1.91-4.31.12-5.38,1.34-.71,2.74.39,3.27,1.6.61,1.42.21,3.16-.2,4.58l.17.8c.27-2.09.85-4.48,2.54-5.89A3.46,3.46,0,0,1,28,75.07c.68-.17.73.58.78,1.17a4.81,4.81,0,0,1-.05,1.2,7.85,7.85,0,0,1-1.86,3.77l.17.89a3.59,3.59,0,0,1,1.39-1.94,18.77,18.77,0,0,1,1.81-.86l-.14-.48c.31,1.74-1,2.84-2.16,3.82-.12.1.15.9.16.9,1.93-.85,2.45-2.82,2.11-4.74,0,0-.1-.5-.14-.48a13.2,13.2,0,0,0-1.93.93,3.76,3.76,0,0,0-1.29,2c-.06.18.24.83.18.9a7.68,7.68,0,0,0,1.3-7.93.05.05,0,0,0,0,0c-3,.79-3.94,4.06-4.29,6.77,0,.21.2.71.17.8a10.14,10.14,0,0,0,.31-4.86A4.11,4.11,0,0,0,23,74.21,2.1,2.1,0,0,0,20.81,74a2.62,2.62,0,0,0-1.17,2.29A9.81,9.81,0,0,0,21,81.08l-.14-1c-1-1.72-2.62-3.5-4.66-4a5.82,5.82,0,0,0,.12.92,13.48,13.48,0,0,0,4.63,6.87s0-.2,0-.25Z"/><path class="cls-3" d="M176.84,4.12c-13.51-10.69-40.07,2.74-42.75,18.72-4.43,1.54-13.83-3.45-18.62-4.48-6.9-1.48-14-3.38-21.36-3C79.55,16.07,66,19.6,54.63,29.44,50.94,20.5,37.71,16.66,29.21,16.66c-15.3,0-30.54,11.42-27.23,28,3.5,17.53,18.79,21.65,33.45,16v.89a14.71,14.71,0,0,1,0,4c-1.33,14,2,26.74,7.22,39.57a45.61,45.61,0,0,0,11.9,16.36c6.81,6,13.43,6,21.72,6,.55,3.37.42,5.42-.94,7a13.29,13.29,0,0,1,1.61,5.07l.2-.06c-.29.07,3.83,11.91,4.5,13,3.71,5.92,7.57,4.9,13.82,5.2,7,.34,14,1.27,20.9,0,6.27-1.19,14.15-.07,16-7.12,1.2-4.61,1.9-16.31-1.35-20,1.44-1.41,2.78-1,4.5-1.76,5.81-2.54,11.16-8.45,14.22-13.78,1.66-2.89,4.72-5.75,5.8-8.89s1.33-7.3,2.21-10.71c3.76-14.56.41-27.64-1.28-42.15A32.78,32.78,0,0,0,168.85,46C178.63,37,190.44,14.88,176.84,4.12Z"/><path class="cls-5" d="M74.12,115.85c-5.29,1.22-14.92-1.89-20-3.89-6.18-2.44-11.06-8-14.57-13.47C33,88.29,32.59,67.86,36.3,56.24c4-12.42,12.09-24.69,24.92-29,11-3.67,27.32.17,33.37,11.08,3.48-6,6.34-11.56,13.77-14a46.93,46.93,0,0,1,21.34-1.43c15.68,2.31,22.18,15.48,26.7,28.89,5.42,16.11,3.84,33.28-5.85,47.43-3.23,4.72-7.17,7.76-11.35,11.47-2.58,2.29-2.44,2-2.31,5.59.09,2.35.73,3.14-1,5.34-2.4,3.1-7.14,5.12-10.67,6.22-9.77,3.06-20.19,4.78-30.21,3.36-10.62-1.52-27.46-1.54-20.93-16.7"/><path class="cls-2" d="M37.21,54.48c-12.63,6-21.06-14.64-7.11-18.66,6.07-1.75,11,1.14,12.32,7.55,1.1,5.17-4.25,8.32-5.65,13.34"/><path class="cls-2" d="M141.71,29.14c-4.55-2.5,8.45-7.25,10.67-7.46,6.79-.65,8,5.33,6.13,10.57A16.15,16.15,0,0,1,154,38.81c-2.86,2.7-3.18,2.73-5.77.57-3.27-2.74-5.72-7.64-7.89-11.13"/><path class="cls-6" d="M89.34,104.73c2.86,7.64,15.89,6.41,21.88,4.5,3.59-1.15,8-3.16,9.52-6.78s.88-10.2-3.18-11.56c-3-1-9.42.59-12.75.89C97.74,92.42,85.66,94.94,89.34,104.73Z"/><path class="cls-5" d="M111.82,136.42c11.89,7.05,8.81,27.71-6.13,27.9-13.34.17-20.81-12.81-12.77-24.36C97.5,133.37,105.24,132.52,111.82,136.42Z"/><path class="cls-2" d="M142.28,132.41c-2.2,2.11-4.27,6.93-1.9,9.67,3.05,3.54,5.23-.17,7.68-1.21,1.66-.7,3.05-.78,4-.21,1.21-2.6,2.36-5.26,3.66-7.77A9,9,0,0,0,142.28,132.41Z"/><path class="cls-3" d="M158.15,137.22a11,11,0,0,0-2.39-4.33c-1.3,2.51-2.45,5.17-3.66,7.77,1.19.69,1.81,2.32,1.61,5-.26,3.59-3.09,6.8-6.11,9-5.75,4.21-13.87,5.16-18.79.78l-4-.45c5.88,7.33,17,5.88,24.56,1.89C158.4,152.1,161,147.12,158.15,137.22Z"/><path class="cls-7" d="M114.19,108.4c4.93-2.42,12-9.8,7.43-15.48-1-1.19-4.51-3.49-5.82-1.53-1.13,1.69,1.42,3.71,1.71,5.27.63,3.3-1.6,5-4,6.61-4.68,3.17-9.8,4.85-15.38,4-1.48-.22-7.11-2.46-7.35,0-.17,1.87,5,2.74,6.25,2.91C102.14,111,109.83,110.55,114.19,108.4Z"/><path class="cls-8" d="M104.47,94.37a11.34,11.34,0,0,0-2.79-.2,10.2,10.2,0,0,0-2.33.44,5.46,5.46,0,0,0-2,1A1.91,1.91,0,0,0,97,96c-.2.3.09.57.29.8a2.3,2.3,0,0,0,1.87.75l-.45-.09a1.85,1.85,0,0,0,1,.13,2.22,2.22,0,0,0,.43-.23l.81-.49a7.09,7.09,0,0,1,1.7-.73,12.24,12.24,0,0,1,1.78-.37l.82-.15a3.2,3.2,0,0,0,.66-.22c.25-.09-.25-.44-.3-.48a3.15,3.15,0,0,0-1.16-.5Z"/><path class="cls-8" d="M93.26,98.18c.59-.07,1.16.12.82.08l-.2,0h-.15l.35.05c.15,0,.14,0,0,0a2.66,2.66,0,0,0-.39-.07,2,2,0,0,0-.42,0l-.13,0a1.5,1.5,0,0,0-.36.11,1,1,0,0,0-.41.36,2,2,0,0,0-.1.21.8.8,0,0,0,0,.27,2.64,2.64,0,0,0,0,.28.93.93,0,0,0,0,.24.62.62,0,0,0,.18.18,2.68,2.68,0,0,0,.57.32l-.44-.3a3.24,3.24,0,0,0,.38.36,2.13,2.13,0,0,0,.79.34,2.57,2.57,0,0,0,.4.07.62.62,0,0,0,.33,0,.49.49,0,0,0,.17-.15l0,.06c.08,0,.35-.06.35-.21a.69.69,0,0,1,0-.13,1.22,1.22,0,0,1,0-.27,1.77,1.77,0,0,0,0-.23,1.62,1.62,0,0,1,0-.22c0-.07,0-.13,0-.19s0-.11,0-.16a.77.77,0,0,1,.12-.26l0-.08a.4.4,0,0,0-.15-.14,2.19,2.19,0,0,0-.51-.25,3.47,3.47,0,0,0-.55-.16,2,2,0,0,0-.65-.06Z"/><path class="cls-7" d="M112.37,102.94c2.14-1.68.76-9.85-1.54-5.89C110.33,97.91,110.91,104.09,112.37,102.94Z"/><path class="cls-7" d="M101.39,100.33c-1.39,1.79,1.56,7,3.56,4.62C106.1,103.55,103.58,97.52,101.39,100.33Z"/><path class="cls-9" d="M131.68,131.37c2.84-2.92,6.39-5,9.45-7.68.41-.36,7.57-8,6.32-8.29-3.47-.94-8.09,5-10.63,6.85-3.56,2.55-7.67,3.61-11.56,5.6-5.33,2.74-8,2.74-13.62,4,8,.36,10.67,1.57,12.43,9.88.63,3-2.8,15.92,1.49,16s7.26-10.44,6.3-12.83a22.37,22.37,0,0,1-1.56-8C130.14,133.78,129.54,133.56,131.68,131.37Z"/><path class="cls-9" d="M177.59,37.48c3.93-7,7.92-15.56,6-23.8C182.27,8.07,177-.23,170.33,2.62c10,5.05,8.23,18.16,3.89,26A46,46,0,0,1,165.54,40c-4.54,4.3-7.19,5.06-13.23,4,1.51,2.52,1.29,7.94,3.88,9.56,2.16,1.35,6-1.55,7.77-2.67C169.6,47.46,174.4,43.2,177.59,37.48Z"/><path class="cls-9" d="M38.45,48.74c-.9,7.53-11.92,11.15-18.66,11C10.11,59.48,7.5,51.47,0,47.42.17,55.08,12.73,61.8,19.06,63.37c4.34,1.08,22.13-.86,18.32-9.09a6.26,6.26,0,0,0-1.86.32"/><path class="cls-10" d="M31.86,21.36c-.57-2-4.62-1.53-6.19-1.38a26.53,26.53,0,0,0-7.5,1.81,22.14,22.14,0,0,0-6.43,3.9C10,27.27,8,29.76,7.6,32.17c-.06.37.05.44.31.14a25.28,25.28,0,0,1,3.72-3.88,24.24,24.24,0,0,1,6.2-3.28,29,29,0,0,1,6.85-1.7A28.41,28.41,0,0,1,28,23.27a5.86,5.86,0,0,0,3.22-.53,1.82,1.82,0,0,0,.64-1.38Z"/><path class="cls-10" d="M7.24,38.39a.54.54,0,0,0-.39-.1l.05,0v0l-.06,0a2.2,2.2,0,0,0-.92.48,4.15,4.15,0,0,0-.73.66l.34-.32a2.27,2.27,0,0,0-.52.55c0,.08-.09.17-.13.25a2.67,2.67,0,0,0-.14.36c0,.15-.08.3-.12.45a1.25,1.25,0,0,0,0,.47.41.41,0,0,0,0,.19.56.56,0,0,0,.2.14.52.52,0,0,0,.31-.1A3,3,0,0,0,5.78,41L6,40.85s.13-.12.13-.16-.15.19,0,.05a.82.82,0,0,0,.12-.2c.06-.12.12-.23.17-.35a1.87,1.87,0,0,0,.08-.32,2.24,2.24,0,0,0,.11-.5,2.68,2.68,0,0,1,.19-.79l-.05.11,0,0a.19.19,0,0,0,0-.19v0l0,.1,0-.05s-.08.11-.07.1h0a2.23,2.23,0,0,1-.27.26,3.91,3.91,0,0,1-.41.3l-.05,0a3.51,3.51,0,0,0,.4-.27l-.63.36h.06s-.09,0,0,0h.1l.21.05c.08,0,.31-.1.35-.13a3.07,3.07,0,0,0,.42-.28s.55-.48.44-.55Z"/><path class="cls-10" d="M149.26,10.64a8.62,8.62,0,0,1,.35-1.3c.08-.38-.08.12-.14.25.12-.26-.2.17,0,0a6.66,6.66,0,0,1,1.58-.9,16.86,16.86,0,0,1,5.75-1A43.48,43.48,0,0,1,169.33,9a5.06,5.06,0,0,0,2.15.19A2.57,2.57,0,0,0,173,6.52c-.31-1.51-2.78-1.73-4-2a38.52,38.52,0,0,0-13-.44,10,10,0,0,0-5.58,2.34,7.58,7.58,0,0,0-1.94,3.1,3.31,3.31,0,0,0-.26,1.19c0,.45.3.46.42.78s.57-.74.57-.89Z"/><path class="cls-4" d="M67.36,84.65A3.22,3.22,0,1,1,64.5,81.1,3.23,3.23,0,0,1,67.36,84.65Z"/><path class="cls-4" d="M139.89,74.52A3.22,3.22,0,1,1,137,71,3.23,3.23,0,0,1,139.89,74.52Z"/><path class="cls-4" d="M82.53,127.37A39.42,39.42,0,0,1,50.71,116.2c-8-7.9-13.26-19.11-15.25-30.11A58.84,58.84,0,0,1,55.84,30.16,68.24,68.24,0,0,1,87.21,15.62,66.65,66.65,0,0,1,120,17.79,57.9,57.9,0,0,1,147,36c7.42,9.23,10.58,20.73,11.55,32.35,1,11.36-.23,23.1-4.66,33.68a51.2,51.2,0,0,1-22.51,25.1,38.6,38.6,0,0,1-9.76,4.11c.12,0,.57,1.07.8,1,6.84-1,13.26-5,18.49-9.4a49.86,49.86,0,0,0,11.18-13.48c5.89-10.36,8.09-22.46,7.82-34.28s-2.6-23.61-8.91-33.69A59.5,59.5,0,0,0,127.68,20a65.19,65.19,0,0,0-33.16-6.87A68.4,68.4,0,0,0,60.27,24.76a60.74,60.74,0,0,0-21.36,25.4A60,60,0,0,0,34.2,81.64a61.83,61.83,0,0,0,12.18,29.74c6.63,8.74,15.71,15.09,26.81,16.31a48.32,48.32,0,0,0,9.62,0c-.06,0-.18-.36-.28-.35Z"/><path class="cls-4" d="M75.91,130.4c-1.37,4.52-1,9.51-.22,14.11a46.6,46.6,0,0,0,2,7.51c.69,1.94,1.47,4.61,3.17,5.91.14.11.4-.77.36-.89-.73-2.1-1.87-4-2.65-6.12a48.16,48.16,0,0,1-2-7.15c-.88-4.32-1.46-9.15-.35-13.48.12-.46-.15-.13-.23.11Z"/><path class="cls-4" d="M126.73,128.63c1.24,4.32,1.19,9,.92,13.44a60.85,60.85,0,0,1-.83,7c-.38,2.07-1,4.1-1.31,6.18,0,.15.41.81.56.64,1.31-1.43,1.7-3.64,2-5.48a49.75,49.75,0,0,0,.68-7.71A44.79,44.79,0,0,0,127.31,129c-.06-.19-.7-.81-.58-.37Z"/><path class="cls-4" d="M90.92,153.14c-2.33-6.62-.18-13.75,6.17-17.12a13.79,13.79,0,0,1,17.38,3.29c3.09,3.9,3.44,8.58,3.76,13.34,0,.07.67.09.68,0,1.52-8-2.78-16.55-11-18.29-6.25-1.31-13.89.62-17.29,6.43-2.25,3.84-1.82,8.31-.25,12.33,0,.11.59,0,.59,0Z"/><path class="cls-4" d="M47.3,38.91c5.24-4.48,11.15-9.75,18.08-11.27,5.52-1.22,10.61.94,15.28,3.74,3.85,2.3,7.37,5.1,11.2,7.42,0,0-.17-.55-.32-.67A101.51,101.51,0,0,0,81.15,31a34.89,34.89,0,0,0-8.09-3.9c-5.3-1.58-10.19-.07-14.73,2.82A86.92,86.92,0,0,0,47.19,38.7s.11.21.11.21Z"/><path class="cls-4" d="M95.2,37.05c1.87-6.85,8-11.31,14.45-13.49a30.14,30.14,0,0,1,22.51,1.05,22.46,22.46,0,0,1,4.78,3.12A57,57,0,0,1,141,32c.07.08.77-.07.77-.05-.44-1.73-1.9-3.21-3.18-4.38a20.38,20.38,0,0,0-4.76-3.12,29.17,29.17,0,0,0-11.09-2.71c-7.31-.41-15.25,1-21.21,5.48a17.51,17.51,0,0,0-6.69,9.83s.33,0,.35,0Z"/><path class="cls-4" d="M34.44,59.61C28.29,64.28,19.49,64,12.73,60.94a20.3,20.3,0,0,1-8.76-7c-2.17-3.34-2.51-7.4-2.42-11.29.14-6.71,2.54-13.25,7.58-17.82a26.42,26.42,0,0,1,16.49-6.47,30.29,30.29,0,0,1,19.3,5.77c.31.22-.09-.41-.17-.48-9.61-8.58-25.9-9.09-35.83-.81C3.4,27.42.71,34.3.55,41.37c-.09,3.86.27,7.85,2.16,11.28a21.6,21.6,0,0,0,7.41,7.64c7.4,4.65,17.6,5.48,24.59-.33.07-.05-.21-.4-.27-.35Z"/><path class="cls-4" d="M135.56,24.53c.47-7.71,6.37-13.94,12.55-17.92,5.52-3.56,12.57-6.23,19.12-4.34a26.1,26.1,0,0,1,10,5.2A15.6,15.6,0,0,1,182.05,16c1.33,6-.29,12.35-3.35,17.57a33.49,33.49,0,0,1-16.77,14s.38.71.49.68c12.79-3.07,23.2-17.92,20.49-31C181.64,11,177,5.65,171.51,2.8,168.4,1.2,164.8-.13,161.25,0A26,26,0,0,0,150.9,2.94C142.75,7,135.49,14.62,135.3,24.17c0,.12.27.26.26.36Z"/><path class="cls-4" d="M38.28,94.87c5.32,11.64,17.16,18.45,29.42,20.48a38.54,38.54,0,0,0,8.77.59c-.18,0-.41-.25-.61-.26A63.91,63.91,0,0,1,61,113.59a35.77,35.77,0,0,1-15.73-9.49A44.89,44.89,0,0,1,38.65,95c0-.09-.33-.08-.37-.16Z"/><path class="cls-4" d="M74.41,114.09c-2,2-3.56,4.51-3.47,7.41a7.6,7.6,0,0,0,4,6.49c.14.07,1.15,0,1-.18a32.81,32.81,0,0,1-2.32-3,8.62,8.62,0,0,1-1.19-3.51,9.55,9.55,0,0,1,2.52-7.23c.06-.07-.4-.12-.5,0Z"/><path class="cls-4" d="M157.8,75.41c.34,7-2.91,14.36-6.34,20.34a60.22,60.22,0,0,1-6.58,9.34,61.69,61.69,0,0,1-8.11,7.39c-.26.22.24,1.67.29,1.64a26.74,26.74,0,0,0,6.46-5.64,62,62,0,0,0,5.68-7.24,53.61,53.61,0,0,0,7.88-17.32,27.72,27.72,0,0,0,.77-8.41s0-.23,0-.1Z"/><path class="cls-4" d="M135.86,112.6a9.48,9.48,0,0,1,1,7.55,12.61,12.61,0,0,1-4.37,6c-.13.11.1,0,.14,0a1.92,1.92,0,0,0,.54-.26,11.9,11.9,0,0,0,4.92-5.92,7.4,7.4,0,0,0,.37-3.7,8.35,8.35,0,0,0-2-3.94c-.06-.07-.63.27-.61.3Z"/><path class="cls-4" d="M125.41,153.79c5.89,6.78,16.06,7.36,24,4.1a19,19,0,0,0,9.5-7.8,13.33,13.33,0,0,0,.45-11.78,15,15,0,0,0-8-8.33c-3.65-1.54-8.45-1.55-10.52,2.4-1.52,2.88-1.95,7.38.22,10,1.46,1.81,3.65,1.24,5.44.21,1.49-.84,3.86-2.49,4.17-4.33a2.3,2.3,0,0,0-1.05-2.05c-.8-.51-2.06-.1-2.88.14a15.92,15.92,0,0,0-2.79,1.19c-.06,0,.44.92.6.87a20,20,0,0,1,4.54-1.21c.36,0,.72.1,1.06.08,0,0,.15.1.18.09s-.39-.88-.5-.74,0,.32,0,.42a9.06,9.06,0,0,1-3.42,3.79c-1.52,1-3.36,1.86-5.15,1.16-.21-.08-.5-.5-.27-.09a2.7,2.7,0,0,1-.18-.5,7.41,7.41,0,0,1-.23-2.3,12,12,0,0,1,1.36-5.93c1.94-3.26,5.93-3.57,9.23-2.47a14.33,14.33,0,0,1,5,2.94,12.11,12.11,0,0,1,3.25,5.71c2.27,7.77-3.06,14.25-9.89,17.24-7.5,3.27-18.2,3.54-24.15-2.94-.05,0,0,.08,0,.09Z"/><path class="cls-4" d="M148.79,139.25c2.08.92,4.68,2.28,5.64,4.48.83,1.9.08,3.93-1.06,5.52-3.29,4.6-9.45,7.24-14.81,8.38a26,26,0,0,1-10,.19c-.12,0-.46.32-.45.32,2.78,1.23,5.8,1,8.72.48a33.16,33.16,0,0,0,9.45-3.38,25.85,25.85,0,0,0,7.13-5.32c1.36-1.52,2.64-3.51,2.37-5.64-.4-3.24-3.93-4.59-6.66-5.27-.09,0-.34.24-.34.24Z"/><path class="cls-4" d="M92.45,97.23c4-3.43,9.74-5.2,14.81-6,4.7-.74,11.33-.71,13.12,4.75C124,107,107.5,110.63,99.85,109.36a10.19,10.19,0,0,1-6.33-3.2c-1.67-2-1.89-4.74-1.57-7.25,0-.16-.72-.35-.77-.2a7.23,7.23,0,0,0,.63,6.91,10.78,10.78,0,0,0,5.73,3.65,25.8,25.8,0,0,0,16.19-.81,16.17,16.17,0,0,0,6.37-4A8,8,0,0,0,122,97.69c-.82-5.79-7-7.43-12-7.31a30.62,30.62,0,0,0-10.17,2.06,19.08,19.08,0,0,0-7.59,4.73s.14.09.17.06Z"/><path class="cls-4" d="M100,99.18a11.31,11.31,0,0,0,.46,1.27c.18.36.37.72.58,1.07s.41.64.63,1q.18.24.33.48a1.31,1.31,0,0,0,.19.27c.11.08.29,0,.4,0a1,1,0,0,0,.54-.56,1.4,1.4,0,0,0,.11-.49.89.89,0,0,0-.11-.35c-.08-.18-.17-.37-.27-.55a7.28,7.28,0,0,0-.63-1c-.22-.3-.45-.59-.68-.88s-.25-.28-.38-.43l-.42-.53c-.15-.2-.82.56-.75.78Z"/><path class="cls-4" d="M111.41,95.59A4.1,4.1,0,0,0,110,98.31a2.45,2.45,0,0,0,.47,1.35,3,3,0,0,0,.59.6,1.32,1.32,0,0,0,.42.29,3.72,3.72,0,0,0,.64.22.88.88,0,0,0,.61-.22c.09-.07.39-.29.3-.44a2.79,2.79,0,0,0-.56-.72,8,8,0,0,1-.56-.6,3,3,0,0,1-.63-1.09,1.72,1.72,0,0,1,0-1,2.69,2.69,0,0,1,.73-1.09c.1-.1.23-.29,0-.32a1,1,0,0,0-.63.33Z"/><path class="cls-4" d="M106.81,108.37a16.67,16.67,0,0,0,.44,4.1c.15.66.32,1.32.52,2,.09.32.2.63.3,1a3.46,3.46,0,0,0,.36.89c.09.13.13-.33.13-.33a3.2,3.2,0,0,0,0-.87c0,.57.06.68,0,.32a2,2,0,0,0,0-.24,5.05,5.05,0,0,0-.12-.56c-.08-.29-.18-.57-.27-.86-.19-.6-.38-1.2-.56-1.81a14.55,14.55,0,0,1-.63-3.46s0-.43-.07-.42-.07.25-.07.31Z"/><path class="cls-4" d="M102.23,116.85c4.58,2,9.9,1.46,14.41-.42a27.94,27.94,0,0,0,6.17-3.53c2-1.54,4.27-3.39,5.33-5.75.08-.18-.44-.65-.61-.55-2,1.19-3.71,3-5.6,4.43a33.38,33.38,0,0,1-6.32,3.83,23,23,0,0,1-6.7,1.86,24.84,24.84,0,0,1-7.14-.51c-.32-.06.35.59.46.64Z"/><path class="cls-4" d="M40.77,39A16.16,16.16,0,0,0,37,35.06a10.62,10.62,0,0,0-4-1.74A9.47,9.47,0,0,0,26,34.83,12,12,0,0,0,21.28,48a10.22,10.22,0,0,0,2.16,3.89A9.72,9.72,0,0,0,27.92,55s.06-.86-.08-1a29.77,29.77,0,0,1-4-2.9A10.12,10.12,0,0,1,21.7,48a8.5,8.5,0,0,1,.12-6.81c1.74-4.27,6.1-7.64,10.87-7,3.25.42,6.12,2.67,8.09,5.19,0,0,0-.3,0-.38Z"/><path class="cls-4" d="M140.9,28c2.78-4.66,8.35-8.07,13.89-6.87a7.44,7.44,0,0,1,4.94,3.27,8,8,0,0,1,.32,6.86,16.46,16.46,0,0,1-2.83,4.7,32.41,32.41,0,0,1-2.41,2.56c-1,1-2.14,1.84-3.1,2.84-.13.13.45.55.59.47a19.35,19.35,0,0,0,3.14-2.33A23.13,23.13,0,0,0,157.91,37a17.56,17.56,0,0,0,3-4.52,8.61,8.61,0,0,0,.08-7.34c-2.36-4.57-8.32-6-12.93-4.41a13.66,13.66,0,0,0-7.45,7c0,.09.28.31.33.23Z"/><path class="cls-4" d="M131,130.23a27.58,27.58,0,0,1,2.3,13.17c-.36,4.68-2,8.68-4.14,12.79-.05.1-.22.89-.05.69a17.34,17.34,0,0,0,3-5.87,33.58,33.58,0,0,0,1.65-7.35c.5-4.66.14-9.93-2.62-13.88,0-.07-.2.35-.16.45Z"/><path class="cls-4" d="M153,139.32a10.71,10.71,0,0,1,.94-2.39,21.31,21.31,0,0,0,1.13-2l-.42,0c-.09,0-.34,0-.41.09a10.81,10.81,0,0,0-2.37,4.47l.57-.07c.07,0,.54-.05.56-.12Z"/></g></g></g></svg>