<svg xmlns="http://www.w3.org/2000/svg" viewBox="0 0 159.33 164.19"><defs><style>.cls-1{isolation:isolate;}.cls-2{fill:#d4d6c7;}.cls-3,.cls-5{fill:#ffd6c2;}.cls-4{fill:#d4cfc7;}.cls-4,.cls-5{mix-blend-mode:multiply;}.cls-6{fill:#f5f5e8;}.cls-7{fill:#231f20;}</style></defs><title>mouse</title><g class="cls-1"><g id="Layer_2" data-name="Layer 2"><g id="Layer_1-2" data-name="Layer 1"><path class="cls-2" d="M68.23,143.25c-2.67,1.12-5.37,2.18-8.14,3.17-1.21,4.11-3,10.31-.19,13.33,1.23,1.33,5.33,2.09,9,2.7A44.35,44.35,0,0,1,68.23,143.25Z" transform="translate(0 -0.71)"/><path class="cls-3" d="M104.44,122.41a174.2,174.2,0,0,1-36.21,20.84,44.35,44.35,0,0,0,.69,19.2c2.34.38,4.53.7,5.71,1.05,9.75,3,20,.89,29.54-3.08C108.05,148,108.81,134.44,104.44,122.41Z" transform="translate(0 -0.71)"/><path class="cls-4" d="M63.45,139.8c-5.63,2,.68,4.84,4.81,5.83a62.05,62.05,0,0,1,2.17-9.71Z" transform="translate(0 -0.71)"/><path class="cls-4" d="M115.24,121.4c-.76-2.48-2-7-4.84-7.73l-6.11,3.4a81,81,0,0,1,2.48,29.38c.1.35.19.72.27,1.1.57,2.84-1.34,11.37,3.87,10.68,3.7-.48,4.51-8.13,4.81-10.71C116.67,139.06,117.77,129.66,115.24,121.4Z" transform="translate(0 -0.71)"/><path class="cls-5" d="M104.29,117.07,70.43,135.92a62.05,62.05,0,0,0-2.17,9.71,10.68,10.68,0,0,0,2.45.36c5.05-.18,10.69-2,15.49-3.77,7.35-2.75,17.89-5.28,20.57,4.23A81,81,0,0,0,104.29,117.07Z" transform="translate(0 -0.71)"/><path class="cls-2" d="M117,133.12c-.53-5.36-4.06-11.25-3.36-16.61a8.89,8.89,0,0,1,.36-1.57q-4.69,3.87-9.56,7.47c4.37,12,3.61,25.6-.27,38,1.65-.68,3.27-1.41,4.88-2.19C119.56,153.13,118.08,143.9,117,133.12Z" transform="translate(0 -0.71)"/><path class="cls-2" d="M138.77,37.14a28.16,28.16,0,0,0-16,5.13c-10,7-8.15,1-15.84-5.2-5.18-4.22-12.26-6.1-18.58-7.8-6.93-1.86-14.71-1.31-17.46-8.9S70.22,6.59,60.75,2.88a21.11,21.11,0,0,0-20.55,3C34.8,10,28.82,19,29.63,26.2s8.26,9.35,12,14.78c4.21,6.19-4.13,10.22-8.8,15.88C16.46,76.64,8.91,98.66,11.12,124.48c1.05,12.25,5.55,22.06,18.53,23.31,11.29,1.09,20.58-2.46,31-3.35-.15.57-.35,1.24-.57,2,20.17-7.18,37.71-18.09,53.91-31.48,1.16-3.85,4.51-7.85,6.15-11.1,3.55-7,7.6-18.24,13.89-23.21,8.22-6.48,23.52-7.4,25.15-20.84C160.67,47.53,150.21,37,138.77,37.14Z" transform="translate(0 -0.71)"/><path class="cls-3" d="M51.16,24.59c3.9-2.19,11.89,2.18,10.68,7.22-.86,3.53-10,5.42-12.44,2.41C47.39,31.71,48.38,26.16,51.16,24.59Z" transform="translate(0 -0.71)"/><path class="cls-3" d="M129.59,56.5c-10.42-.77-5.55,12.64,1.17,14,7.88,1.56,5.33-17.57-1.56-14.75" transform="translate(0 -0.71)"/><path class="cls-5" d="M126.64,68.46c4.41,2.94,7.62,1.31,9.16-1.94a15,15,0,0,1-11.55-6.14c-.67-.84-1.33-1.83-2-2.65C122.18,62.12,123.46,66.87,126.64,68.46Z" transform="translate(0 -0.71)"/><path class="cls-4" d="M157.91,54.56c-.37-2.36-3-5.27-2.34-7.29a2.21,2.21,0,0,0-.92-.09c-3.82,6.76-5,14.62-13,18.13a13.9,13.9,0,0,1-5.83,1.21c-1.54,3.25-4.75,4.88-9.16,1.94-3.18-1.59-4.46-6.34-4.35-10.73-1.46-1.92-2.71-2.92-3.17,1.1-.52,4.53.82,9.21-.29,13.88-2.4,10.18-7.72,18.94-13,27.74-9.13,15.2-27.46,23.83-43.24,30.9A99.35,99.35,0,0,1,42,138c-3,.62-6.46.51-9.32,1.54-4.39,1.6-2.89,3.32,1.13,4.28,23.46,5.63,55.62-5.68,71.77-22.89,10.8-11.51,19.71-23.58,26.28-37.94,2.07-4.52,2.63-4.32,7.06-4.76a19.35,19.35,0,0,0,10.9-4.93C154.57,69,159,61.15,157.91,54.56Z" transform="translate(0 -0.71)"/><path class="cls-3" d="M33.41,148.79A10.19,10.19,0,0,1,30,150.23c-10.14,2.27-18-14.28-8.62-20C33,123.22,42.53,142.66,33.41,148.79Z" transform="translate(0 -0.71)"/><path class="cls-5" d="M33.4,131.75c.44,4.14-1.48,8.89-5.79,10.1-4.54,1.28-7.26-4.17-11.21-3.84-1,8.54,7.42,15.37,15.05,11.19,3.68-2,5.22-4.51,5.06-8.92-.1-2.45-1.34-9.1-3.5-9.31" transform="translate(0 -0.71)"/><path class="cls-4" d="M65.59,6.08C66,10.89,68.15,14.93,66.66,20c-1,3.33-4.11,8.54-7.24,10.29,3.46,2.59,10.84,2,13.06-2.16,2.36-4.42-3.34-10.15-4.56-14.25" transform="translate(0 -0.71)"/><path class="cls-4" d="M30.3,30.9c1.5,1.9,6.08,5.32,8.63,5.76,3.69.63,4.86-3.06,8-3.37,1.08,3.75,3,9-2.65,9.64-4.28.48-9.51-6.21-11.63-9.31" transform="translate(0 -0.71)"/><path class="cls-6" d="M53.3,3.46a22.1,22.1,0,0,0-3.13-.38,8.35,8.35,0,0,0-2.94.76,15.6,15.6,0,0,0-5.11,3.53,20.72,20.72,0,0,0-3.68,5.35,16.52,16.52,0,0,0-1.88,7c0,.08,0,1.39.24,1.3s.34-.61.42-.86c.14-.46.29-.91.46-1.37a27.77,27.77,0,0,1,1.16-2.7A22.78,22.78,0,0,1,42.42,11a18.32,18.32,0,0,1,4.94-3.9,26.51,26.51,0,0,1,2.75-1.14,8.75,8.75,0,0,1,3.16-.86c.24,0,.29-1.59,0-1.62Z" transform="translate(0 -0.71)"/><path class="cls-6" d="M34.69,22.56A3.56,3.56,0,0,0,34,24.2a2,2,0,0,0,.07.76,2.9,2.9,0,0,0,.56,1,5.22,5.22,0,0,0,.77.72c.14.12.28.24.43.35s.2.18.24.15,0-.1,0-.2,0-.18,0-.29a7,7,0,0,1-.12-.8,11.68,11.68,0,0,1,.07-2.13s-.17-.2-.18-.21-.31-.29-.47-.43a5.86,5.86,0,0,0-.72-.54Z" transform="translate(0 -0.71)"/><path class="cls-6" d="M78.27,37.9c-1,0-2.07-.39-3.12-.48a20.84,20.84,0,0,0-3.06,0,30.2,30.2,0,0,0-5.65,1,49.24,49.24,0,0,0-11,4.6,53.29,53.29,0,0,0-9.68,6.85c-3.07,2.73-6,5.69-7.37,9.65a15,15,0,0,0,.66,2.63A14.11,14.11,0,0,0,43,58.7a48.94,48.94,0,0,1,4-4,61.16,61.16,0,0,1,9.65-7A62.72,62.72,0,0,1,67.53,42.8c1.8-.64,3.64-1.15,5.47-1.7,1-.29,1.93-.52,2.87-.83a14.2,14.2,0,0,1,2.77-.89s-.21-1.48-.37-1.48Z" transform="translate(0 -0.71)"/><path class="cls-6" d="M87.31,37.23c1.1.17,2.2.24,3.3.36q.67.07,1.35.18l.17,0h0a2.66,2.66,0,0,0,.39.07c.15,0,.39.06.48-.1s-.46-.62-.57-.7A7,7,0,0,0,88.73,36a9.67,9.67,0,0,0-2.79.23c-.28.08.26.51.31.54a2.49,2.49,0,0,0,1.06.51Z" transform="translate(0 -0.71)"/><path class="cls-7" d="M15.43,135.87c-6.75-14.48-6-30.84-1-45.75,4.79-14.5,13.08-27.88,23-39.43A114.15,114.15,0,0,1,51.71,36.62c.27-.22.06-.22-.15-.07a84,84,0,0,0-12.88,12A130.19,130.19,0,0,0,25.43,66C17.07,79.18,10.54,94.41,10,110.18a53.8,53.8,0,0,0,5.36,25.75s.09,0,.08-.06Z" transform="translate(0 -0.71)"/><path class="cls-7" d="M66.88,32.07c16.21-8.54,37.05.17,48,13.38a31.47,31.47,0,0,1,6.32,11.78c.09.34,1.16,1.6,1,.8-2-8.27-8.07-15.42-14.68-20.5-7.33-5.64-16.5-9.62-25.86-9.61A30.27,30.27,0,0,0,66.7,31.8c-.06,0,.11.31.18.27Z" transform="translate(0 -0.71)"/><path class="cls-7" d="M44.06,41.33c-6.31-1.81-12.5-5.26-14.87-11.73-1.83-5-.59-10.52,2-15A27.79,27.79,0,0,1,43.54,3.32a21.84,21.84,0,0,1,8.13-2,12.71,12.71,0,0,1,7.2,1.91,24.73,24.73,0,0,1,8.42,8.38,45.11,45.11,0,0,1,3.44,6.75c.59,1.37,1.18,2.73,1.69,4.13a36.9,36.9,0,0,0,1.83,4.68,3.49,3.49,0,0,0,1.43.24c.16-2.65-1-5.67-1.93-8.15a37,37,0,0,0-3.21-6.53A26.64,26.64,0,0,0,63,4.43a23.16,23.16,0,0,0-18.45-3A27,27,0,0,0,30.16,11.54C26.87,16,24.75,21.75,26,27.31,27.49,34,33.67,38,39.69,40.24c1,.37,2.06.7,3.11,1a3.3,3.3,0,0,0,1.24.21c.23,0,.38,0,0-.11Z" transform="translate(0 -0.71)"/><path class="cls-7" d="M49.39,33.63a6.68,6.68,0,0,1-3-4.69,3.38,3.38,0,0,1,0-.45,1.62,1.62,0,0,1,0-.18s0-.32,0-.19a3.19,3.19,0,0,1,.26-.9,7.22,7.22,0,0,1,1.32-2c2.38-2.65,6.47-3.67,9.51-1.52A9.27,9.27,0,0,1,60,26.5a13.7,13.7,0,0,1,1.08,2.21c.32.81.53,1.7.9,2.49,0,.13.28-.63.27-.74-.6-4.64-4.29-10.18-9.58-9.26a8.53,8.53,0,0,0-6.85,8.16,6.34,6.34,0,0,0,3.3,5.55c.11.07.54-1.08.25-1.28Z" transform="translate(0 -0.71)"/><path class="cls-7" d="M117.09,54.14c1.58-12.45,15.16-16.87,26-14.38a20.76,20.76,0,0,1,13.36,9.14,15,15,0,0,1,2,10.43,19.48,19.48,0,0,1-5.17,9.48,29.74,29.74,0,0,1-9.74,6.82,23.41,23.41,0,0,1-5.79,1.67c-1.83.27-3.7.24-5.5.57-.36.06-.49,1.42-.19,1.58,3.09,1.72,7.45.42,10.51-.8a27.49,27.49,0,0,0,10-6.84c5.09-5.45,8.17-13.26,6-20.67-3.67-12.33-19.39-16.31-30.27-11.69A18.32,18.32,0,0,0,117,54.12c0,.29.1.32.14,0Z" transform="translate(0 -0.71)"/><path class="cls-7" d="M120.72,59.91c2.21-2.12,5.31-4.46,8.58-3.83,2.58.5,3.92,2.88,4.4,5.29a14.35,14.35,0,0,1,.2,2.93c0,.5,0,1,0,1.49a2.71,2.71,0,0,0,.07,1.55c.13.26,1.09-.45,1.17-.59,1-1.77,1-4.3.7-6.28a6.64,6.64,0,0,0-2-4c-2.3-2.09-5.6-1.61-8.2-.38A18.67,18.67,0,0,0,120.33,60c-.18.18.32-.05.39-.12Z" transform="translate(0 -0.71)"/><path class="cls-7" d="M132.15,78.77c-3.19,17.36-13.73,32.1-27.05,43.33-13.17,11.1-29.31,19.16-46.33,22.19a72.45,72.45,0,0,1-13.39,1.17c-2.22,0-4.44-.19-6.65-.37a65,65,0,0,0-6.67-.55c-.19,0-.74,1.35-.63,1.41a16.86,16.86,0,0,0,5.71,1.66,43.61,43.61,0,0,0,6.14.53,70,70,0,0,0,12.44-.85,91.2,91.2,0,0,0,25.46-8.08c16.38-7.85,31.21-20,41-35.35,4.91-7.7,8.69-16.26,10.08-25.32,0,0-.1.15-.11.23Z" transform="translate(0 -0.71)"/><path class="cls-7" d="M39.92,75.45a3.8,3.8,0,1,1-3.79-3.8A3.79,3.79,0,0,1,39.92,75.45Z" transform="translate(0 -0.71)"/><path class="cls-7" d="M98,93.85a3.8,3.8,0,1,1-3.8-3.8A3.8,3.8,0,0,1,98,93.85Z" transform="translate(0 -0.71)"/><path class="cls-7" d="M60.67,145.6a24.49,24.49,0,0,0-.72,7.67,18.69,18.69,0,0,0,.78,4.14,17.27,17.27,0,0,0,.75,2,4.73,4.73,0,0,0,1,1.67c-.05,0,.27-1.05.21-1.25-.38-1.09-1-2.11-1.36-3.2a19.74,19.74,0,0,1-.83-3,17.36,17.36,0,0,1,.16-7.42,1.79,1.79,0,0,0,.09-.6c0-.11,0-.19,0,0Z" transform="translate(0 -0.71)"/><path class="cls-7" d="M113.09,115c1,3.6,1.75,7.3,2.47,11A72.55,72.55,0,0,1,117,136a45.35,45.35,0,0,1-.48,9.81c-.6,3.83-2,7.37-3,11.08-.07.25.57-.28.64-.42,3.27-6.35,4.38-14,3.91-21.06a57.55,57.55,0,0,0-1.61-10.11c-.88-3.54-2.12-6.94-3.19-10.42,0,0-.13.06-.12.1Z" transform="translate(0 -0.71)"/><path class="cls-7" d="M114.48,154.83c1.84.08,3.8-.85,5.45-1.61a30.24,30.24,0,0,0,5.15-3c3.06-2.25,5.85-5.28,6.89-9a10.64,10.64,0,0,0-1.62-9.24,33.07,33.07,0,0,0-2.86-3.39,14.18,14.18,0,0,1-2.57-3.17c-1.81-3.68,3-6.63,5.6-8.23,0,0-.47-.71-.59-.66-2.47,1-7.37,2.78-6.75,6.34.42,2.41,2.88,4.47,4.46,6.17,2.62,2.81,4.42,6.06,3.88,10-.52,3.82-3.1,7.06-5.94,9.51a29.86,29.86,0,0,1-8.45,5,12.77,12.77,0,0,0-2.78,1.13s.1.14.13.14Z" transform="translate(0 -0.71)"/><path class="cls-7" d="M71.32,141.48a12.27,12.27,0,0,0-2.86,6.9,24.15,24.15,0,0,0-.18,4.25c.07,1.29.12,3,.91,4.07.09.13.61.12.64,0a5.52,5.52,0,0,0-.1-1.94c-.09-.67-.14-1.35-.18-2a27.16,27.16,0,0,1,0-4.23,23,23,0,0,1,.65-3.8,11.56,11.56,0,0,1,1.24-3.17s-.13,0-.16,0Z" transform="translate(0 -0.71)"/><path class="cls-7" d="M103.17,127.74c2.15,4.11,2.27,9.23,2.14,13.77s-.61,9.09-1.19,13.61c0,.11.23.53.26.37a82.4,82.4,0,0,0,1.56-15c0-4.43-.53-9-2.66-13-.21-.38-.23,0-.11.24Z" transform="translate(0 -0.71)"/><path class="cls-7" d="M2.69,119.58c.94.65,1.92,1.22,2.83,1.91a23.69,23.69,0,0,1,2.66,2.34c1.73,1.76,3.22,3.73,5,5.45.11.11,1-.45.95-.5a29.28,29.28,0,0,0-4.93-5.56A15.86,15.86,0,0,0,3,119.43c-.06,0-.28.16-.29.15Z" transform="translate(0 -0.71)"/><path class="cls-7" d="M10.33,137.21c-1.8-.08-3.59-.19-5.4-.2A33.79,33.79,0,0,0,0,137.1c.15,0,.42.35.6.37a50.66,50.66,0,0,0,5.23.09c1.59,0,3.17-.11,4.76-.19-.08,0-.17-.16-.26-.16Z" transform="translate(0 -0.71)"/><path class="cls-7" d="M10.49,143.42c-.32.06-.63.06-1,.1a10,10,0,0,0-1,.25,11.74,11.74,0,0,0-2.06.73,14.53,14.53,0,0,0-1.9,1,6.88,6.88,0,0,0-1.66,1.57.84.84,0,0,0-.08.38,2.91,2.91,0,0,0,0,.31c.51-.36,1.05-.68,1.58-1a15.7,15.7,0,0,1,2-1.11c.67-.32,1.35-.65,2-.95.33-.14.68-.26,1-.41s.68-.32,1-.44c.08,0,.06-.44.06-.44Z" transform="translate(0 -0.71)"/><path class="cls-7" d="M43.67,135.14a50.23,50.23,0,0,1,6.21-3.65,33.16,33.16,0,0,1,7.2-2.29c.12,0,.21-.53.19-.53a12.65,12.65,0,0,0-3.56.5,24.81,24.81,0,0,0-3.33,1.27,34.84,34.84,0,0,0-6.53,4.11c-.13.1-.17.58-.18.59Z" transform="translate(0 -0.71)"/><path class="cls-7" d="M43.44,142a35.73,35.73,0,0,0,4.39.33c.69,0,1.39,0,2.08,0,.39,0,.78,0,1.16,0a3.92,3.92,0,0,0,1.24-.19,2.85,2.85,0,0,0,.13-.86,3.59,3.59,0,0,0-1.18-.18c-.39,0-.77,0-1.16,0-.69,0-1.39,0-2.08,0a37.36,37.36,0,0,0-4.49.32,2.13,2.13,0,0,0-.09.6Z" transform="translate(0 -0.71)"/><path class="cls-7" d="M42.92,153.62a10.37,10.37,0,0,1,1.3,1c.47.4.93.82,1.37,1.25s.84.85,1.24,1.29A6.71,6.71,0,0,0,48,158.27c.14.09.63-.4.58-.55a3.82,3.82,0,0,0-.89-1.3,15.71,15.71,0,0,0-1.31-1.27A11.38,11.38,0,0,0,44.91,154a8.08,8.08,0,0,0-1.54-.81c-.13-.06-.51.37-.45.41Z" transform="translate(0 -0.71)"/><path class="cls-7" d="M16.82,138.88a8,8,0,0,1-1-3.85,6.66,6.66,0,0,1,.29-1.71c.3-1-.92,1.41-.48.88.17-.21.32-.43.5-.63a10.11,10.11,0,0,1,6.18-2.79c5.32-.69,11.43,1.51,13.63,6.72a13.37,13.37,0,0,1,1,5.59,23,23,0,0,1-.39,3.5c-.11.58-.26,1.16-.38,1.75-.05.27-.35,1-.22,1.26a13.88,13.88,0,0,1,.84-1.58c1.76-4.13,3-9.18,1.3-13.56a10.44,10.44,0,0,0-6.11-6c-4.67-1.82-12-1-15.12,3.35a9.69,9.69,0,0,0-2,4.56,5.62,5.62,0,0,0,1.41,3.57c-.08-.11.63-.86.53-1.05Z" transform="translate(0 -0.71)"/><path class="cls-7" d="M20.89,145.81a15.92,15.92,0,0,0,.47,3.3,8.41,8.41,0,0,0,.94,2.15,4.22,4.22,0,0,0,2.87,2.08,6.9,6.9,0,0,0,3.94-.87,13.64,13.64,0,0,0,4.76-4.07,4.42,4.42,0,0,0,.61-1.23c0-.08.19-.63-.07-.54a5.87,5.87,0,0,0-.94.62c-.36.23-.7.48-1.06.73a14.26,14.26,0,0,1-2,1.21,7.18,7.18,0,0,1-3.74.83,4.82,4.82,0,0,1-3.08-1.38A5.82,5.82,0,0,1,22.48,147,9.69,9.69,0,0,1,22,146a10.68,10.68,0,0,1-.47-1.27c0-.19-.37.3-.39.33a1.56,1.56,0,0,0-.29.8Z" transform="translate(0 -0.71)"/></g></g></g></svg>