<svg xmlns="http://www.w3.org/2000/svg" viewBox="0 0 152.54 138.69"><defs><style>.cls-1{isolation:isolate;}.cls-2,.cls-5{fill:#ffdbbf;}.cls-3{fill:#fff5e6;}.cls-4{fill:#ff9173;}.cls-5,.cls-6{mix-blend-mode:multiply;}.cls-6{fill:#f08273;}.cls-7{fill:#fff2e6;}.cls-8{fill:#231f20;}</style></defs><title>pig</title><g class="cls-1"><g id="Layer_2" data-name="Layer 2"><g id="Layer_1-2" data-name="Layer 1"><path class="cls-2" d="M16.06,28.21C11.44,26.46,11.2,13,8.86,8.79,15.25,11.19,24,15,29.14,17"/><path class="cls-2" d="M126.86,21c-.32.16-1.26,1.11-.68.2,4.57-2.36,18.93-13.18,20.75-8.66s-5.26,18.37-7.1,22.67"/><path class="cls-3" d="M53,120c-3.51,1-3.73,11.15,1.11,16.9a122.28,122.28,0,0,0,21.23,1.2c8-.44,20.18.61,30.11-1.29,2-6.75,2.74-14.27,3.49-20.84C89.93,118.27,71.91,117.6,53,120Z"/><path class="cls-2" d="M147.48,43.7C140.27,21.91,117,6.69,95.26,2a97.12,97.12,0,0,0-64.92,9.34C13.35,20.42,8.92,36.26,4,53.28c-4.07,14-7.06,29,1.78,41.57,8,11.46,19.73,16,31.69,21.93-12.32,12.46,1.88,17.9,16.63,20.07C49.22,131.1,49.44,120.9,53,120c19-2.35,37-1.68,55.94-4-.75,6.57-1.49,14.09-3.49,20.84,9-1.73,16.15-5.87,16.82-15.75.19-2.76.33-6-.52-8.51,0-.16,21.93-15.89,23.87-18.51C155.86,80.06,152.53,58.94,147.48,43.7Z"/><path class="cls-4" d="M122.65,92.83c3.16-3,5.31-6.72,4.62-11-.32-2-1.75-3-3-4.47a62.83,62.83,0,0,0-6.46-7.4c-3-2.69-5.9-5.64-9.54-7.58a47.92,47.92,0,0,0-4.85-2.68A41.61,41.61,0,0,0,95,57.89a94,94,0,0,0-18.23-.69c-6.59.45-13.46-.13-19.84,1.67C49.5,61,42.09,63.75,36.07,68.73c-4.8,4-8.45,7.49-9.52,13.6-1,5.8,0,11.06,4.2,15.37,7.33,7.57,19.47,10.27,29.75,10.83a166.79,166.79,0,0,0,20.1-.64c5.14-.34,10.53-.39,15.56-1.4s10.18-3.49,14.63-5.8C114.27,98.88,119.1,96.26,122.65,92.83Z"/><path class="cls-4" d="M17.29,23.56c-2-1.57-4-4.09-4.28-6.73a55.18,55.18,0,0,1,8.86,3,44.78,44.78,0,0,0-4.32,3.5"/><path class="cls-4" d="M134.08,22.72c.53-.57,4.95-5.35,6.18-4.27.73.65,0,7.58-.08,8.86-2.7.63-4.12-3.7-5.59-5.38"/><path class="cls-5" d="M72.36,116.93c3.63,3.37,35.85,9.52,23.17,21,8,2.21,18.22-.4,23.57-6.71A16.14,16.14,0,0,0,123,119.87c-.13-6.16-1.37-6.84,4.5-10.17,16.14-9.15,25.12-22.06,24.74-40.46-.21-10.37-.29-19.9-4.93-29.07-3.55-7-6.89-17.14-15.21-18.29,2,.28,5.87,16.5,6.5,18.78,4.39,15.92,6.12,32.79-1.51,48.09C125.22,112.6,95.84,116.53,72.36,116.93Z"/><path class="cls-6" d="M104.88,61.57c5.54,5.41,11.32,9.49,11.17,19.15-.13,8.51-5.59,14.73-13.2,18-13.82,6-38.43,5.89-53.68,4.41C42,102.44,36.71,96,29.87,95.51c3.19,8,11.68,10.38,19.09,11.28,7.71.93,15.43,4,23.24,3.77,16.62-.43,44.77-4.93,53.68-21.48C133,75.89,117.6,66.16,106,60.41"/><path class="cls-6" d="M97.93,91.2c1.09-2.84,3.66-23.13-3.4-20.42-2.72,1-1.62,5-1.68,7.09C92.76,80.73,92.07,92.92,97.93,91.2Z"/><path class="cls-6" d="M55.39,95c3.79-.34,3.29-21.35.62-22.73C49.09,68.66,47.55,95.68,55.39,95Z"/><path class="cls-2" d="M40.26,72.25a39.37,39.37,0,0,1,14.06-5.71,51.57,51.57,0,0,1,7.54-.91c1.25-.06,2.5,0,3.75,0s2.64,0,3.52-.71a2.11,2.11,0,0,0,0-1.88c-1.64-1.72-5.32-1.2-7.47-1.1A46,46,0,0,0,53.92,63a33.93,33.93,0,0,0-13.87,6.26c-.55.45-.16,3.28.21,3Z"/><path class="cls-2" d="M74.17,62.48l-.3,0h-.1s0,0-.07,0l0,.15v-.24c0-.09,0-.18,0-.28a.15.15,0,0,0,0-.11.13.13,0,0,0,0,.11,2.7,2.7,0,0,0,0,.28,5.21,5.21,0,0,0,0,.79l0,.29a.12.12,0,0,0,.05.1l.21,0,.41,0a3.39,3.39,0,0,0,.45,0,2.58,2.58,0,0,0,.4,0h.11a.16.16,0,0,0,0-.1,1.8,1.8,0,0,0,.1-.33l-.06.18h0s0-.18,0-.18a3.71,3.71,0,0,0,0-.86s0-.18,0-.18h0l0,.18a1.47,1.47,0,0,0-.08-.3s0-.11-.07-.13h-.06l-.38,0a6.25,6.25,0,0,0-.87.09,1.27,1.27,0,0,1-.26,0l.08,1V62.8l0,.23s0,0,.07,0h.1l.3,0s0-.2,0-.23,0-.23,0-.23Z"/><path class="cls-2" d="M46.9,80.12a20.36,20.36,0,0,0-.6,4.17c0,.67,0,1.33,0,2v.94c0,.21,0,.45.15.6A6.1,6.1,0,0,0,47,86.26c-.14.89,0,0,0-.18s.08-.48.1-.71,0-.59,0-.88c0-.63,0-1.25,0-1.88a24.06,24.06,0,0,1,.3-3.49c0-.21,0-.4-.14-.12a4.42,4.42,0,0,0-.41,1.12Z"/><path class="cls-2" d="M90.82,75.56c-.09,2.74-.09,5.48.08,8.22.09,1.34.23,2.68.43,4a8.9,8.9,0,0,0,.89,3.45c.17.3.27-.55.26-.63-.18-2.64-.76-5.25-1-7.89-.22-2.45-.31-4.91-.5-7.36,0-.32-.17.08-.17.2Z"/><path class="cls-7" d="M43.51,12.91c3.64-.52,7.14-1.66,10.75-2.29A85.14,85.14,0,0,1,65.52,9.43,115.86,115.86,0,0,1,88.07,11c2.06.33,4.12.71,6.17,1.12,1,.2,2,.44,3,.62a7.91,7.91,0,0,0,1.51.24c.45,0,.83-.18,1.29-.17,0,0-.76-2.22-1.21-2.4A26.26,26.26,0,0,0,96,9.19c-.83-.23-1.68-.41-2.53-.59C91.64,8.22,89.8,7.86,88,7.54c-3.77-.65-7.57-1.16-11.39-1.49a79.3,79.3,0,0,0-22.5.83c-4,.81-8.21,1.79-11.46,4.31-.19.15.65,1.76.9,1.72Z"/><path class="cls-7" d="M106.35,13.21c0,.08-.06.1-.19.08s0,.42,0,.48a4.18,4.18,0,0,0,.85,1.34,4.13,4.13,0,0,0,1.08.92,4.22,4.22,0,0,0,.89.35l.58.12a.67.67,0,0,0,.52-.07l-.13,0c.15,0,.3,0,.38-.16a.35.35,0,0,0,.06-.26,1.4,1.4,0,0,0-.23-.55,3.59,3.59,0,0,0-.37-.5,1.91,1.91,0,0,0-.52-.46q.41.32.21.15l-.21-.15a1.48,1.48,0,0,0-.33-.17,2.56,2.56,0,0,0-.46-.11l.18,0a6.18,6.18,0,0,0-1-.21l.18,0a2.9,2.9,0,0,1-.48-.14c-.09,0-.36-.17,0,0l-.28-.14c-.08,0,.25.15.1.05l-.07,0c-.13-.08.28.22.12.09s-.12-.16.16.15l0,0,.18.2,0,0c-.07-.08,0,0,.16.23-.06-.1-.11-.25.08.14a3.44,3.44,0,0,0-.88-1.09l.58.87a2.08,2.08,0,0,1,0-.23,1.45,1.45,0,0,0-.5-.78c-.06,0-.49-.4-.5-.15Z"/><path class="cls-8" d="M28,60.45a3.4,3.4,0,0,1-3.8,3,3.48,3.48,0,0,1-2.86-4,3.4,3.4,0,0,1,3.81-3A3.46,3.46,0,0,1,28,60.45Z"/><path class="cls-8" d="M130.88,59a3.39,3.39,0,0,1-3.8,3A3.48,3.48,0,0,1,124.22,58a3.39,3.39,0,0,1,3.8-3A3.46,3.46,0,0,1,130.88,59Z"/><path class="cls-8" d="M80.49.44c-17.6.07-36,2.9-51,12.68A58.45,58.45,0,0,0,6.64,42.06,99,99,0,0,0,1.93,61.72a72,72,0,0,0-.44,21.39,36.38,36.38,0,0,0,7,17c4.37,5.61,10.48,9.53,17,12.2,7.4,3,15.3,4.55,23.19,5.6a178.81,178.81,0,0,0,19.21,1.49c13.41.31,27-.73,40.05-4.08,11.48-3,22.91-7.9,31.59-16.17,8.85-8.44,13.16-19.93,13-32.08a73.17,73.17,0,0,0-10.93-36.86A59,59,0,0,0,106.15,3.86,71,71,0,0,0,92.24,2c-.29,0-.79.63-.86.63,16.34.92,32,7.87,42.81,20.27,8,9.17,13,20.47,15.57,32.3,2.69,12.47,2.2,25.89-4.85,36.9-6.4,10-16.88,16.18-27.85,20-12.26,4.3-25.38,6-38.33,6.43a168,168,0,0,1-38.83-3.06C26,112.6,11.66,106.31,5.5,92.66c-5.68-12.6-3.72-27.51-1-40.58,2.49-11.77,7.57-23,16.12-31.62C32.29,8.75,48.6,3.66,64.61,1.69a144.67,144.67,0,0,1,15.57-1c.11,0,.28-.22.31-.22Z"/><path class="cls-8" d="M13,25.43C10.53,19.14,7.88,12.68,8.2,5.79L8,5.71q4.83,2.85,9.84,5.38,2.51,1.26,5.05,2.45a24.72,24.72,0,0,0,4.49,1.86c-.08,0-.44-.37-.59-.45-3.24-1.61-6.6-3-9.83-4.6S10.4,6.91,7.21,5c0,0-.2-.11-.2-.08-.29,7,2.18,14.34,5.72,20.28,0,.07.27.15.28.19Z"/><path class="cls-8" d="M16.29,22.08A8.41,8.41,0,0,0,14.9,20.8a12.05,12.05,0,0,1-1.12-.88c-1-1-.54-2.49-.2-3.63l-.52.72.63,0a1.27,1.27,0,0,1,.34,0c.13.05.21.18.31.29A7.18,7.18,0,0,0,16.52,19a18.14,18.14,0,0,0,2.45.93,18.11,18.11,0,0,0,2.39.69c.09,0,.41-.46.35-.53a4.47,4.47,0,0,0-2.05-1.19c-.82-.28-1.64-.57-2.45-.92a7.75,7.75,0,0,1-2.3-1.44c-.1-.09-.18-.23-.31-.26a1.2,1.2,0,0,0-.33,0l-.68,0c-.19,0-.48.56-.53.71-.3,1.09-.76,2.63.23,3.51a4.88,4.88,0,0,0,1.22.73,5.49,5.49,0,0,1,1.57,1.22s.25-.26.21-.31Z"/><path class="cls-8" d="M128.91,19.59A27.37,27.37,0,0,1,136,14.12c3.44-1.86,7.41-3.34,11.38-3.21l-1.15-.32a44.23,44.23,0,0,1-1.21,9.23q-.51,2.38-1.23,4.71-.35,1.13-.75,2.22a4.59,4.59,0,0,0-.57,2.25c0,.16.74.25.86.16,1.1-.89,1.46-2.82,1.85-4.12.49-1.6.9-3.22,1.25-4.85a92.55,92.55,0,0,0,1.36-9.36c0-.25-1-.32-1.15-.32a23,23,0,0,0-11.64,3,22.66,22.66,0,0,0-4.57,3.06c-.86.78-2,1.72-1.93,3,0,.06.33.11.37.06Z"/><path class="cls-8" d="M133,23.29c2.33-2,4.76-4.05,7.77-4.92l-.86-.74c-.1,1.59-.29,3.18-.4,4.78-.06.8-.1,1.6-.14,2.39,0,.39-.05.77-.06,1.16a7.69,7.69,0,0,0,.21,1.58c0,.12.64.5.62.54.08-.18.19-.32.25-.49a2,2,0,0,0,.09-.53c0-.41,0-.83.07-1.25,0-.8.08-1.61.11-2.41.05-1.68,0-3.36.11-5a2.74,2.74,0,0,0-.86-.74,13.5,13.5,0,0,0-4.16,2.11,28.23,28.23,0,0,0-3.3,3.07,2.83,2.83,0,0,0,.55.48Z"/><path class="cls-8" d="M90.19,105.16c-9.72,1-19.46,1.93-29.24,1.51s-20-2.11-28.35-7.92c-3.52-2.47-7-5.78-7.85-10.16a13.67,13.67,0,0,1,1.66-9.29c3.79-6.92,11.17-11.73,18.11-15,7.58-3.6,16-5.44,24.28-6.37a84.58,84.58,0,0,1,26.33,1c8.51,1.74,16.91,5.24,23.29,11.26,4.49,4.24,10.26,10.15,7.69,16.92-2,5.2-7.64,8.41-12.36,10.72-5.77,2.82-11.91,4.87-17.92,7.12-1.24.46-2.44,1-3.68,1.49-.12,0,.29.74.53.66,2.94-1.05,6.07-1.76,9.06-2.68a98.7,98.7,0,0,0,9.86-3.64c5.41-2.32,11.75-5.34,14.88-10.61,3.28-5.55.41-11.56-3.35-16a48.13,48.13,0,0,0-21.68-14.71A74.09,74.09,0,0,0,74.17,56a85,85,0,0,0-25.84,5C36.38,65.56,15.26,79.4,27,94.17c6,7.5,15.82,11.06,25,12.4,10.29,1.5,20.75.55,31-.47l7.25-.75c.05,0-.07-.19-.13-.19Z"/><path class="cls-8" d="M53.65,72.36a90.68,90.68,0,0,0-.47,12.22,46.21,46.21,0,0,0,.64,5.87c.18,1,.4,2,.68,3a4.81,4.81,0,0,0,1.27,2.59,6.59,6.59,0,0,0,.67-1c-.07-2.21-.93-4.39-1.34-6.55a46.76,46.76,0,0,1-.7-5.78c-.23-3.78-.13-7.56-.1-11.34,0,.3-.62.65-.65,1Z"/><path class="cls-8" d="M94.83,71.66a37.88,37.88,0,0,0,1,16.5,24.81,24.81,0,0,0,.84,2.52c.35.85.63,1.79,1.5,2.18a1.91,1.91,0,0,0,1.22-.48c.34-.86-.28-2-.57-2.87S98.24,88,98,87.17a40.46,40.46,0,0,1-1.16-5.1c-.56-3.56-.76-7.2-1-10.79,0,0-1,.17-1,.38Z"/><path class="cls-8" d="M35.91,114.23a12.4,12.4,0,0,0-2.11,4.59,20.24,20.24,0,0,0-.41,5.49,18,18,0,0,0,3.89,10.43c.29.36.74.42.38-.13a20.65,20.65,0,0,1-3.13-9.83,18.83,18.83,0,0,1,1.85-10c.1-.17-.39-.67-.47-.55Z"/><path class="cls-8" d="M120.37,113.78c.27,1.52.52,3,.8,4.54a24.43,24.43,0,0,1,.53,3.7,11.1,11.1,0,0,1-.49,3.48c-.53,1.79-1.5,3.4-2,5.19,0,.09,0,1,.1.92.66-.36,1-1.4,1.35-2.06a17.26,17.26,0,0,0,1-2.51,16.19,16.19,0,0,0,.64-4.69c0-3.17-1-6.1-1.67-9.17-.09-.43-.21.47-.19.6Z"/><path class="cls-8" d="M121.86,129.17a24.79,24.79,0,0,0,4.79-2.82,23,23,0,0,0,3.89-4,22.42,22.42,0,0,0,2.78-4.73,23.41,23.41,0,0,0,1-2.73,4.73,4.73,0,0,0,.21-3.1,2.17,2.17,0,0,0-.81-.47c-.74.5-.8,1.84-1,2.64a21.84,21.84,0,0,1-.95,2.6,24.54,24.54,0,0,1-2.84,4.85,27.58,27.58,0,0,1-3.66,4,24.17,24.17,0,0,1-4.3,3.25c.12-.06.72.62.92.53Z"/><path class="cls-8" d="M52,120.82a9.33,9.33,0,0,0-1.54,5.69,10.35,10.35,0,0,0,2,5.6c.24.29,0-.44-.06-.52a9.9,9.9,0,0,1-1.34-5,10.49,10.49,0,0,1,1.33-5.08c.09-.16-.3-.76-.35-.68Z"/><path class="cls-8" d="M107.22,115a17.51,17.51,0,0,1,.83,8c-.26,2.84-1.19,5.53-1.65,8.32,0,.17.26,1.41.46,1.15a10,10,0,0,0,1.5-4,26.43,26.43,0,0,0,.65-4.93,21.94,21.94,0,0,0-1.57-9.13c-.28-.68-.33.27-.22.55Z"/><path class="cls-8" d="M134.35,111.32a7.59,7.59,0,0,1,.1-1.17,5.32,5.32,0,0,1,.31-1.17,16.73,16.73,0,0,1,1.16-2.12l-.5.35a4.31,4.31,0,0,1-.13.8c0,.27-.09.54-.13.81a7.16,7.16,0,0,1-.5,1.71s.18-.08.19-.09a2.33,2.33,0,0,0,.35-.27c.58-.62,1.27-1.1,1.86-1.71l-.64.43a7,7,0,0,1-1.2,2c-.27.33-.57.63-.87.93l-.46.42c-.08.07-.24.17-.25.27l.3-.18a11,11,0,0,0,1.95-1.85,6.68,6.68,0,0,0,1.2-2c0-.05-.21.09-.23.1a3.22,3.22,0,0,0-.41.32c-.55.59-1.22,1.06-1.77,1.65l.54-.36a6.5,6.5,0,0,0,.43-1.55c0-.27.07-.53.1-.79a3.71,3.71,0,0,1,.17-.94s-.19.09-.2.1a1.38,1.38,0,0,0-.3.24,7.4,7.4,0,0,0-1.33,2.31,5.56,5.56,0,0,0-.26,1,1.7,1.7,0,0,0,.16,1s.36-.2.36-.26Z"/></g></g></g></svg>