<svg xmlns="http://www.w3.org/2000/svg" viewBox="0 0 144.22 185.58"><defs><style>.cls-1{fill:#fff;}.cls-2{fill:#ffd6c2;}.cls-3{fill:#f2f2ef;}.cls-4{fill:#231f20;}</style></defs><title>rabbit</title><g id="Layer_2" data-name="Layer 2"><g id="Layer_1-2" data-name="Layer 1"><path class="cls-1" d="M40.74,149.33c-14.71,2.93-15.52-35.1-16-44C24,91.51,37.5,67,27,57.41c-6.12,14.33-21.62,16.4-25.25.92C-.52,48.66-1.45,31.56,4.47,23.05,26.06-8,45.19,42.8,50.8,57.42c0,.74-.07.74-.11,0,6.47-7.53,31-10.22,39.1-3.47C93.19,38.71,117.29,6,136,6.55c17.66.54-10.55,34.86-14.25,39.37-5.47,6.67-14.44,13.41-14.62,22.88-.18,10,9.46,19.83,11.68,29.53,2.73,12,2.08,22.69-4.37,32.8-3.11,4.87-9,9.42-9.84,15.46-.94,6.5,3.91,10.95,5.23,17,5-9.38,17.78-2.82,16.92,6.55-.9,9.72-10.66,10.28-18.85,8.36-.17.93-.1,1.75-.32,2.67-12.89,7.66-39.49,3.36-52.83,2.18-8.66-.78-17.52-2-19-11-1-6.27,4.55-15.52,8-20" transform="translate(0 -0.02)"/><path class="cls-2" d="M37.57,63.19C40.09,61.34,44,59.52,43.69,56s-4.81-5.32-7.55-6.1c-10.85-3.06-.6,9.68,3.35,12.32" transform="translate(0 -0.02)"/><path class="cls-2" d="M99.33,60.31c5.14-5.47,11.71-9.69,16.15-15.89,2.81-3.9,7.66-14.58-.83-13.89-6.37.52-12.06,8.92-15,14C98.13,47.19,96,51,95.62,54.1c-.51,4.51,1.24,3.91,4.66,5.73" transform="translate(0 -0.02)"/><path class="cls-2" d="M62,156.54c-6.45,3-7.7,15.26-4.31,20.58,3.66,5.73,15.2,7.89,21.54,7.21,11.19-1.21,13.43-9.47,11.36-19.28C88.24,154,83,155.34,74,157c-4.28.79-8.26-.51-12.44,0" transform="translate(0 -0.02)"/><path class="cls-2" d="M69.57,116.23c-1.75,5.45,7.24,5.56,7.25,1.32C76.83,114.13,70.67,112.82,69.57,116.23Z" transform="translate(0 -0.02)"/><path class="cls-3" d="M135.39,28.72c5.58-7.3,11.54-16.88,5.28-25.25-4.62-6.19-4.06,6.65-4.76,9.55-1.59,6.63-5,12.58-8.82,18.18-4.07,6-9,11.33-13.42,17-1.89,2.43-3.58,6.39-5.88,8.35-1.63,1.39-5.72,1.43-6.7,3.54-.84,1.81,2.21,3.46,4,3.35,2.68-.18,5.26-3.39,6.91-5.29C120.11,48.81,127.86,38.58,135.39,28.72Z" transform="translate(0 -0.02)"/><path class="cls-3" d="M46.12,45.64a41.07,41.07,0,0,1-2.83-7.46c-.61-1.82-2.57-9.34-5.6-8.56-2.51.65-1.73,5.87-1.92,7.79-.66,6.53-4.16,9.57-8.46,14-4.92,5-11.62,8.41-16.94,1.63-1.29-1.64-6.58-15.35-9-9.71-.69,1.6.64,7.15.78,8.93A40.08,40.08,0,0,0,4.4,63.1c1.3,3.5,3.33,8.89,7.65,9.37,5.17.58,8.12-5.86,10.44-9.43,2.59-4,5.09-10,9.15-12.6,4.61-2.94,8.58,1.07,12,4,1.91,1.68,4.38,2.94,5.51-.31,1.06-3-1.22-5.63-2.66-8Q46.27,45.93,46.12,45.64Z" transform="translate(0 -0.02)"/><path class="cls-3" d="M100.71,59.44c1.41,4.31,4.65,9.09,6.77,13.29A64.4,64.4,0,0,1,112,85.63a71.55,71.55,0,0,1,1.54,27.46c-2.81,21.92-23.63,37.08-43.9,40.73-3.32.6-6.66.07-9.93-.4-1.65-.23-11.93-5.07-11.05-1.49.63,2.58,7,3.09,9,3.66a39,39,0,0,0,10.94,1.31c10.4,0,21-2.49,29.05-9.31,6-5.07,12.46-10.69,16.2-17.62,3.46-6.42,3.93-14.63,4.58-21.77A57.94,57.94,0,0,0,116,85c-.91-2.77-1.27-6.18-2.77-8.7-1-1.7-3.87-5.94-5.29-7.21-1-.91-1.53-1.69-2.87-.62" transform="translate(0 -0.02)"/><path class="cls-3" d="M88.6,152.87c4.83-.52,9.32,7.9,9.94,11.81a57,57,0,0,1,.63,11.48c-.09,1.85-.88,7.78,2.23,7.52,2.24-.18,3.9-5.19,4.26-6.8,3,3.39,11.32,3.06,15,1.14,2.76-1.45,5.36-4.9,5.5-8.1.2-4.64-2.6-1.67-5.3-.2-2.44,1.33-5.13,2.62-7.72,1.08s-1.84-4.54-3.48-6.45c-.84-1-1.88-.42-2.83-1.54-.77-.91-.88-3-1.15-4-.63-2.53-1.24-5.52-2.71-7.76-1.16-1.79-2.45-3.07-4.74-2.79" transform="translate(0 -0.02)"/><path class="cls-4" d="M46.25,114.55a3.47,3.47,0,1,1-3.47-3.47A3.47,3.47,0,0,1,46.25,114.55Z" transform="translate(0 -0.02)"/><path class="cls-4" d="M101.8,114.55a3.47,3.47,0,1,1-3.47-3.47A3.47,3.47,0,0,1,101.8,114.55Z" transform="translate(0 -0.02)"/><path class="cls-4" d="M62.79,54.47a29,29,0,0,0-21.3,5.82c-6.56,5-11.28,12.19-14.57,19.71a73.78,73.78,0,0,0-6.05,26.5,59.55,59.55,0,0,0,4.34,25.93A40,40,0,0,0,41.5,151.25a44.48,44.48,0,0,0,13.64,5,66,66,0,0,0,19.92,1.23,49.6,49.6,0,0,0,30-13.69,51.59,51.59,0,0,0,14.42-27.74,56.43,56.43,0,0,0-3.88-32.27C110.29,71.64,101.7,59,89.36,53.13a24.29,24.29,0,0,0-8.5-2.4c-.35,0,.71.78,1,.82C96,53.47,105.73,66.62,112,78.32a57.63,57.63,0,0,1,7.06,32.21A53.25,53.25,0,0,1,108.3,138.8,47.4,47.4,0,0,1,82,155.61a58,58,0,0,1-18.58,1.27A58.54,58.54,0,0,1,45.87,153a36,36,0,0,1-17.78-16.88,56.29,56.29,0,0,1-5.77-24.43,74.23,74.23,0,0,1,4.12-26,57.44,57.44,0,0,1,12.33-21c5-5.23,11.44-9.07,18.71-10a24.13,24.13,0,0,1,5.44,0s-.09-.09-.13-.1Z" transform="translate(0 -0.02)"/><path class="cls-4" d="M49.92,54A142.94,142.94,0,0,0,41.6,32.11c-3.22-6.61-7.67-13.12-14-17.06-4.19-2.59-9.06-3.13-13.13,0S7.93,23.3,6.16,28C2.05,39.05.23,51.62,3.46,63.1,4.57,67,6.85,72.79,11.67,73c2.55.12,5-1.32,6.86-2.86a23.22,23.22,0,0,0,5.22-6.24c1.36-2.22,2.55-4.53,3.82-6.81a26.61,26.61,0,0,1,4-5.86,5.23,5.23,0,0,1,4.64-1.84c2.5.47,4.48,2.72,6,4.61,1.32,1.65,2.46,3.45,3.61,5.22-.07-.09.7-1.06.52-1.38a29.08,29.08,0,0,0-6.43-8.22c-1.42-1.16-3.22-2.06-5.09-1.54a8,8,0,0,0-3.84,3,40.56,40.56,0,0,0-3.62,5.81c-2.6,4.73-5,9.86-9.67,12.85-1.92,1.23-4.26,2.1-6.54,1.43A8.44,8.44,0,0,1,6.58,67.4C3.63,62.72,2.8,56.63,2.53,51.22A57.52,57.52,0,0,1,4.71,33.58c2.23-8.44,8.1-22.6,19.37-18.37C30.33,17.55,35.19,23.44,38.56,29c4,6.55,6.75,13.69,9.35,20.88.58,1.58,1.14,3.15,1.79,4.7,0,0,.26-.39.22-.52Z" transform="translate(0 -0.02)"/><path class="cls-4" d="M26.63,51.44a41.44,41.44,0,0,0,2.25,3.64c.78,1.21,1.55,2.44,2.34,3.65s1.57,2.43,2.34,3.65c.42.67.86,1.33,1.28,2a6.22,6.22,0,0,0,.64.94c.31.32.62.62.91,1a2.42,2.42,0,0,0,.69-.45,12,12,0,0,0-.91-2.15c-.41-.68-.82-1.36-1.25-2-.81-1.25-1.67-2.47-2.53-3.69s-1.67-2.26-2.53-3.37a40.24,40.24,0,0,0-2.8-3.43,1.52,1.52,0,0,0-.43.28Z" transform="translate(0 -0.02)"/><path class="cls-4" d="M90.78,54.65A19.05,19.05,0,0,1,92,49.51a55.14,55.14,0,0,1,2.82-6.74,112.36,112.36,0,0,1,9.25-15.36,120.66,120.66,0,0,1,12.48-15.14c3.72-3.78,7.9-7.59,12.75-9.85,3.45-1.6,7.48-2.17,10.61.41,2.9,2.39,3.24,6.05,2.5,9.52-1,4.77-3.54,9.2-6.12,13.28a143.1,143.1,0,0,1-10.73,14.49c-3.57,4.33-7.3,8.53-11.07,12.68-2.63,2.9-5.35,5.72-7.8,8.76-.33.41-.64.82-1,1.24s.92-.08,1.12-.34c2.09-2.79,4.72-5.27,7.06-7.84,3.83-4.21,7.63-8.45,11.29-12.81a167.2,167.2,0,0,0,11.19-14.65c2.86-4.29,5.63-8.88,7.08-13.87,1-3.42,1.33-7.55-1.12-10.45-2.59-3.07-6.6-3.32-10.22-2.23-4.93,1.49-9.29,4.78-13.07,8.18a99.25,99.25,0,0,0-12.9,14.27,122,122,0,0,0-10.4,16.21,69.17,69.17,0,0,0-3.38,7.19,21,21,0,0,0-1.7,6,21.7,21.7,0,0,0-.06,2.28c0,.05.16,0,.16-.07Z" transform="translate(0 -0.02)"/><path class="cls-4" d="M95.23,56.5a30.89,30.89,0,0,1,3-7.28A73.43,73.43,0,0,1,103.8,40a36.64,36.64,0,0,1,6.93-7.72A9,9,0,0,1,117.37,30c1.34.14,2.8.66,3,2.16.26,1.66-.75,3.45-1.55,4.82-2.68,4.61-6.4,8.66-9.89,12.66-1.81,2.07-3.64,4.11-5.38,6.24a16.65,16.65,0,0,0-2.69,4c-.14.32.38-.27.44-.4a17.89,17.89,0,0,1,3-4c1.79-2.13,3.64-4.2,5.46-6.31,3.62-4.18,7.48-8.45,10.12-13.35.76-1.41,1.7-3.22,1.44-4.87s-1.73-2.13-3.16-2.25c-5.82-.5-10.3,5.31-13.41,9.46a76.63,76.63,0,0,0-6.59,10.55,30.87,30.87,0,0,0-3.3,8.13c0,.12.35-.27.38-.4Z" transform="translate(0 -0.02)"/><path class="cls-4" d="M44.55,150.74c-3.84,2.43-5.75,6.24-6.93,10.54a69.82,69.82,0,0,0-1.44,6.87c-.2,1.18-.38,2.37-.56,3.55-.12.85-.7,2.61-.09,3.28.18.2,1.13.06,1.31-.11.78-.74.77-2.09.92-3.1s.31-2.14.47-3.21c.35-2.36.74-4.72,1.31-7,.93-3.76,2.38-8.56,5.8-10.83-.05,0-.6-.08-.79.05Z" transform="translate(0 -0.02)"/><path class="cls-4" d="M98.55,146.91a16.66,16.66,0,0,1,5.84,6.35,25.07,25.07,0,0,1,2,6.55c.87,4.76.29,9.55.83,14.31,0,.19.7.81.68.87.84-2.43.62-5.38.5-7.93a35.19,35.19,0,0,0-1.33-8.59c-1.48-4.92-4.64-9.68-9.12-12.33.12.08.33.62.55.77Z" transform="translate(0 -0.02)"/><path class="cls-4" d="M60.16,155.91c-3.24,2.35-4.79,5.92-5.2,9.83a28.65,28.65,0,0,0,.06,6,17.21,17.21,0,0,0,1.22,5.78c-.06-.1,0-.76-.05-1a40.9,40.9,0,0,1-1.1-5.8,21.28,21.28,0,0,1,.36-5.8,14.18,14.18,0,0,1,4.75-8.47c.1-.08-.09-.53,0-.56Z" transform="translate(0 -0.02)"/><path class="cls-4" d="M86.61,155a40.71,40.71,0,0,1,4.78,11.95,34.72,34.72,0,0,1,.74,6.51c0,2.4-.45,4.85,0,7.22,0,.19.73,1.1,1,.81a5.49,5.49,0,0,0,.82-3.16,29.31,29.31,0,0,0,.06-3.75,34.43,34.43,0,0,0-1-7.06,36.74,36.74,0,0,0-6-12.49c-.1-.13-.51-.36-.32,0Z" transform="translate(0 -0.02)"/><path class="cls-4" d="M107.11,169c.93-3.27,2.43-7,5.5-8.8a5.42,5.42,0,0,1,3-.83,9,9,0,0,1,3.5.72c4.09,1.66,8.56,6.53,7,11.29-1.13,3.43-4.71,4.44-7.75,5.48-.23.08-.61.4-.12.36a13.52,13.52,0,0,0,5.85-2,8.72,8.72,0,0,0,3.14-3.1,7.27,7.27,0,0,0-.39-7A13,13,0,0,0,121,159.7a9.92,9.92,0,0,0-8.14-.23c-3.18,1.39-4.86,4.56-5.58,7.82-.13.58-.23,1.16-.31,1.74,0,.05.16,0,.18,0Z" transform="translate(0 -0.02)"/><path class="cls-4" d="M67.94,117.58c.3-.3.61-.58.93-.86l.46-.38.12-.08s0,0,0,0l.07,0,0,0,.06,0,.11-.08a6.45,6.45,0,0,1,1.74-.87,3.93,3.93,0,0,1,.89-.19h0a3.73,3.73,0,0,1,1.69.22,3.84,3.84,0,0,1,1.3.81,3.71,3.71,0,0,1,.52.65l0,0a3.33,3.33,0,0,1,.48,1.26,2.4,2.4,0,0,1,0,.37v-.09a2.44,2.44,0,0,1,0,.27s0,.1,0,.14v.07c0,.09,0-.17,0-.07l0,.14a.14.14,0,0,1,0,.06s.07-.22,0-.13v0l0,0c0,.1.07-.17.06-.15v0l0,.06.08-.18,0,0v0l.08-.16v0c0,.07-.1.11.08-.14l0,0c0,.08.13-.18.09-.12l0,.06.18-.18a1.22,1.22,0,0,0-.3.34s.14-.2.08-.12l0,.07s-.1.1,0,0,0,0,0,0a2.75,2.75,0,0,1-.26.22l.09-.07a2.67,2.67,0,0,1-1.1.46,2.9,2.9,0,0,1-.41.06h.07l-.26,0h.07a6.75,6.75,0,0,1-1.42,0c-.28,0-.56-.09-.84-.13s-.64-.1-.95-.17a4.12,4.12,0,0,0-.59-.12l-.33,0a1.67,1.67,0,0,0-.39,0c-.06,0-.17.17-.19.2a2.68,2.68,0,0,0-.18.33,3,3,0,0,0-.12.32c0,.06,0,.14,0,.19a.9.9,0,0,0,.2.23l.25.16a1,1,0,0,0,.23.13l.25.11c.3.12.61.23.91.33a6.15,6.15,0,0,0,1.6.26,3.87,3.87,0,0,0,2.28-.5,3.39,3.39,0,0,0,1.2-1.37l-.23.4a2.61,2.61,0,0,0,.17-.28l.13-.24-.08.14c.11-.2.21-.39.3-.59a4.19,4.19,0,0,0,.24-.76,2.8,2.8,0,0,0-.24-2,3.66,3.66,0,0,0-.57-.84,3.75,3.75,0,0,0-.8-.64,3.24,3.24,0,0,0-1-.4,4.16,4.16,0,0,0-1.27,0,5.52,5.52,0,0,0-1.38.37,7.42,7.42,0,0,0-1.53.86c-.29.21-.58.44-.85.68l-.41.39a.94.94,0,0,1-.1.1l-.09.1s0,0,0,0l-.25.27-.42.49a1.14,1.14,0,0,0-.21.41s0,.22,0,.12Z" transform="translate(0 -0.02)"/><path class="cls-4" d="M72.44,118.38a77,77,0,0,0,.49,12.42c.2,2,.41,3.92.57,5.89.12,1.49-.15,3.48.57,4.81.11.22.73-.68.76-.79a15.42,15.42,0,0,0,0-5.42c-.2-1.92-.43-3.85-.68-5.77-.49-3.82-1.09-7.65-1.39-11.49,0-.07-.32.23-.33.35Z" transform="translate(0 -0.02)"/><path class="cls-4" d="M67.21,139.57c2.34,2.33,5.37,3.55,8.62,2.51a10.15,10.15,0,0,0,3.87-2.41,11.07,11.07,0,0,0,3.08-4.54,7,7,0,0,0-.24-1c-.63.36-1.09,1.32-1.58,1.87a17.35,17.35,0,0,1-1.73,1.7,12.27,12.27,0,0,1-3.9,2.28A9.77,9.77,0,0,1,67,138.87c.12.07,0,.58.17.7Z" transform="translate(0 -0.02)"/><path class="cls-4" d="M36.66,127.32q-.4.2-.78.42l-.11.06-.15.1.22-.13-.19.11a3.05,3.05,0,0,0-.61.46,1.9,1.9,0,0,0-.3.4,1.8,1.8,0,0,0-.23.46,2.53,2.53,0,0,0-.07.48.58.58,0,0,0,.07.21c0,.05,0,.07.08.1a.6.6,0,0,0,.22.06.58.58,0,0,0,.26-.06,6,6,0,0,0,.68-.32,2.25,2.25,0,0,0,.47-.28,1.94,1.94,0,0,0,.23-.27,1.82,1.82,0,0,0,.29-.67c0-.18.11-.36.16-.55a2.48,2.48,0,0,1,.2-.44l0,.05a1.86,1.86,0,0,1,.3-.38l0,0h0l-.11.11.08-.06a3.19,3.19,0,0,1-.39.22,3.5,3.5,0,0,0,.53-.31l.09-.06s0,0,0,0-.28.08-.28.08q-.33.14-.66.3Z" transform="translate(0 -0.02)"/><path class="cls-4" d="M41.93,127.63v.2l0-.21a1.91,1.91,0,0,0-.07.59c0,.22,0,.44,0,.65,0,.42,0,.84,0,1.26a4,4,0,0,0,.07.59,1.53,1.53,0,0,0,.11.42s0,.12.09.12.09-.26.09-.28c0-.37,0-.75,0-1.12,0-.17,0-.35,0-.52a6.49,6.49,0,0,0-.12-1.32l.09.83v-.29a3.41,3.41,0,0,0-.15-1s0-.17-.1-.16-.07.21-.07.24Z" transform="translate(0 -0.02)"/><path class="cls-4" d="M47.46,127.64a1,1,0,0,0-.32.7,1.25,1.25,0,0,0,.16.65,5,5,0,0,0,1,1.29,2.71,2.71,0,0,0,.52.43c.06,0,.24.16.32.08l0,0-.2,0a.49.49,0,0,0,.19.07c.23,0,0-.4,0-.45a3.47,3.47,0,0,0-.74-.88l.26.25,0,0,.13.14a2.54,2.54,0,0,0-.28-.29l-.14-.13.11.1.72,1a3.37,3.37,0,0,0-.61-.94c-.13-.15.26.32.14.18s.22.31.15.2.14.26.1.18l0-.08.08.19c0-.09-.07-.17-.11-.26l.09.2a1,1,0,0,1-.07-.23l0,.14a.88.88,0,0,1,0-.48l0,.09a1.05,1.05,0,0,1,.17-.29c.09-.1,0-.32-.07-.4a3.55,3.55,0,0,0-.5-.7,3.84,3.84,0,0,0-.62-.59c-.09,0-.3-.22-.39-.13Z" transform="translate(0 -0.02)"/><path class="cls-4" d="M95.06,126.13l-.17.13a1.63,1.63,0,0,0-.2.17l-.08.1s-.1,0-.13.09a.68.68,0,0,0-.12.24,2.31,2.31,0,0,0-.15.53,2.54,2.54,0,0,0,0,.55.71.71,0,0,0,0,.26.55.55,0,0,0,.19.15,1.81,1.81,0,0,0,.46.17l.66.14a1.28,1.28,0,0,0,.39,0,.74.74,0,0,0,.25-.05s0-.07.06-.13,0-.36,0-.53a3.69,3.69,0,0,0,0-.58c0-.11,0-.21,0-.31a.68.68,0,0,0,0-.14s0,0,0-.07a.15.15,0,0,1,0-.09.9.9,0,0,1,0-.43,4.86,4.86,0,0,0-.55-.14l-.39-.07a.33.33,0,0,0-.17,0Z" transform="translate(0 -0.02)"/><path class="cls-4" d="M101.36,125.37a2.43,2.43,0,0,0-.35.49,1.46,1.46,0,0,0-.16.61,2,2,0,0,0,.53,1.42,3.33,3.33,0,0,0,.94.64,1.9,1.9,0,0,0,.4.14.3.3,0,0,0,.29,0c.1-.1,0-.35,0-.48a4.5,4.5,0,0,1-.08-.51c0-.17,0-.35,0-.52a3.63,3.63,0,0,1,0-.57v.08c0-.09,0-.19,0-.28s0-.22-.13-.31a2.34,2.34,0,0,0-.52-.42,2.4,2.4,0,0,0-.61-.28c-.1,0-.25-.07-.34,0Z" transform="translate(0 -0.02)"/><path class="cls-4" d="M106.1,126.89c0,.17,0,.35,0,.52v0a1.87,1.87,0,0,0,0,.53,2.73,2.73,0,0,0,0,.5,1,1,0,0,0,.22.43,1.46,1.46,0,0,0,.16.19.26.26,0,0,0,.09.09.78.78,0,0,0,.22,0,1.06,1.06,0,0,0,.57-.28,6.33,6.33,0,0,0,.46-.44,1.39,1.39,0,0,0,.27-.32.74.74,0,0,0,.1-.46.84.84,0,0,0-.13-.29c-.08-.15-.13-.32-.2-.47s-.13-.25-.18-.39a1.66,1.66,0,0,1-.06-.21,1.08,1.08,0,0,0-.08-.19,1.91,1.91,0,0,1-.06-.48s-.29.17-.24.14a4.18,4.18,0,0,0-.5.43,5.32,5.32,0,0,0-.47.48c0,.07-.14.15-.15.24Z" transform="translate(0 -0.02)"/></g></g></svg>