<svg xmlns="http://www.w3.org/2000/svg" viewBox="0 0 185.14 154.99"><defs><style>.cls-1{isolation:isolate;}.cls-2{fill:#fff;}.cls-3{fill:#e8ebe4;}.cls-3,.cls-5,.cls-8{mix-blend-mode:multiply;}.cls-4{fill:#fff0ab;}.cls-5{fill:#f5db9c;}.cls-6{fill:#ffa180;}.cls-7{fill:#ffdbbd;}.cls-8{fill:#ffd6bd;}.cls-9{fill:#ffedde;}.cls-10{fill:#ffd1b5;}.cls-11{fill:#231f20;}</style></defs><title>sheep</title><g class="cls-1"><g id="Layer_2" data-name="Layer 2"><g id="Layer_1-2" data-name="Layer 1"><path class="cls-2" d="M19.13,112c-.92,6.8,7.59,16.85,8.26,24.51,3.21.62,6.22,2.71,9.57,3.54,3.79.95,7.52,1.19,11.46,1.95,8,1.56,15.14,4.19,23.72,3.74,16.18-.85,29.77-5.51,44.23-13.12,12.64-6.66,32.19-15.21,21.79-32.16-2-3.27-5.21-4.64-7.62-7.37s-3.06-5.88-6.47-8c-4.84-3-11.6-4.16-17.22-5.42-11.85-2.67-25-4.88-37.11-5.2-11.23-.29-26.39,2.06-35.67,9" transform="translate(0 -0.36)"/><path class="cls-3" d="M32.44,125.47c2.18,6.61,20.57,8.78,25.72,10.15,3.38.89,21.11,5,16,9.56,3.87,1.44,16.58,2.63,18.15-2.41.79-2.56-6.16-15.25-8-17.26-6.22-6.86-38.94-10.66-41.55,1.46" transform="translate(0 -0.36)"/><path class="cls-2" d="M86.6,13.72C79.42.09,63.54-.14,51.39,7.43c-8.68,5.42-21.87,20.8-15.92,31.74-12.54-.46-22.6,4.94-28.86,15.52-3,5.09-5.31,10.78-4.24,16.86,1.3,7.33,5.87,8,10,12.44-12.6,2.08-12.3,21-8,30,2.76,5.8,8.82,10.46,14.82,12.43,6.35,2.09,12-.74,18.24.18,1.11,8.71,17.29,0,24.17,2.82,8.19,3.38,15.46,7,21.68-.48,3.94,9.41,10.42,20.75,22.65,17,12.82-4,11.8-18,7.43-28,6.36,4.21,18.17,3.17,24.86.31,7-3,14.61-13.34,7.42-20.12,8.36-2.2,15.63-2,22.83-8.3a41.17,41.17,0,0,0,14.08-27.39c1.92-18.47-8.32-34.2-25.54-39.6-9-2.81-16-2.39-25-.94,1.86-4.09-2.86-11.42-5.69-14.48-4.12-4.43-11.53-5-17.5-4.71A42.13,42.13,0,0,0,93.36,6c-4.87,2.25-7.23,6.25-10.62,10.1" transform="translate(0 -0.36)"/><path class="cls-3" d="M69.73,129.86c5.45-2.84,10.62-5.12,15.41-9.13,3.67-3.08,7.34-6.33,11.67-8.47,4.78-2.36,4.55-2.22,6.73-6.58,3.18-6.38,9.16-10.87,12.81-16.91,6.05-10,11-20.73,22.18-26,2.82-1.32,6.79-2.41,8.9-5.07,6.6-8.31-8.94-8-14.57-7.35-11.06,1.29-18.6,12-20.24,22.17a61.17,61.17,0,0,1-19.28,35.2c-5,4.49-11.63,7.89-17.35,11.54-1.77,1.13-6.77,3.47-7.61,5.41-1.3,3,1.31,6.06,3.76,2.78" transform="translate(0 -0.36)"/><path class="cls-4" d="M117,50.35c-5.21-1.67.68-15.65,3.24-18.9,4.82-6.15,18.7-7.76,25.19-4.11,15.14,8.51,4.65,39.91-10.24,31.32-2.63-1.52-4.09-4.37-7-5.35-1.55,2.35-4.35,8.82-7.31,9.09-4.76.44-6.64-7.33-5.31-10.61" transform="translate(0 -0.36)"/><path class="cls-4" d="M52.86,34c0-8.79,1.64-14.46-4.84-22.18-4.46-5.3-13.34-7.57-19.36-3.49C23.13,12,20,21.81,20.68,28.18c.8,7.57,8,10.46,13,4.5,2.38,3.18,4.7,7.92,8.09,9,6,1.91,11.41-2.59,10.6-8.67" transform="translate(0 -0.36)"/><path class="cls-5" d="M122.26,61.91c.43-3,2.72-5.21,5.3-6.79,3.88,4.05,11.12,5,16.27,2.82,3.44-1.45,10.51-7.63,7.22-11.37-4.71,3.81-10.34,6.89-16.75,6.19-10-1.1-4.37-8.56-3.43-14.38-7.12-1.72-7.68,9-12.38,11.09.67,3.4.59,11.65,4.73,12.44" transform="translate(0 -0.36)"/><path class="cls-6" d="M48.52,100.14a46.66,46.66,0,0,0-28.84-1.31c0,.22-.06.44-.08.66-1.57,14.81,11.16,28.05,25,30a72.45,72.45,0,0,0,9,.69,69.56,69.56,0,0,0,4.91-9C62.52,112.14,56.52,104.14,48.52,100.14Z" transform="translate(0 -0.36)"/><path class="cls-7" d="M132.79,63.43c-4.08-.94-6.18-3.76-10.94-3.52,1.22-12-17.07-18.69-25.62-22.48A60.67,60.67,0,0,0,73.58,32C58.68,31.43,45.5,35.72,35,46.54c-3.27-2-7.94-6.74-12-6.24-.69.09,10.78,12.13,11.4,13.2-.19-.33-3,10.29-3.25,11.11-.85,3.32-2.56,5.11-4.16,8-4.12,7.41-6.4,17.73-7.36,26.23a46.66,46.66,0,0,1,28.84,1.31c8,4,14,12,10,21a69.56,69.56,0,0,1-4.91,9c14.25.21,27.58-4.09,38.39-14.73,3.84-3.78,6.94-8.25,10.6-12.11,4.13-4.35,8.62-8.53,11.48-13.92,2.53-4.79,3.23-11,6.3-15.42,2.77-4,8.21-6.57,12.39-8.76A13.05,13.05,0,0,0,132.79,63.43Z" transform="translate(0 -0.36)"/><path class="cls-5" d="M22.5,30.59c-2.12,5,4.34,4.15,6.94,4.16,3.63,0,1.43-1.75,4.72.79,1.69,1.31,2.27,4.63,4.35,5.54,2.26,1,5.15-1.7,7.05-3.38-3-4.34-5.78-4.56-6.67-10-.67-4.08-1-8.93-6.21-9.56a7.38,7.38,0,0,1-.19,9.91c-3.21,3.69-8.57.4-10.54,2.56.24.91.63,0,1,.46" transform="translate(0 -0.36)"/><path class="cls-2" d="M30.32,13.38c-.67,1.09-.91,1.38-.74.87l-.19.27a3.76,3.76,0,0,0,.93-1.14c.07-.16.11-.33.17-.46s.23-.43.1-.23a.9.9,0,0,1,.14-.2c-.13.16-.15.19-.06.08a3.68,3.68,0,0,1-.4.39c.27-.23-.46.33-.42.31s.26-.17,0,0,0,0,0,0c.27-.1-.26.08,0,0a9.49,9.49,0,0,1,1-.3l.15,0,.29,0,.6,0c.43,0,.85,0,1.27.06a8.89,8.89,0,0,1,2.38.62,4,4,0,0,0,1.33.33,2.29,2.29,0,0,0,1.34-.56,5.56,5.56,0,0,0,.84-.77,1.66,1.66,0,0,0,.48-.8,1.15,1.15,0,0,0-.64-.92,5.73,5.73,0,0,0-1.27-.48,8.57,8.57,0,0,0-5.11.18,9.47,9.47,0,0,0-3.32,2.19c-.56.55-1.49,1.54-1.15,2.42.1.26,1.09-.5,1.14-.54a2.91,2.91,0,0,0,1-1.18Z" transform="translate(0 -0.36)"/><path class="cls-2" d="M134,30.39c.2,0,.08,0-.07,0,.16,0,.3.06.46.07l.51,0H135l.31.06.66.14a17.87,17.87,0,0,1,2.68.84,9.3,9.3,0,0,1,4.88,4.17c.32.61.53,1.26.81,1.89.14.33.26.67.4,1a1.93,1.93,0,0,0,1,1c.26.16.87,0,1.15,0a2.3,2.3,0,0,0,1.1-.34,2.11,2.11,0,0,0,.8-1.07,4.52,4.52,0,0,0-.43-3,8.75,8.75,0,0,0-2.25-2.77,12.12,12.12,0,0,0-6.71-2.64l-1.22-.06h-1.23c-.39,0-.79,0-1.19.07s-.6.08-.9.14.25,0,.06,0l-.45.09c-.25.05-1.27.43-.44.44Z" transform="translate(0 -0.36)"/><path class="cls-2" d="M128.15,30.78a7.15,7.15,0,0,0,2.61-.15c.62-.16,1.49-.34,1.77-1,.09-.2-.23-.44-.35-.53a1.82,1.82,0,0,0-.91-.42c.35.1.41.12.19,0a1,1,0,0,0-.3-.05l-.41,0a6,6,0,0,0-.73.05c-.45.07-.88.18-1.32.29-.75.18-1.38.31-2.1.46-.12,0-.1.19-.08.27a1,1,0,0,0,.33.41,2.81,2.81,0,0,0,1.3.65Z" transform="translate(0 -0.36)"/><path class="cls-8" d="M100.57,40.23c11.38,8.61,10.54,31,4.94,42-7,13.72-20.8,22.8-33.36,31.22-8.21,5.51-17.73,11.75-28,10.62-7.67-.83-17.39-5.36-23.63-10.43,6.55,13.71,24,19.45,38.13,16.69,16.23-3.18,31.31-11.8,43.36-23.6,6-5.86,10.73-12.45,13.5-20.24,2.55-7.14,3-13.08,10.1-17,2.69-1.5,8.7-4.42,5-8.23-1.51-1.55-3.79-.11-5.44-.82-2.24-1-1.84-1.38-3.36-3.36-3.78-4.9-7.7-11.28-13.4-13.62a12.9,12.9,0,0,0-4.93-1.33" transform="translate(0 -0.36)"/><path class="cls-8" d="M54.31,104.32c3,8.21-.11,15.05-8.69,17.82s-13.6-3.78-21.5-4.84c6.54,7.14,16,16.66,26.33,14,6-1.54,6.69-6.88,8.18-12.06,2-6.87-.45-7-2.88-13" transform="translate(0 -0.36)"/><path class="cls-9" d="M46.32,44.57A45,45,0,0,1,65.68,41.3a83.19,83.19,0,0,1,10.08,1.05c3.42.54,6.78,1.56,10.25,1.49.46,0,2.58-2.17,2.24-2.38-2.63-1.69-6.28-1.92-9.33-2.4a76.93,76.93,0,0,0-10.6-1C61.25,38,54,39,47.84,42.63a5.29,5.29,0,0,0-1.44,1.31c-.12.15-.61.86-.08.63Z" transform="translate(0 -0.36)"/><path class="cls-9" d="M90.55,45.14a1.7,1.7,0,0,0,.19.35l0-.16-.08.09a.14.14,0,0,0,0,.19,1.77,1.77,0,0,0,.17.24l-.06-.11c0,.22.49.39.66.44a5.36,5.36,0,0,0,1,.23l.5.05h.22a4,4,0,0,0,.69,0c.53-.08.47-.08-.19,0a6.25,6.25,0,0,0,1-.1,3.27,3.27,0,0,0,.54-.13c.1,0,.58-.21.39-.4a1.07,1.07,0,0,0-.47-.18,2.82,2.82,0,0,0-.58-.1l.48.11a2.73,2.73,0,0,0-.63-.14l-.29,0-.54,0c-.11,0,.29,0,.1,0l-.12,0a1.14,1.14,0,0,1-.25-.06c-.14,0,.15.06.05,0l-.1,0a2.73,2.73,0,0,0-.64-.16l.44.1a1.73,1.73,0,0,1-.31-.14,1.76,1.76,0,0,0-1-.12H92l.43.14a1.28,1.28,0,0,1-.23-.29c-.06-.1-.33-.13-.42-.13a2,2,0,0,0-.55,0,1.71,1.71,0,0,0-.49.14c-.06,0-.27.13-.23.23Z" transform="translate(0 -0.36)"/><path class="cls-10" d="M24.55,103.1c.15,0,.35.16.54.18a3.87,3.87,0,0,0,.83-.06,19,19,0,0,1,2-.07,25.43,25.43,0,0,1,4.52.5A38.86,38.86,0,0,1,37,104.8c.72.22,1.42.43,2.16.59a5.28,5.28,0,0,0,1,.14,2.94,2.94,0,0,0,1.37-.4,1.81,1.81,0,0,0,.91-1.56,1.65,1.65,0,0,0-.41-1,3.06,3.06,0,0,0-.91-.6,12.4,12.4,0,0,0-2.06-.76,31.71,31.71,0,0,0-4.74-1,18.81,18.81,0,0,0-4.74-.09,12.65,12.65,0,0,0-2.2.46,5.67,5.67,0,0,0-1.06.41c-.41.2-.69.53-1.07.76-.18.11-1.1,1.42-.63,1.38Z" transform="translate(0 -0.36)"/><path class="cls-3" d="M174.3,33.48c3.91,1.86,4.43,15.65,4.34,20.14a43.1,43.1,0,0,1-7.58,23.25c-8.88,13-22.09,18.95-37,12.95,6.18,5.24,12.8,15.93,8.54,24.05,6.39-.92,4.21-11.16,3.36-15.24,14.31,3.52,30.93-10.46,36-22.85,5.59-13.7,4.28-29.18-6.76-39.77a5.26,5.26,0,0,0-.85-.6" transform="translate(0 -0.36)"/><path class="cls-3" d="M88.52,139.5c5.55,6.4,16.9,5.84,21.8-1.13,4.47-6.35,2.92-21.48-.52-27.95,6,5.17,13,6.64,19.27,8.36-4.28,1.27-9.53-.39-13.47-1.87,1.44,7.45,3.86,17.8-1.89,24.63-5.32,6.32-18.18,6.92-23.26-.11" transform="translate(0 -0.36)"/><path class="cls-3" d="M1.3,102.88C-5.44,109.77,16,125,22,116.54c1.33,7.77-12.06,9-16.54,5.73-5.22-3.8-6.29-13-4.2-18.43" transform="translate(0 -0.36)"/><path class="cls-3" d="M7.56,50.83c-5.38,3.67-9,16.65-4.44,21.71,5.49,6.1,14,5.58,20.27,2.43-1,8.44-5.69,9-13.42,7.18C4.21,80.77-.9,75,.82,68.66" transform="translate(0 -0.36)"/><path class="cls-3" d="M111.17.71c5.86-.17,12.08,8.76,12.54,14,.51,5.7-2.71,11.38-5.84,15.71,5.93-6.42,14.06-7.69,22.07-9-3,0-6,.08-8.95-.07,1.14-4.73-.45-8.27-3.55-11.84-3.89-4.47-7.17-4.19-11.45-6.4" transform="translate(0 -0.36)"/><path class="cls-3" d="M68.76,3.6c6-3.52,13.09,10,13.5,14.8,1.06-4.78,6.3-10,10.43-12.89-4.57.91-7.59,4.08-11.4,2.43S76.13,3.27,71.17,3.6" transform="translate(0 -0.36)"/><path class="cls-3" d="M113.58,35.41c-5.5,5.48-11.76,1.67-17.84-.36-5.16-1.73-15.28-.79-17.9-6.78-3.88,1-7.66,3.47-12.34,4.36-4.4.83-10.5,0-14.37,2.35,3.67-2.47,11.65-2.06,16.19-2.46a43.47,43.47,0,0,1,16.87,1.34C94,36.8,106.81,39.66,115,46.34c-.46-3.27-2.12-6.46-1.85-10" transform="translate(0 -0.36)"/><path class="cls-7" d="M28.28,135.65c0,6.18,1.08,16.56,7.14,19.71.39-6,1.94-18.13-6.17-18.75" transform="translate(0 -0.36)"/><path class="cls-7" d="M85.15,145.29c-.59,0-.65-.55-1,0,.92,2.74,1.55,6.69,4.4,8.29,1.8-2.14,1.88-5.86.87-8.66a8.67,8.67,0,0,0-4.73.41" transform="translate(0 -0.36)"/><path class="cls-7" d="M122.26,130.35c-.08,1.21,1.17,3.45,1.51,5.24,2.85-.89,3.37-5.38,4.2-8.08-2,1.18-5.53,2.75-6.68,3.8" transform="translate(0 -0.36)"/><path class="cls-7" d="M135.75,122.64c-1,2,.34,5.76,2.41,7.28,2.12-2.8,3.9-10.3,1.82-13.49-2.4,1.75-3.17,5.4-4.23,7.65" transform="translate(0 -0.36)"/><path class="cls-11" d="M40.6,74.47a3.54,3.54,0,1,1-2.92-4.07A3.53,3.53,0,0,1,40.6,74.47Z" transform="translate(0 -0.36)"/><path class="cls-11" d="M94.24,83.45a3.54,3.54,0,1,1-2.92-4.06A3.55,3.55,0,0,1,94.24,83.45Z" transform="translate(0 -0.36)"/><path class="cls-11" d="M54.41,34.79c7.12-2.6,15.27-2.36,22.69-1.57a80.49,80.49,0,0,1,27.38,7.61,42.71,42.71,0,0,1,10.84,7.6c.13.13.46.09.57.21A35.06,35.06,0,0,0,106,41.5a72.84,72.84,0,0,0-11.54-4.73A84.1,84.1,0,0,0,67,32.54a38.12,38.12,0,0,0-12.8,2.17s.15.1.2.08Z" transform="translate(0 -0.36)"/><path class="cls-11" d="M35.5,50.25c-2.82,8.3-6.37,16.28-9.94,24.27-2.65,5.92-5.48,11.85-7.24,18.1-1.36,4.81-1.84,9.86-.38,14.72,1.68,5.57,5.37,10.29,9.5,14.28C32,126,37,129.81,43.3,131.37a38.55,38.55,0,0,0,17.36-.06c14-3,26.65-11.31,36.93-21,11.12-10.48,20.6-23.78,24.94-38.55.55-1.85,1-3.73,1.36-5.63,0-.21-.42-.77-.44-.71a93.15,93.15,0,0,1-22,38.77c-9.62,10.32-21.57,19.13-35,23.74-10.82,3.71-23.61,4.56-33.33-2.46C28,121.74,22.62,116.85,19.81,111c-2.2-4.57-2.35-9.63-1.39-14.54,1.15-5.87,3.55-11.46,5.86-17,3.15-7.45,6.28-14.89,9-22.53.78-2.23,1.56-4.46,2.29-6.71l0,0Z" transform="translate(0 -0.36)"/><path class="cls-11" d="M52,33.13c0-8.59-2-18.81-9-24.56a12.74,12.74,0,0,0-8.23-3.1,11.91,11.91,0,0,0-8,3.61c-5.82,5.72-7.5,15-4.81,22.6,1,2.83,3.16,6.26,6.62,5.88,2.11-.23,3.93-1.68,5.35-3.15a14.75,14.75,0,0,0,3.78-5.82c1-3.36,0-7.21-3.61-8.3-4.29-1.28-7.89,2.05-9.33,5.79-.12.3-.05,1.86.24,1.15,1.33-3.14,4.16-5.8,7.79-5.42,2.64.27,5.28,2.5,4.66,5.38-.49,2.28-2.28,4.34-3.9,5.91a8.63,8.63,0,0,1-4.83,2.73c-3.15.35-5.19-2.53-6.2-5.13a18.79,18.79,0,0,1,4.71-20.45,11.58,11.58,0,0,1,14.68-.91c7.52,5.19,9.61,15.45,9.83,24,0,.53.25.11.25-.19Z" transform="translate(0 -0.36)"/><path class="cls-11" d="M31.19,34.26a9.51,9.51,0,0,1,2.05.81,12.54,12.54,0,0,1,1.85,1.13,8.81,8.81,0,0,1,1.54,1.51,6.91,6.91,0,0,1,.66,1,4.38,4.38,0,0,0,.54.85c.08.08.12-.2.12-.21a1.75,1.75,0,0,0,0-.56,7,7,0,0,0-2.78-4,7.23,7.23,0,0,0-1.86-1,17,17,0,0,0-2.12-.46c-.1,0-.17.86,0,.91Z" transform="translate(0 -0.36)"/><path class="cls-11" d="M28.25,28.23c.52.81,1,1.62,1.62,2.38a12.87,12.87,0,0,0,2.58,2.63c.06,0,.1.08.07,0s-.19-.21-.26-.27a21.29,21.29,0,0,1-3.66-4.47,1.23,1.23,0,0,0-.26-.25s-.14-.11-.09,0Z" transform="translate(0 -0.36)"/><path class="cls-11" d="M30.37,26.29a12.23,12.23,0,0,0,1.92,2.5,16.66,16.66,0,0,0,1.44,1.34,3.37,3.37,0,0,0,.75.55c.3.12.58.29.87.44s.82-.34.69-.5a5.42,5.42,0,0,1-.48-.67,3.15,3.15,0,0,0-.63-.69c-.44-.45-.88-.91-1.34-1.35s-.85-.84-1.27-1.26a11.34,11.34,0,0,1-.95-1c-.18-.23-1.14.39-1,.65Z" transform="translate(0 -0.36)"/><path class="cls-11" d="M115.74,43.63c-2-5.84,1.06-11.44,6.08-14.53a22.42,22.42,0,0,1,18.68-1.78c6.64,2.42,11.53,9.21,11.15,16.4-.27,5.23-3.33,10.77-8,13.37-5,2.79-11.7.42-14.92-4A7.85,7.85,0,0,1,129.21,43a3,3,0,0,1,4-.29c1.89,1.22,2.62,3.68,3.55,5.59,0,0,.69-.26.69-.35-.16-3.46-2.73-7.74-6.7-6.1a7.42,7.42,0,0,0-4.78,7.46c.35,5.19,6,9,10.81,9.47s9.72-2.62,12.5-6.49A16.72,16.72,0,0,0,151.55,37a16,16,0,0,0-6.85-8.77c-6.09-3.64-14-3.29-20.37-.5-5.34,2.36-10.89,7.1-9.52,13.58a15,15,0,0,0,.74,2.45s.2-.08.19-.1Z" transform="translate(0 -0.36)"/><path class="cls-11" d="M123.47,63.25a15.49,15.49,0,0,1,2-4.71,11.86,11.86,0,0,1,1.62-1.92c.32-.31.66-.62,1-.92a3.52,3.52,0,0,0,1.05-1.09c0-.09-.12-.73-.23-.75-.46-.08-.93.35-1.29.6a8.36,8.36,0,0,0-1,.85,11.41,11.41,0,0,0-1.61,2,13.5,13.5,0,0,0-1.79,5,1.42,1.42,0,0,0,.13.61s.16.38.17.32Z" transform="translate(0 -0.36)"/><path class="cls-11" d="M138,52c.56,2.42.76,4.92,1.49,7.3a1.13,1.13,0,0,0,.14.36s.07.11.05,0c-.45-2.4-.78-4.86-1.44-7.21a1.57,1.57,0,0,0-.19-.51c-.07-.08-.08-.09-.05,0Z" transform="translate(0 -0.36)"/><path class="cls-11" d="M141.64,51.3a5.2,5.2,0,0,0,.06,3,5,5,0,0,0,.7,1.31,5.21,5.21,0,0,0,.56.59,1.54,1.54,0,0,0,.87.41c.15,0,.57,0,.65-.16s-.06-.39-.2-.55a3.68,3.68,0,0,1-.45-.59,6.18,6.18,0,0,1-.66-1.34,6.09,6.09,0,0,1-.26-2.84c0-.17-1.19-.12-1.27.22Z" transform="translate(0 -0.36)"/><path class="cls-11" d="M32.84,44.86C29.63,41.58,25,40.09,20.44,40c-.05,0-.07,0-.05.09a19.53,19.53,0,0,0,4.95,6.42A24.07,24.07,0,0,0,29,49.14c.66.39,1.33.75,2,1.08a4.65,4.65,0,0,0,1.86.65c.14,0-.29-.35-.3-.35C31.08,49.62,29.44,49,28,48a19.38,19.38,0,0,1-3.76-3.36,17.72,17.72,0,0,1-1.42-1.9c-.21-.32-.41-.64-.6-1l-.31-.56c-.13-.27-.17-.32.16-.35a13.06,13.06,0,0,1,2.92.32,19.48,19.48,0,0,1,2.67.71,13.45,13.45,0,0,1,5,2.91s.23.12.16,0Z" transform="translate(0 -0.36)"/><path class="cls-11" d="M120.73,62.35a5.19,5.19,0,0,1,1.52-.36c.64-.13,1.27-.26,1.92-.35a19,19,0,0,1,4.64-.11,8.82,8.82,0,0,1,4.13,1.25,4.15,4.15,0,0,1,.73.66c.12.13.29.27.27.42s-.43.41-.56.52a15.74,15.74,0,0,1-2.73,1.84,18.88,18.88,0,0,1-3.41,1.42c-1.16.35-2.37.55-3.53.89-.18,0,.46.46.57.47,4,.43,8.22-1.75,11.07-4.4a.18.18,0,0,0,0-.16c-1.73-2.64-5-3.77-8.06-4a15.42,15.42,0,0,0-4.34.3,6.65,6.65,0,0,0-1.67.54,7.64,7.64,0,0,0-1,.75c-.06,0,.32.34.42.29Z" transform="translate(0 -0.36)"/><path class="cls-11" d="M19.54,104.17c.52-7.75,12.72-6.84,17.92-6.07a40.06,40.06,0,0,1,13.67,4.52c3.72,2.1,7,5,8,9.35,1.28,6-2.59,11.21-6,15.67,0,0,.42.51.44.49,4-3.44,7.46-8.83,6.68-14.33-.59-4.17-3.6-7.65-6.83-10.14a34.06,34.06,0,0,0-13.33-5.9,31.67,31.67,0,0,0-13.66-.47C23,98,19,100.08,19.53,104.16Z" transform="translate(0 -0.36)"/><path class="cls-11" d="M52.28,10.64c.32-4.25,5.42-6.72,9-7.75a20.28,20.28,0,0,1,13.19.45A16.66,16.66,0,0,1,80.8,8.15s.26-.31.22-.39C78.1,2.85,72.44,1,67,1.34c-4.53.29-9.69,2-12.83,5.42a6.93,6.93,0,0,0-2,4.09s.12-.14.13-.21Z" transform="translate(0 -0.36)"/><path class="cls-11" d="M89.64,7.55C99-3.77,118.35-.16,127.1,10.09a21.77,21.77,0,0,1,4.81,10.16c0,.1.51,0,.51-.07-.08-7.6-5.95-13.49-12.42-16.62a30.18,30.18,0,0,0-21-2.2,18.09,18.09,0,0,0-9.43,6.2s.09,0,.11,0Z" transform="translate(0 -0.36)"/><path class="cls-11" d="M17.42,45.16C9.77,46.25,4.55,52.26,2,59.24-.09,65.12-.79,73,3.73,78A11,11,0,0,0,13,81.39s-.09-.14-.14-.14c-3.27-.06-6.73-1-8.86-3.6A13.87,13.87,0,0,1,1.4,69.37,26.84,26.84,0,0,1,8.3,50.9a16.27,16.27,0,0,1,9.27-5.6s-.09-.15-.15-.14Z" transform="translate(0 -0.36)"/><path class="cls-11" d="M6.26,89.44C1.05,92.2.06,99.77.11,105c.06,5.91,1.52,12.81,6.34,16.72,2.2,1.79,5.36,2.86,8,1.39.09,0-.38-.46-.5-.45-2.56.24-5.25.33-7.36-1.4s-3.21-4.37-4-6.82a30.93,30.93,0,0,1-.25-18.1c.77-2.47,2.07-5.13,4.32-6.55.06,0-.3-.44-.42-.37Z" transform="translate(0 -0.36)"/><path class="cls-11" d="M85.59,130a10.14,10.14,0,0,0,.34,7.87,14.48,14.48,0,0,0,7,6.35c6.4,3.1,15.6,3.46,20.69-2.29,4.63-5.23,3-13.32,2-19.57-.14-.94-.28-1.88-.41-2.83-.07-.5-.13-1-.19-1.52s-.21-.5.16-.52c.21,0,.63.28.81.37a38,38,0,0,0,5.19,1.92,32.4,32.4,0,0,0,10.72,1.3,17.49,17.49,0,0,0,10.19-3.71c3.18-2.64,4.74-6.65,5.36-10.63,0,0,0-.16,0-.14-.94,5.26-3.95,9.77-8.94,11.94-4.66,2-10.08,1.92-15,.93a40.06,40.06,0,0,1-8.68-2.76s0,.25,0,.25c.44,4.3,1.35,8.57,1.58,12.9.22,4-.28,8.18-3.15,11.16-5.72,5.94-15.76,5.14-22.35,1.2A13.56,13.56,0,0,1,86.36,138a8.58,8.58,0,0,1-.71-7.65c0-.1-.07-.32-.06-.36Z" transform="translate(0 -0.36)"/><path class="cls-11" d="M140.08,20.78c8.41-1.65,17.36-.92,24.78,3.64C171.45,28.48,176.17,35,179,42.18a46.6,46.6,0,0,1,2.67,23.41,39.12,39.12,0,0,1-9.89,21.32C165.49,93.51,157,97,148.08,98.13c-1.29.17-2.59.31-3.89.4-.11,0,.24.41.39.4,9.54-.14,19.07-3.09,26.23-9.57a37.87,37.87,0,0,0,11.46-21.19A47.49,47.49,0,0,0,180.41,44a38.6,38.6,0,0,0-13.68-18.86,31.65,31.65,0,0,0-23.4-5.34c-1.2.19-2.38.44-3.56.73-.09,0,.19.32.31.3Z" transform="translate(0 -0.36)"/><path class="cls-11" d="M29.09,136.09a22.55,22.55,0,0,0,6.76,17.65c.23.22.72-.74.75-.88,1.08-5.2-.89-10.44-2.81-15.2-.1-.24-.62.52-.62.66a8.31,8.31,0,0,1,0,.87.1.1,0,0,0,0,.1A42,42,0,0,0,43,142.73a98.22,98.22,0,0,0,10.32,2.09,144.67,144.67,0,0,0,22.2,1.65c4,0,8.4.1,12.35-.85.11,0,.45-.48.29-.49a38.07,38.07,0,0,0-5.34.14c-1.8.09-3.59.15-5.39.16q-5.7.06-11.39-.36a127.59,127.59,0,0,1-22.3-3.73c-2-.51-4-1.08-5.93-1.7-1-.32-2-.59-3.07-.87-.2-.05-.9-.12-1-.36s.06-.53.07-.69l-.62.67c1.42,5,3.71,9.89,2.65,15.22l.75-.88A23.15,23.15,0,0,1,29.22,136c0-.07-.13.08-.13.13Z" transform="translate(0 -0.36)"/><path class="cls-11" d="M84.35,146.28A14.34,14.34,0,0,0,86,150.53a12.29,12.29,0,0,0,3.13,3.53,4.89,4.89,0,0,0,.53-1.25c.06-1.18.14-2.37.19-3.55,0-.54,0-1.08.08-1.62a7.13,7.13,0,0,0,0-1.6s-.11.16-.12.17a1.53,1.53,0,0,0-.14.41,37.81,37.81,0,0,0-.33,3.83c-.07,1.19-.13,2.39-.19,3.58l.53-1.25a14.44,14.44,0,0,1-3.19-3.29,14.92,14.92,0,0,1-1.9-3.65c0,.07-.22.32-.19.44Z" transform="translate(0 -0.36)"/><path class="cls-11" d="M115.18,134.67c3.7-.24,7.18-2.35,10.22-4.29,1.68-1.07,3.31-2.21,4.94-3.35a56,56,0,0,0,5-3.53c.13-.11.19-.92,0-.83a24.11,24.11,0,0,0-4.71,3.07c-1.63,1.15-3.26,2.31-4.93,3.41a45.21,45.21,0,0,1-10.44,5c-.11,0-.14.52,0,.51Z" transform="translate(0 -0.36)"/><path class="cls-11" d="M135.09,122.87a18.82,18.82,0,0,0,1,3.84,8.34,8.34,0,0,0,2.6,3.17c.06,0,.17.14.22,0a41.32,41.32,0,0,0,2.39-8.09,30.12,30.12,0,0,0,.43-4,11.13,11.13,0,0,0-.38-4c0-.06-.38-.57-.43-.47a3.23,3.23,0,0,0-.08,1.52c0,.68,0,1.36,0,2a30.87,30.87,0,0,1-.42,4.06,41.88,41.88,0,0,1-2.29,8l.22,0a5.21,5.21,0,0,1-2-2.68c-.32-1-.55-2-.86-3.06,0-.12-.47-.6-.43-.43Z" transform="translate(0 -0.36)"/><path class="cls-11" d="M121.26,130.13c.33.89.18,1.87.58,2.74a5.37,5.37,0,0,0,3.41,2.43s.21.06.23,0c.52-1.31,1-2.62,1.46-4a14.09,14.09,0,0,0,.51-2,5.2,5.2,0,0,0,0-2.08c0-.1-.51-.46-.57-.35a7.31,7.31,0,0,0-.56,1.83c-.15.65-.3,1.3-.5,1.93-.4,1.33-.91,2.63-1.41,3.92h.23a3.35,3.35,0,0,1-1.35-.63,2.38,2.38,0,0,1-.55-1,15.5,15.5,0,0,0-.71-2.41.91.91,0,0,0-.4-.35s-.36-.16-.32-.05Z" transform="translate(0 -0.36)"/></g></g></g></svg>