<svg xmlns="http://www.w3.org/2000/svg" viewBox="0 0 149.84 152.49"><defs><style>.cls-1{isolation:isolate;}.cls-2{fill:#fcd475;}.cls-3,.cls-5{fill:#543836;}.cls-4{fill:#fffac9;}.cls-5,.cls-6{mix-blend-mode:multiply;}.cls-6{fill:#f2c975;}.cls-7{fill:#fcedad;}.cls-8{fill:#231f20;}</style></defs><title>tiger</title><g class="cls-1"><g id="Layer_2" data-name="Layer 2"><g id="Layer_1-2" data-name="Layer 1"><path class="cls-2" d="M9.25,60.94l.15-.55c1.61-5.63,4.27-8.82,7.47-13.45,2.11-3,6.5-9.91,3.35-13.53-4.32-5-13.32-1.8-16.65-9.2C1.23,19,1.18,12.36,5.29,8.07c8.32-8.69,32.3-4.31,31.48,9.87,21.45-10.41,51.18-5.4,71.15,4.6,3.91-11,22.78-16.12,32.56-11.4,13.41,6.49,1.55,25.22-8,29.5,8,8,9.56,26.27,5,36.24-5,11-13.53,22.43-23.08,29.87,8.86,7.7.43,20.42,5.62,29.3,6.71,1,18,4,20.85-4.88,2.59-8.17-5.49-12.95-7.4-20-2.38-8.9,13.46-16.8,15.86-8.85,1.48,4.9-5.14,4.68-7,7.34-2.55,3.61.88,6.86,2.39,10.22,3.15,7,3.65,15.71-2.24,21.89-7.08,7.44-13.37-.11-20.55-1.14-3.52-.51-5.5,2.11-8.93,3.63s-7.4,2.66-11,4c-8.94,3.26-16.15,1.91-25.39,1.9-9,0-20-.64-27.36-6.59-8-6.44-7.1-18.23-7.57-27.7,0-.3-16.23-6.89-17.92-8C19,104.68,13.64,100.31,11.11,95,6.3,84.93,6.34,71.51,9.25,60.94Z" transform="translate(-0.19)"/><path class="cls-3" d="M84.93,23.14c6.19-2.56,9.88-3.22,2.35-8.46-5.51-3.84-11-2.71-17.43-2.39-4.58.23-23.26-2.44-22.23,5.67.38,3,11.69,9.3,14.22,8.16-1.92.87-9,1.85-8.49,5.1s7.4,1.94,9.49,2.1a11.51,11.51,0,0,0-4,3.36c3.54,5.2,29.42,5,30.86-2.38-2.66-1.82-5.86-1.12-8.46-2.09,2.56-1.05,7.62.59,9.15-2.48C92.2,26.06,88.08,23.51,84.93,23.14Z" transform="translate(-0.19)"/><path class="cls-3" d="M143.05,18.24c2.21-6.12-9.33-10.75-14-9.28-3.47,1.1-9.16,8.58-2.85,9.83,3.76.74,7.74-4.56,9.74-6.93-.66,2.08-2.11,6.91.06,8.92C138.64,23.2,142.05,21,143.05,18.24Z" transform="translate(-0.19)"/><path class="cls-3" d="M2.63,7.31c-3.78,3,5.28,9.2,7-.34,1.72,7.64,14.16,0,7.37-4C12.93.54,1.38,8,2.13,8.81" transform="translate(-0.19)"/><path class="cls-3" d="M6.61,70.05c1.1-5.92,11.28-1.28,10.47,5.39-.54,4.45-4.32,9.21-8.83,10,2.61-2,12.23-10.4,12.81-2.4.24,3.24-5.83,7.58-7.9,9.37,4.77-7.45,14-1.72,10.25,6.08-3.54,7.38-9.21,6.38-12.92.58-4.66-7.29-8.28-23.25-2.88-31" transform="translate(-0.19)"/><path class="cls-3" d="M136.06,60.09c-4.12-.63-10.61-1.51-12.58,3.87-1.83,5,3.51,7.09,7.68,7.09-2.29.8-9.49.75-10.15,5.58-.71,5.17,7.21,4.29,11,4.48-2.63.78-15.31,3.2-12.3,9.25,2.17,4.38,10.49-.09,12.82-2,7.43-6.14,9-19.36,5.5-27.76" transform="translate(-0.19)"/><path class="cls-3" d="M116.65,114.36c-2.43-.28-8.9.85-8.51,4.48s5.13,2.42,7.46,2.59c-2.53,2.1-5.78,4.31-4.55,8.27.93,3,4.45,5,7.1,3.11,5.2-3.63.51-14.44-1-18.45" transform="translate(-0.19)"/><path class="cls-3" d="M43,130.29c3-6,12.58,1.78,2.53,4.93,4.49-8.36,12.59,6.16,2.34,5.92C41.63,141,42,133.06,42,128.3" transform="translate(-0.19)"/><path class="cls-3" d="M131.09,137.76c-2.76.92-1.36,4.85.51,5.94a4.17,4.17,0,0,0,1.45-4.27c2.09,4,8,.61,5.9-3.17-1.89-3.48-5.37,2.61-8.86,2" transform="translate(-0.19)"/><path class="cls-3" d="M133.08,102.41c-4.56,3,3.77,6.64,4,.65-.67,4,4.4,5.16,4.58.89,3.21,3.57,7.27-1.92,1.92-4-3-1.22-12.41.45-10.48,4.5" transform="translate(-0.19)"/><path d="M64.87,87C70,96.24,101,82.76,83.79,74.65c-5.62-2.65-13.14-1-17.29,3.49C61,84.05,65.92,89.8,72.83,90" transform="translate(-0.19)"/><path class="cls-4" d="M99.36,120.23c2.91,5.81,6,20.73,1.5,26.34-5.63,7-20.93,6.84-28.44,4.44-9.13-2.92-10.39-11.56-10.93-20.44-.35-5.87-.54-7.83,4.87-8.22a98.75,98.75,0,0,0,12.45-1.41C85.45,119.64,95.44,112.41,99.36,120.23Z" transform="translate(-0.19)"/><path class="cls-5" d="M141,62.32a32.63,32.63,0,0,0-10.67-2.66,41.59,41.59,0,0,1-.58,8.91c-1.3,7.42-5,14.45-10.09,20.81a24.81,24.81,0,0,0,10.42,4.79c4.5-5.6,8-11.88,9.4-17.82A51.54,51.54,0,0,0,141,62.32Z" transform="translate(-0.19)"/><path class="cls-6" d="M116.47,131.49c-3-2-6-8,0-11-2,0-5,0-6-2,0-3.44,3-5.39,6.32-5.24-.83-1.67-1.72-3.36-2.64-5.1a58.55,58.55,0,0,0,15.92-14,24.81,24.81,0,0,1-10.42-4.79C109.26,102.35,93,112.53,79,117.46c-6.58,2.32-13.15,2.93-20.1,3.22,7.53,5.53,27.14-4.67,36.86-3.25A16.92,16.92,0,0,1,109.05,129c2.32,7.38-2,13.12-3.15,20.19,9.74,1.19,13.34-8.67,14.72-16.14.13-.7.22-1.39.29-2.07A6.72,6.72,0,0,1,116.47,131.49Z" transform="translate(-0.19)"/><path class="cls-5" d="M116.79,113.25c-3.37-.15-6.32,1.8-6.32,5.24,1,2,4,2,6,2-6,3-3,9,0,11a6.72,6.72,0,0,0,4.44-.52C121.58,124.44,119.6,118.93,116.79,113.25Z" transform="translate(-0.19)"/><path class="cls-6" d="M133.54,38.64c3.26-3.41,22.32-20.48,7.86-22.75l2.6-1.3c-5.16,1.36-8.16,8.2-12.33,11.38-6.28,4.78-8.88,4-6.51,11.33C127.64,45,130,52,130.32,59.66A32.63,32.63,0,0,1,141,62.32C140.67,54.25,138.09,47,133.54,38.64Z" transform="translate(-0.19)"/><path class="cls-7" d="M40.15,27.86A39.64,39.64,0,0,0,27.37,39.25a59.74,59.74,0,0,0-4.73,7.52C22,48,21.36,49.32,20.79,50.63a11.36,11.36,0,0,0-.72,2.13,4.54,4.54,0,0,0,.26,2.38,2.59,2.59,0,0,0,2.23.86,4.85,4.85,0,0,0,1.66-1.42,15.24,15.24,0,0,0,1.05-2c.58-1.3,1.2-2.59,1.85-3.86a59.37,59.37,0,0,1,4.47-7.42A65.17,65.17,0,0,1,42.8,29.11c.41-.35-2.08-1.56-2.65-1.25Z" transform="translate(-0.19)"/><path class="cls-8" d="M44.36,73.72a3.52,3.52,0,1,1-3.52-3.53A3.53,3.53,0,0,1,44.36,73.72Z" transform="translate(-0.19)"/><path class="cls-8" d="M110.24,73.72a3.53,3.53,0,1,1-3.53-3.53A3.53,3.53,0,0,1,110.24,73.72Z" transform="translate(-0.19)"/><path class="cls-8" d="M18.28,31.87c-5.35,1.61-11-3.15-14-7.07A15.63,15.63,0,0,1,.85,17.15c-.24-2.37.94-4.93,2.25-6.86,5.25-7.76,17-7.89,24.32-3.14a14.6,14.6,0,0,1,6.81,13.32c0,.68.44,1.18.57.23a15.89,15.89,0,0,0-5.12-14A20.06,20.06,0,0,0,15.81,1.9,16.24,16.24,0,0,0,3.11,8.17,15.41,15.41,0,0,0,.24,15.31a13.88,13.88,0,0,0,1.94,8c2.88,5.17,9.64,11.3,16.09,9.2.2-.07.13-.72,0-.68Z" transform="translate(-0.19)"/><path class="cls-8" d="M37.29,20.51c8-3.83,17.21-5.63,26-6.45A82,82,0,0,1,92,16a38.38,38.38,0,0,1,13.36,6.11c.18.14,1.66.84,1.07.37-7.16-5.63-16.35-8.15-25.26-9.12a87.35,87.35,0,0,0-30.57,1.85,52.89,52.89,0,0,0-13.42,5.19s.09.09.12.07Z" transform="translate(-0.19)"/><path class="cls-8" d="M109.57,21.72c.37-4.62,5.62-7.31,9.4-8.79a32.88,32.88,0,0,1,14.71-2.31,15.23,15.23,0,0,1,11,5.64c2.33,3.12,2.19,7.45.88,11-1.86,5-6,7.81-10.27,10.64a3.27,3.27,0,0,0,.52,1.28c4.75-1.07,8.69-5.11,10.44-9.59a15.4,15.4,0,0,0-.4-11.81A14.08,14.08,0,0,0,137,9.59c-5-1.61-10.82-.94-15.8.65-4.77,1.52-12.13,4.77-12,10.79,0,.21.31.58.3.69Z" transform="translate(-0.19)"/><path class="cls-8" d="M56.13,15c-4.08-.14-8.39,1-10.42,4.85-.15.29.34.79.51,1a14.83,14.83,0,0,0,8,3.93,40,40,0,0,0,4.49.49l2.18.1a5.29,5.29,0,0,0,1.86-.07c.12,0-.33-.5-.39-.53a14,14,0,0,0-4.05-.83c-1.4-.14-2.8-.25-4.19-.43a13.32,13.32,0,0,1-7.81-3.31l.51,1a10.86,10.86,0,0,1,9.43-6s-.06-.14-.1-.14Z" transform="translate(-0.19)"/><path class="cls-8" d="M62.72,25.72a8.93,8.93,0,0,0-4.87.9,13.07,13.07,0,0,0-4.36,3.26,4.26,4.26,0,0,0-1.25,3,2.26,2.26,0,0,0,2,1.82,8.19,8.19,0,0,0,2.66,0,12.7,12.7,0,0,0,4.43-1.37c.1,0,.76-.44.7-.56s-1.16.15-1.36.2c-.5.11-1,.19-1.49.28a10.53,10.53,0,0,1-2.51.16,2.8,2.8,0,0,1-2.45-1.33,2.83,2.83,0,0,1,.33-2.52A6.66,6.66,0,0,1,55,29c.09-.11.18-.22.28-.32l.25-.27.18-.16.08-.07c.16-.14,0,0,0,0s-.12.07.09-.07L56,28l0,0s.23-.16.08-.06l.44-.26a14.72,14.72,0,0,1,5.81-1.62c.13,0,.38-.35.44-.34Z" transform="translate(-0.19)"/><path class="cls-8" d="M65.11,32.1c-2.1.23-4.37.13-6.22,1.32A2.3,2.3,0,0,0,57.67,36a6.45,6.45,0,0,0,1.5,2.12,7.57,7.57,0,0,0,1.91,1.61A11.66,11.66,0,0,0,66.24,41a17.92,17.92,0,0,0,4.07-.29,21.63,21.63,0,0,0,2.22-.52,10.45,10.45,0,0,0,1-.46,1.92,1.92,0,0,0,1-.84,2.39,2.39,0,0,0-.63-.73,4.83,4.83,0,0,0-1.26,0c-.37.07-.73.16-1.1.21-.67.09-1.32.3-2,.43a24.73,24.73,0,0,1-3.43.43,13.87,13.87,0,0,1-5.39-.7,6.58,6.58,0,0,1-1.82-.95l-.28-.22-.06-.06,0,0a4.25,4.25,0,0,1,.44.5c-.07-.08.56.75.37.42a2.84,2.84,0,0,1-.28-.61A2.72,2.72,0,0,1,60,34.92a7.55,7.55,0,0,1,2-1.4c.46-.21.91-.47,1.4-.64.28-.11.53-.28.82-.37a7.08,7.08,0,0,1,1-.2s-.13-.22-.19-.21Z" transform="translate(-0.19)"/><path class="cls-8" d="M76.79,38c3.34,1.45,7.75.84,10.92-.8,1.66-.86,4.29-3.38,2.43-5.3-1.58-1.63-4.55-1.9-6.65-2.16L83,31.06c3,.23,8.31.35,9.53-3.2s-4-4.74-6.35-5.32c-.29-.08-.7,1.23-.47,1.29,3.3.8,6.06-.77,9.08-1.81.31-.11.56-1,.46-1.25-1-2.66-3.8-3.9-6.4-4.44-.23,0-.6,1-.39,1.07,2.44,1.15,5.2,1.76,6.24,4.58l.45-1.25c-3,1.05-5.65,2.51-9,1.81l-.47,1.29a11.5,11.5,0,0,1,4.91,1.61c.62.41,1.86,1.41,1.59,2.32s-2,1.41-2.77,1.62a18.35,18.35,0,0,1-6,.36c-.34,0-.68,1.3-.48,1.32,2.06.25,4.93.52,6.53,2,1.12,1,.33,1.71-.75,2.41-3.4,2.21-7.83,2.34-11.71,1.72-.18,0-.44.71-.29.77Z" transform="translate(-0.19)"/><path class="cls-8" d="M20.9,38.53c-5.69,6.22-9,14.52-11.19,22.52C7.41,69.32,5.9,78.34,7,86.92c2.12,16.57,18.9,26.24,33.33,30.87A87.91,87.91,0,0,0,64.37,122a77.61,77.61,0,0,0,23-3.06c15.47-4.29,30.82-12.41,41.4-24.72,4.85-5.64,8.71-12.42,10.08-19.8a39.25,39.25,0,0,0-3.47-23.71,35.09,35.09,0,0,0-3.73-6.16c-.17-.24-1.21.3-1.09.54a73.93,73.93,0,0,1,5.59,12.37,37.7,37.7,0,0,1,1.76,11.75,38.27,38.27,0,0,1-6.53,20.45c-8.88,13.46-24,22.26-39.06,27.18a81.74,81.74,0,0,1-22.86,4.26,82.14,82.14,0,0,1-22.92-2.85c-14.6-3.83-31.45-11.84-36.91-27.06-2.67-7.45-1.78-16.16-.41-23.79,1.53-8.49,4.18-17.22,8.72-24.62a29.45,29.45,0,0,1,3.16-4.29c.08-.09-.14,0-.17,0Z" transform="translate(-0.19)"/><path class="cls-8" d="M11,67.57c1.93-.48,4.22-.67,6,.46a5.32,5.32,0,0,1,2.31,4.09c.46,4.77-2.83,9.14-7,11.06l-.5.89c2.08-1.4,7.69-4.86,9.64-1.37a5,5,0,0,1-.07,4.1,12.05,12.05,0,0,1-4.52,5.25c-.19.13-.88,1.31-.71,1.27,2.2-.48,7.4-1.26,7.09,2.46-.28,3.26-3.84,5.65-6.38,7.11a3.25,3.25,0,0,0-.7,1.26,15.08,15.08,0,0,0,7.84-8.48c.37-1.21.4-2.64-.73-3.46-1.7-1.24-4.48-.62-6.33-.2l-.71,1.27c3-2.16,7.1-6.43,6.35-10.56-.93-5.17-8.08-1-10.33.49a2.9,2.9,0,0,0-.49.89c4.28-2,7.8-6.43,8.25-11.24a6.08,6.08,0,0,0-1.8-5.33c-2-1.6-4.78-1.06-7-.31a.75.75,0,0,0-.2.35Z" transform="translate(-0.19)"/><path class="cls-8" d="M134.68,60a10.71,10.71,0,0,0-8.86.26,12.46,12.46,0,0,0-3.48,2.45c-.84.84-2.06,2.14-2.21,3.36-.32,2.42,2.65,4.59,4.63,5.32,2.6,1,5.45.75,8.14,1.19l0-1.37c-3.7.48-9.62,2.13-10.93,6.21a4.85,4.85,0,0,0,.49,4.12c1.52,2.06,4.54,2.48,6.87,2.81l0-1.45c-4.24-.26-9.43,1.18-9.27,6.25a4.86,4.86,0,0,0,2.13,4.23c2.2,1.4,4.9,1,7.19.06.25-.1,0-1.61-.05-1.59a11.89,11.89,0,0,1-6.21,0A4,4,0,0,1,120.28,89c.06.43.13-.4.21-.62a4.1,4.1,0,0,1,.46-.91,5.94,5.94,0,0,1,1.88-1.82,10.58,10.58,0,0,1,6.46-1.26c.12,0,.18-1.42,0-1.45-2.09-.3-4.68-.82-6.3-2.28-1.23-1.11-1.11-1.92-.17-3.22,2.24-3.12,6.44-4.57,10.12-4.82.15,0,.15-1.33,0-1.37-4.72-1-10-.6-12.6-5.52l0,1.57a13.12,13.12,0,0,1,14.38-6.94s.05-.3,0-.32Z" transform="translate(-0.19)"/><path class="cls-8" d="M67.2,77.17c.12-1,2.7-1.48,3.45-1.68a33,33,0,0,1,6.16-.91c3.58-.19,8.79-.15,11.33,2.85s0,6.41-2.63,8a21.48,21.48,0,0,1-11.66,2.94c-4-.12-8.06-1.55-9.74-5.45-.15-.35-1.51.87-1.46,1.27a5.69,5.69,0,0,0,3.22,4.57,13.61,13.61,0,0,0,6.31,1.4,23.9,23.9,0,0,0,13.46-4c2.74-1.88,6.37-5.83,4.14-9.37C87.37,73,81,73.23,77.14,73.57a26.56,26.56,0,0,0-7.53,1.64c-.83.33-2.8,1.11-2.8,2.27,0,.1.38-.18.39-.31Z" transform="translate(-0.19)"/><path class="cls-8" d="M73.19,89.84a42.2,42.2,0,0,1,.72,4.77c.23,1.82.42,3.64.64,5.45.33,2.69.45,5.88,2.29,8,0,0,.52.51.45.22a71.57,71.57,0,0,1-1.53-7.9,45,45,0,0,0-2.3-10.33c0-.07-.3-.34-.27-.24Z" transform="translate(-0.19)"/><path class="cls-8" d="M72.16,109.32a34.48,34.48,0,0,0,16.25-6.61,35,35,0,0,0,6.52-6c1.69-2,3.7-4.65,4.21-7.31.1-.51-.9.66-1,.81A26.84,26.84,0,0,1,94,96.76,33.31,33.31,0,0,1,87.62,102a52.21,52.21,0,0,1-14.94,6.46c-.21,0-.64.83-.52.82Z" transform="translate(-0.19)"/><path class="cls-8" d="M23.33,32.06c-.43,0-.87,0-1.3,0l-.57,0L21,32l-.51-.08c-.12,0,0,0,0,0l-.11,0-.11,0,.1,0-.22-.05h0l-.1,0-.1,0,.07,0-.09,0c-.13,0,.21.08.06,0l-.08,0,0,0a.87.87,0,0,1-.17-.07s.15.07,0,0l-.09,0-.15-.08c.13.07,0,0-.07-.05a3.06,3.06,0,0,1-.29-.21l-.07,0,0,0L19,31.14a4.15,4.15,0,0,1-.8-1.09,5.75,5.75,0,0,1-.54-2.74,10.54,10.54,0,0,1,.61-3.14,13.54,13.54,0,0,1,1.47-3,11.33,11.33,0,0,1,2-2.39,5.36,5.36,0,0,1,2.29-1.22l.28-.05h.22c.07,0-.12,0,0,0h.29s.21,0,.06,0,0,0,.07,0c.19,0-.26-.06-.08,0l-.1,0-.2-.06-.08,0c-.24-.08-.12,0-.07,0l-.16-.07.06,0c.11.05-.26-.14-.12-.06l.14.08c.09,0-.17-.11-.08,0l.06,0,.15.1.12.09.06,0c.07.05-.08-.08,0,0l.26.25a5.79,5.79,0,0,1,.5.61,9.23,9.23,0,0,1,.92,1.69,15,15,0,0,1,.77,2.35c.12.48.23,1,.32,1.44a15.59,15.59,0,0,0,.33,1.68c.1.3.2.6.28.91s.07.33.12.49a2.26,2.26,0,0,0,.32.54c.11.16.48.25.65.3s.49.19.58.09a.81.81,0,0,0,.22-.39A3.89,3.89,0,0,0,30,27c0-.15,0-.3,0-.44a1.6,1.6,0,0,0,0-.44c-.06-.56-.14-1.11-.25-1.66A20.63,20.63,0,0,0,29,21.7a8.29,8.29,0,0,0-2-3.41A6.07,6.07,0,0,0,25.2,17.2a6.52,6.52,0,0,0-2.37-.56,4.36,4.36,0,0,0-2.52.89,9.16,9.16,0,0,0-2.15,2.24,13.58,13.58,0,0,0-1.56,3.06,11.56,11.56,0,0,0-.69,3.34,6.73,6.73,0,0,0,.5,3,4.74,4.74,0,0,0,2.13,2.25,8.56,8.56,0,0,0,1,.46c.25.09.5.18.76.25l.36.1.11,0,.11,0a8.19,8.19,0,0,0,2.09.15,9.46,9.46,0,0,0,1.07-.12c.09,0-.23-.17-.24-.17a1.22,1.22,0,0,0-.49-.12Z" transform="translate(-0.19)"/><path class="cls-8" d="M120.39,32.21a4.12,4.12,0,0,1-.43-1.49c0-.42.06-.85.1-1.28a4.28,4.28,0,0,1,.84-2.11,5.35,5.35,0,0,1,1.78-1.46,6.62,6.62,0,0,1,1.08-.46l.62-.17.15,0c-.16,0,0,0,0,0l.33-.07.31-.05.15,0c.16,0-.18,0,0,0l.31,0c.13,0,.45,0,.14,0h.4l.29,0h-.1l.18,0h.14s.25,0,0,0,0,0,0,0l.15,0c.12,0,.37.11.1,0l.29.08.26.08c.16,0-.1,0,0,0l.15.06a4.25,4.25,0,0,1,.49.21l.22.12,0,0,.12.07c.14.09.28.2.42.31a3.33,3.33,0,0,1,.66.74,2.82,2.82,0,0,1,.36.86,3.27,3.27,0,0,1,.08,1.08c-.17,2.46-2.17,4.33-3.69,6.06a2.59,2.59,0,0,0-.71,1c0,.16.68.22.74.23a2,2,0,0,0,1-.09,8.18,8.18,0,0,0,2.33-1.9,12.94,12.94,0,0,0,1.44-1.77,7.35,7.35,0,0,0,1.32-2.9,3.54,3.54,0,0,0-2-3.76,7.57,7.57,0,0,0-2.63-.84,12.56,12.56,0,0,0-3.57-.08,6.9,6.9,0,0,0-4.44,2,3.59,3.59,0,0,0-.91,2A3.25,3.25,0,0,0,119.1,30c.18.49.41,1,.62,1.45.12.26.25.51.39.76,0,0,.28,0,.28,0Z" transform="translate(-0.19)"/><path class="cls-8" d="M126.51,11.06a8.14,8.14,0,0,0-2,2.67,7.66,7.66,0,0,0,.36,4.1.23.23,0,0,0,.07.14c1.24.06,2.47.16,3.71.28a5.46,5.46,0,0,0,2.57-.2,6,6,0,0,0,2.3-2.06,8,8,0,0,0,1.31-2,3.93,3.93,0,0,0,0-1c0-.35-.3-1.28-.24-1.46a12,12,0,0,0-.3,5.89A4.74,4.74,0,0,0,136.43,21c3.47,1.87,7.86-1.54,9.16-4.61a5.22,5.22,0,0,0-.13-.91,9.72,9.72,0,0,0-2,1.55,13.37,13.37,0,0,1-1.93,1.31,6.82,6.82,0,0,1-3.76,1,3.9,3.9,0,0,1-2.82-1.49c-1.06-1.39-.56-3.15-.13-4.71l-.25-1.46a3.46,3.46,0,0,1,0,.91,4.61,4.61,0,0,1-.73.88,9.87,9.87,0,0,1-1.6,1.63,4.65,4.65,0,0,1-2.9.92c-.6,0-1.2-.07-1.8-.12a8.83,8.83,0,0,0-2.23-.13h-.41l-.22.54c-.08-.08.08-.66.12-.81a5.82,5.82,0,0,1,.6-1.32,12.84,12.84,0,0,0,1.22-2.32c0-.14-.17-.71-.11-.77Z" transform="translate(-0.19)"/><path class="cls-8" d="M3.79,8.75a5.48,5.48,0,0,0-1.32,3.34,2.48,2.48,0,0,0,1.13,2c2,1.3,4.21-.48,5.41-2a8.68,8.68,0,0,0,1.75-4.85L9.58,8.53A10.43,10.43,0,0,0,12,9.63a6.85,6.85,0,0,0,2.07.21,4.65,4.65,0,0,0,3.29-1.78,4.5,4.5,0,0,0,1.27-3.2A4.76,4.76,0,0,0,17.23,2,7.07,7.07,0,0,0,15.37.61,6.74,6.74,0,0,0,14.09.09a4.52,4.52,0,0,0-1.72,0c-.19,0-1,.94-.86,1.08a4.25,4.25,0,0,0,.85.63c.36.14.72.27,1.08.43a8,8,0,0,1,1.7,1A5.23,5.23,0,0,1,17,5.69,3.69,3.69,0,0,1,17.14,7a4.39,4.39,0,0,1-.08.5c0,.1-.07.2-.1.29s.05-.09,0,0l-.09.16c.12-.23.05-.07,0,0,.28-.41-.18.19.18-.24-.11.13.1-.1.1-.1s-.2.18,0,0c-.05,0-.19.15,0,0l-.14.1c-.1.08,0,0,0,0l-.19.12a3.64,3.64,0,0,1-1.34.39A6.18,6.18,0,0,1,13.45,8a14.15,14.15,0,0,1-2.71-.83c-.2-.09-.56.37-.66.47a1.87,1.87,0,0,0-.52.86A11.24,11.24,0,0,1,9,10.77a6.26,6.26,0,0,1-.32.75l-.18.36c-.13.22.09-.14,0,.07a2.14,2.14,0,0,1-.13.19c.16-.23,0,0,0,0,.16-.24.08-.1,0,0s-.17.18,0,0c0,.05-.21.2,0,0l-.09.09c-.17.14.14-.11,0,0s-.3.22-.2.16a3.45,3.45,0,0,1-1,.45,2.82,2.82,0,0,1-3.4-1.59A3.21,3.21,0,0,1,3.91,8.7c.1-.15-.08,0-.12.05Z" transform="translate(-0.19)"/><path class="cls-8" d="M42.37,119.64A25.78,25.78,0,0,0,42,130.35a22.56,22.56,0,0,0,3.84,10c.1.14.9.34.87.26-1.19-3.35-2.59-6.52-3.16-10.06a75.46,75.46,0,0,1-.61-10.73c0-.1-.53-.26-.55-.19Z" transform="translate(-0.19)"/><path class="cls-8" d="M114.65,107.23c2.2,4.39,2.63,9.87,3,14.69a83.75,83.75,0,0,1-.19,17.34,69,69,0,0,1-1.31,7c0-.22.8-.41.94-.65,2.46-4.24,2.57-9.82,2.62-14.58a64.4,64.4,0,0,0-1.9-17,26.93,26.93,0,0,0-2.81-7,2.19,2.19,0,0,0-.37.25Z" transform="translate(-0.19)"/><path class="cls-8" d="M115,114.24a13.68,13.68,0,0,0-4.38,1.66,8,8,0,0,0-3.12,5.08h0a39.31,39.31,0,0,1,4.94.56,21,21,0,0,0,2.5.19c.1,0,.84-.12.84.11a5.41,5.41,0,0,1-.81.49,10.24,10.24,0,0,0-3.79,3.63c-1.84,3.74,3.84,5.61,6.54,5.74.25,0,1.17-.55,1.3-.47a15.85,15.85,0,0,0-2.62-.89,9.77,9.77,0,0,1-2.06-1,3.63,3.63,0,0,1-1.75-2.43c-.3-2.54,2.67-4.49,4.51-5.57,0,0,0,0,0,0a38.39,38.39,0,0,1-5-.8c-.43-.07-.86-.13-1.29-.17s-1,.06-1.26-.2.14-1.46.27-1.89a5.6,5.6,0,0,1,1.35-2.38,7.42,7.42,0,0,1,3.4-1.5l.37-.16Z" transform="translate(-0.19)"/><path class="cls-8" d="M44.58,129.21a28.53,28.53,0,0,1,3.74-1c1.79-.11,3.2.94,4.42,2.15l-.38-1.47a22.6,22.6,0,0,0-5.42,4.48c-.16.15.26,1.59.43,1.55a16.13,16.13,0,0,1,4.75-.31c1.13.12,2.24.34,3.39.35L55,133.4a8.71,8.71,0,0,1-3.42,3.69c-1.47.83-3.16,1-4.63,1.85-.14.07.2,1.3.37,1.3a9.93,9.93,0,0,0,4.85-1.53A9.07,9.07,0,0,0,55.53,135c.09-.18-.24-1.59-.48-1.59-1.14,0-2.25-.22-3.38-.32a15.69,15.69,0,0,0-4.73.36l.43,1.55a23.28,23.28,0,0,1,5.41-4.54c.21-.11-.25-1.34-.38-1.47-1.15-1.13-2.66-2.33-4.38-2.14a11.69,11.69,0,0,0-3.7,1.51c-.1.05.16.92.26.9Z" transform="translate(-0.19)"/><path class="cls-8" d="M63.92,120.8c-3,3.9-3.8,8.94-3.19,13.73a30.55,30.55,0,0,0,1.86,7.22c.81,2.09,1.91,4.88,3.8,6.22a4.43,4.43,0,0,0,1.23-.52A16.31,16.31,0,0,0,66,144.34a34.44,34.44,0,0,1-1.6-3.36,30.18,30.18,0,0,1-2-7.16c-.66-4.51-.46-9.48,2.22-13.34-.12.17-.61.13-.76.32Z" transform="translate(-0.19)"/><path class="cls-8" d="M97.67,116.23c2.78,4.49,5.85,9,6.66,14.36a16.52,16.52,0,0,1-.41,7.2,18.2,18.2,0,0,1-1.53,3.61c-.73,1.32-1.74,2.5-2.4,3.85-.11.23.54,1.5.79,1.36,2.43-1.36,4-5,4.58-7.56a18,18,0,0,0-.1-8.13A38.63,38.63,0,0,0,97.67,116c-.21-.28-.07.16,0,.26Z" transform="translate(-0.19)"/><path class="cls-8" d="M119.43,136.14a16,16,0,0,0,13,2.94,10.65,10.65,0,0,0,8.15-9.24c.61-4.91-1.41-8.75-4.92-12-1.48-1.37-3.22-2.62-4-4.52a9.88,9.88,0,0,1,.25-7.53c2.29-4.86,10.22-6,14.67-3.88.12.06-.21-.4-.3-.46-3.9-2.57-10.09-1.95-13.62,1.05-3.34,2.83-3.28,8.52-.82,11.88,2.6,3.54,6.89,5.45,7.78,10.14.92,4.86-.91,10.16-5.39,12.57-4.69,2.51-10.67,1.51-15-1.3-.08-.05.14.29.2.34Z" transform="translate(-0.19)"/><path class="cls-8" d="M118.74,141.23c.8,1.64,2.73,2.41,4.37,2.92a26.47,26.47,0,0,0,6.68,1.07c5.14.2,11.15-.74,14.69-4.83,6.61-7.64.55-17.07-3.67-24.18-1-1.63-4.21-6.23-.88-7.17l-1.28-.16c3.25.77,7.12,1,9.84-1.33a3.54,3.54,0,0,0,1.5-3.2c-.27-1.46-1.72-2.19-3-2.61a3,3,0,0,0-.9-.16c-.06,0-.48,0-.25.06,1.17.45,2.43,1.22,2.61,2.57a3.45,3.45,0,0,1-1.18,2.79,7.68,7.68,0,0,1-4.17,2,11.17,11.17,0,0,1-3.69-.13,2.56,2.56,0,0,0-1.23,0c-3.08,1,.43,5.86,1.3,7.3,2.55,4.19,5.39,8.45,6.4,13.33a12.13,12.13,0,0,1-6.35,13.64A22.45,22.45,0,0,1,128.38,145c-3.16-.21-7.26-1-9.34-3.73,0-.05-.29,0-.3,0Z" transform="translate(-0.19)"/><path class="cls-8" d="M131.33,138.36a4.83,4.83,0,0,0-.41.86,1.23,1.23,0,0,0,.09.78,3.79,3.79,0,0,0,1.89,1.59s.81.35.81.24a3.87,3.87,0,0,1,.46-1.43,4.24,4.24,0,0,0,.45-1.67l-1.16-.49c1.13,1.27,3.34,2.33,5,1.39a3,3,0,0,0,1.33-3.65,3.9,3.9,0,0,0-2.54-2c-.06,0-.18,0-.09,0s.54.36.79.57a2.65,2.65,0,0,1,.63.82,2.44,2.44,0,0,1,.18,1.72,3.15,3.15,0,0,1-2.57,2.17,2.22,2.22,0,0,1-.89,0c.2,0,0,0-.11-.1a5.92,5.92,0,0,1-.59-.52c-.09-.1-1.12-.56-1.12-.45a4.22,4.22,0,0,1-.47,1.66,3.78,3.78,0,0,0-.47,1.42l.81.25a2.43,2.43,0,0,1-1.28-1.28,4.05,4.05,0,0,1-.16-.77,3.51,3.51,0,0,1-.08-.91c0-.08-.45-.26-.47-.21Z" transform="translate(-0.19)"/><path class="cls-8" d="M133.05,103.33c-.51,1.18-.59,3,.69,3.74a2.56,2.56,0,0,0,3.24-1,4,4,0,0,0,.55-2.74c0-.07-.05-.42-.15-.42a.71.71,0,0,1-.31-.13c-.11-.06-.06.31-.06.33a4.39,4.39,0,0,0,2.23,3.45,2.47,2.47,0,0,0,3.2-.89,3,3,0,0,0,.27-.47c.13-.27.09-.33.36-.22a6.55,6.55,0,0,0,.93.35,2.16,2.16,0,0,0,1.5-.18,2.43,2.43,0,0,0,1-2.61,4.12,4.12,0,0,0-.83-2.06c-.41-.49-1.24-1.24-1.89-.89-.21.11.06.9.18,1,.62.57,1.5.78,2,1.49,0,0,.19.27.16.29s.06-.38-.05-.13a6.35,6.35,0,0,1-.23.7c-.69,1.25-2.21,1.13-3.28.48a.05.05,0,0,0-.09,0,2.66,2.66,0,0,1-2.77,2,3.31,3.31,0,0,1-2.53-2.4l0,.56a.53.53,0,0,1,.28-.14l-.15-.41c.18,1.59-.58,3.37-2.37,3.5a2.22,2.22,0,0,1-1.65-.47c-.69-.63-.43-1.61-.16-2.39a.83.83,0,0,0-.12-.41Z" transform="translate(-0.19)"/></g></g></g></svg>